{
.appVersion = "1352";
copyright = "Copyright 2015 The Comforter Project Authors (https://github.com/googlefonts/meow-script)";
customParameters = (
{
name = licenseURL;
value = "https://scripts.sil.org/OFL";
},
{
name = license;
value = "This Font Software is licensed under the SIL Open Font License, Version 1.1. This license is available with a FAQ at: https://scripts.sil.org/OFL";
},
{
name = vendorID;
value = GOOG;
},
{
name = fsType;
value = (
);
},
{
name = panose;
value = (
2,
0,
8,
3,
2,
0,
0,
2,
0,
3
);
},
{
name = glyphOrder;
value = (
.notdef,
CR,
.null,
space,
nbspace
);
},
{
name = "Use Typo Metrics";
value = 1;
},
{
name = Axes;
value = (
{
Name = Weight;
Tag = wght;
}
);
}
);
date = "2021-09-02 06:38:40 +0000";
designer = "Robert E. Leuschke";
designerURL = www.typesetit.com;
disablesNiceNames = 1;
familyName = "Meow Script";
featurePrefixes = (
{
automatic = 1;
code = "languagesystem DFLT dflt;\012\012languagesystem latn dflt;\012languagesystem latn AZE;\012languagesystem latn CRT;\012languagesystem latn KAZ;\012languagesystem latn TAT;\012languagesystem latn TRK;\012languagesystem latn ROM;\012languagesystem latn MOL;\012languagesystem latn CAT;\012";
name = Languagesystems;
}
);
features = (
{
automatic = 1;
code = "feature locl;\012feature sups;\012feature frac;\012feature ordn;\012feature titl;\012feature salt;\012feature ss01;\012feature ss02;\012feature ss03;\012feature ss04;\012feature ss05;\012feature ss06;\012";
name = aalt;
},
{
automatic = 1;

glyphs = (
{
color = 3;
glyphname = .notdef;
lastChange = "2021-09-03 05:46:43 +0000";
layers = (
{
layerId = "466AD7DC-B026-4005-940F-6404FDF7EB07";
paths = (
{
closed = 1;
nodes = (
"438 -5 LINE",
"449 7 LINE",
"449 575 LINE",
"438 587 LINE",
"47 587 LINE",
"35 575 LINE",
"35 7 LINE",
"47 -5 LINE"
);
},
{
closed = 1;
nodes = (
"142 139 LINE",
"225 292 LINE",
"142 443 LINE",
"153 465 LINE",
"236 314 LINE",
"321 466 LINE",
"334 443 LINE",
"248 290 LINE",
"334 139 LINE",
"321 117 LINE",
"236 267 LINE",
"153 117 LINE"
);
},
{
closed = 1;
nodes = (
"61 561 LINE",
"425 561 LINE",
"425 21 LINE",
"61 21 LINE"
);
},
{
closed = 1;
nodes = (
"402 40 LINE",
"402 538 LINE",
"82 538 LINE",
"82 40 LINE"
);
}
);
width = 484;
}
);
note = .notdef;
},
{
glyphname = A;
lastChange = "2021-09-02 07:14:54 +0000";
layers = (
{
hints = (
{
horizontal = 1;
place = "{-187, 33}";
type = Stem;
},
{
horizontal = 1;
place = "{-66, 35}";
type = Stem;
},
{
horizontal = 1;
place = "{295, 34}";
type = Stem;
},
{
horizontal = 1;
place = "{554, 33}";
type = Stem;
},
{
place = "{76, 37}";
type = Stem;
},
{
place = "{454, 36}";
type = Stem;
},
{
place = "{828, 37}";
type = Stem;
},
{
horizontal = 1;
place = "{535, 36}";
type = Stem;
},
{
place = "{95, 36}";
type = Stem;
},
{
place = "{651, 33}";
type = Stem;
},
{
horizontal = 1;
place = "{273, 8}";
type = Stem;
}
);
layerId = "466AD7DC-B026-4005-940F-6404FDF7EB07";
paths = (
{
closed = 1;
nodes = (
"664 -95 OFFCURVE",
"636 -74 OFFCURVE",
"622 -92 CURVE SMOOTH",
"587 -131 OFFCURVE",
"496 -165 OFFCURVE",
"490 -85 CURVE SMOOTH",
"483 1 OFFCURVE",
"611 232 OFFCURVE",
"677 293 CURVE",
"673 296 OFFCURVE",
"663 306 OFFCURVE",
"651 297 CURVE",
"655 305 OFFCURVE",
"650 311 OFFCURVE",
"649 311 CURVE",
"643 302 OFFCURVE",
"626 279 OFFCURVE",
"587 234 CURVE SMOOTH",
"511 140 OFFCURVE",
"353 -20 OFFCURVE",
"202 -11 CURVE SMOOTH",
"154 -7 OFFCURVE",
"131 22 OFFCURVE",
"131 76 CURVE SMOOTH",
"131 130 OFFCURVE",
"159 205 OFFCURVE",
"206 280 CURVE SMOOTH",
"308 438 OFFCURVE",
"489 570 OFFCURVE",
"693 555 CURVE SMOOTH",
"861 545 OFFCURVE",
"886 406 OFFCURVE",
"692 361 CURVE SMOOTH",
"565 331 OFFCURVE",
"371 365 OFFCURVE",
"294 385 CURVE SMOOTH",
"74 448 OFFCURVE",
"60 623 OFFCURVE",
"223 562 CURVE",
"245 551 OFFCURVE",
"259 584 OFFCURVE",
"235 591 CURVE",
"80 652 OFFCURVE",
"35 528 OFFCURVE",
"114 448 CURVE SMOOTH",
"142 419 OFFCURVE",
"180 393 OFFCURVE",
"229 371 CURVE SMOOTH",
"349 321 OFFCURVE",
"581 298 OFFCURVE",
"701 328 CURVE SMOOTH",
"911 376 OFFCURVE",
"929 576 OFFCURVE",
"696 591 CURVE SMOOTH",
"502 603 OFFCURVE",
"338 497 OFFCURVE",
"229 371 CURVE SMOOTH",
"164 294 OFFCURVE",
"96 176 OFFCURVE",
"95 76 CURVE SMOOTH",
"95 11 OFFCURVE",
"125 -42 OFFCURVE",
"200 -46 CURVE SMOOTH",
"373 -56 OFFCURVE",
"542 123 OFFCURVE",
"615 211 CURVE SMOOTH",
"654 257 OFFCURVE",
"673 284 OFFCURVE",
"681 293 CURVE",
"692 315 OFFCURVE",
"670 335 OFFCURVE",
"650 317 CURVE SMOOTH",
"577 247 OFFCURVE",
"445 6 OFFCURVE",
"454 -87 CURVE SMOOTH",
"464 -202 OFFCURVE",
"595 -176 OFFCURVE",
"649 -113 CURVE SMOOTH"
);
}
);
width = 652;
}
);
note = A;
unicode = 0041;
},
{
glyphname = AE;
lastChange = "2021-09-02 08:35:19 +0000";
layers = (
{
hints = (
{
horizontal = 1;
place = "{-187, 33}";
type = Stem;
},
{
horizontal = 1;
place = "{-66, 35}";
type = Stem;
},
{
horizontal = 1;
place = "{295, 34}";
type = Stem;
},
{
horizontal = 1;
place = "{554, 33}";
type = Stem;
},
{
place = "{76, 37}";
type = Stem;
},
{
place = "{454, 36}";
type = Stem;
},
{
place = "{828, 37}";
type = Stem;
},
{
horizontal = 1;
place = "{535, 36}";
type = Stem;
},
{
place = "{95, 36}";
type = Stem;
},
{
place = "{651, 33}";
type = Stem;
},
{
horizontal = 1;
place = "{273, 8}";
type = Stem;
},
{
horizontal = 1;
place = "{-130, 34}";
type = Stem;
},
{
horizontal = 1;
place = "{264, 8}";
type = Stem;
},
{
horizontal = 1;
place = "{338, 33}";
type = Stem;
},
{
horizontal = 1;
place = "{555, 38}";
type = Stem;
},
{
place = "{731, 40}";
type = Stem;
},
{
place = "{943, 39}";
type = Stem;
},
{
place = "{1435, 39}";
type = Stem;
},
{
place = "{785, 38}";
type = Stem;
},
{
horizontal = 1;
place = "{525, 35}";
type = Stem;
}
);
layerId = "466AD7DC-B026-4005-940F-6404FDF7EB07";
paths = (
{
closed = 1;
nodes = (
"1349 427 OFFCURVE",
"1378 564 OFFCURVE",
"1201 580 CURVE SMOOTH",
"1065 591 OFFCURVE",
"942 544 OFFCURVE",
"867 485 CURVE SMOOTH",
"866 484 OFFCURVE",
"865 483 OFFCURVE",
"864 483 CURVE",
"859 536 OFFCURVE",
"805 584 OFFCURVE",
"696 591 CURVE SMOOTH",
"516 602 OFFCURVE",
"362 512 OFFCURVE",
"254 398 CURVE",
"73 470 OFFCURVE",
"71 619 OFFCURVE",
"223 562 CURVE",
"245 551 OFFCURVE",
"259 584 OFFCURVE",
"235 591 CURVE",
"80 652 OFFCURVE",
"35 528 OFFCURVE",
"114 448 CURVE SMOOTH",
"142 419 OFFCURVE",
"180 393 OFFCURVE",
"229 371 CURVE",
"164 294 OFFCURVE",
"96 176 OFFCURVE",
"95 76 CURVE SMOOTH",
"95 11 OFFCURVE",
"125 -42 OFFCURVE",
"200 -46 CURVE SMOOTH",
"313 -53 OFFCURVE",
"425 22 OFFCURVE",
"509 99 CURVE",
"474 26 OFFCURVE",
"450 -45 OFFCURVE",
"454 -87 CURVE SMOOTH",
"464 -202 OFFCURVE",
"595 -176 OFFCURVE",
"649 -113 CURVE SMOOTH",
"664 -95 OFFCURVE",
"636 -74 OFFCURVE",
"622 -92 CURVE SMOOTH",
"587 -131 OFFCURVE",
"496 -165 OFFCURVE",
"490 -85 CURVE SMOOTH",
"485 -25 OFFCURVE",
"546 106 OFFCURVE",
"606 200 CURVE",
"615 211 LINE SMOOTH",
"654 257 OFFCURVE",
"673 284 OFFCURVE",
"681 293 CURVE",
"687 306 OFFCURVE",
"683 318 OFFCURVE",
"673 322 CURVE",
"701 328 LINE SMOOTH",
"737 336 OFFCURVE",
"767 349 OFFCURVE",
"791 364 CURVE",
"788 334 OFFCURVE",
"801 305 OFFCURVE",
"838 284 CURVE",
"520 233 OFFCURVE",
"468 -115 OFFCURVE",
"833 -110 CURVE SMOOTH",
"1023 -107 OFFCURVE",
"1146 -50 OFFCURVE",
"1217 10 CURVE SMOOTH",
"1248 36 OFFCURVE",
"1296 91 OFFCURVE",
"1286 137 CURVE SMOOTH",
"1275 182 OFFCURVE",
"1219 166 OFFCURVE",
"1250 133 CURVE SMOOTH",
"1268 113 OFFCURVE",
"1203 45 OFFCURVE",
"1192 35 CURVE SMOOTH",
"1128 -17 OFFCURVE",
"1016 -73 OFFCURVE",
"833 -76 CURVE SMOOTH",
"485 -81 OFFCURVE",
"581 285 OFFCURVE",
"980 255 CURVE",
"1008 258 OFFCURVE",
"1015 292 OFFCURVE",
"985 292 CURVE SMOOTH",
"859 292 OFFCURVE",
"818 334 OFFCURVE",
"832 383 CURVE",
"956 349 OFFCURVE",
"1108 352 OFFCURVE",
"1197 379 CURVE SMOOTH"
);
},
{
closed = 1;
nodes = (
"565 331 OFFCURVE",
"371 365 OFFCURVE",
"294 385 CURVE SMOOTH",
"293 385 OFFCURVE",
"292 386 OFFCURVE",
"291 386 CURVE",
"395 492 OFFCURVE",
"537 566 OFFCURVE",
"693 555 CURVE SMOOTH",
"861 545 OFFCURVE",
"886 406 OFFCURVE",
"692 361 CURVE SMOOTH"
);
},
{
closed = 1;
nodes = (
"1306 537 OFFCURVE",
"1324 456 OFFCURVE",
"1180 411 CURVE SMOOTH",
"1097 384 OFFCURVE",
"961 383 OFFCURVE",
"851 414 CURVE",
"850 414 OFFCURVE",
"849 414 OFFCURVE",
"848 415 CURVE",
"898 486 OFFCURVE",
"1041 558 OFFCURVE",
"1197 545 CURVE SMOOTH"
);
},
{
closed = 1;
nodes = (
"629 297 OFFCURVE",
"604 263 OFFCURVE",
"578 223 CURVE",
"499 128 OFFCURVE",
"347 -20 OFFCURVE",
"202 -11 CURVE SMOOTH",
"154 -7 OFFCURVE",
"131 22 OFFCURVE",
"131 76 CURVE SMOOTH",
"131 130 OFFCURVE",
"159 205 OFFCURVE",
"206 280 CURVE SMOOTH",
"223 307 OFFCURVE",
"243 333 OFFCURVE",
"265 358 CURVE",
"374 323 OFFCURVE",
"540 306 OFFCURVE",
"653 319 CURVE SMOOTH",
"652 319 OFFCURVE",
"651 318 OFFCURVE",
"650 317 CURVE SMOOTH"
);
}
);
width = 1298;
}
);
unicode = 00C6;
},
{
glyphname = B;
lastChange = "2021-09-02 07:14:54 +0000";
layers = (
{
hints = (
{
horizontal = 1;
place = "{-82, 35}";
type = Stem;
},
{
horizontal = 1;
place = "{189, 35}";
type = Stem;
},
{
horizontal = 1;
place = "{535, 36}";
type = Stem;
},
{
place = "{79, 35}";
type = Stem;
},
{
place = "{168, 37}";
type = Stem;
},
{
place = "{870, 36}";
type = Stem;
},
{
place = "{952, 38}";
type = Stem;
},
{
horizontal = 1;
place = "{55, 37}";
type = Stem;
},
{
horizontal = 1;
place = "{566, 35}";
type = Stem;
},
{
horizontal = 1;
place = "{235, 35}";
type = Stem;
}
);
layerId = "466AD7DC-B026-4005-940F-6404FDF7EB07";
paths = (
{
closed = 1;
nodes = (
"249 -66 OFFCURVE",
"332 -38 OFFCURVE",
"382 0 CURVE SMOOTH",
"464 64 OFFCURVE",
"619 292 OFFCURVE",
"684 384 CURVE SMOOTH",
"765 500 OFFCURVE",
"864 586 OFFCURVE",
"917 586 CURVE SMOOTH",
"940 586 OFFCURVE",
"940 621 OFFCURVE",
"917 621 CURVE SMOOTH",
"743 621 OFFCURVE",
"509 142 OFFCURVE",
"359 28 CURVE SMOOTH",
"315 -6 OFFCURVE",
"242 -29 OFFCURVE",
"185 -28 CURVE SMOOTH",
"71 -22 OFFCURVE",
"109 94 OFFCURVE",
"200 75 CURVE SMOOTH",
"211 73 OFFCURVE",
"226 67 OFFCURVE",
"245 58 CURVE SMOOTH",
"327 23 OFFCURVE",
"405 -17 OFFCURVE",
"491 -43 CURVE SMOOTH",
"820 -142 OFFCURVE",
"1039 171 OFFCURVE",
"814 266 CURVE",
"1060 328 OFFCURVE",
"1082 591 OFFCURVE",
"658 591 CURVE SMOOTH",
"372 591 OFFCURVE",
"212 472 OFFCURVE",
"178 365 CURVE SMOOTH",
"113 165 OFFCURVE",
"391 136 OFFCURVE",
"549 408 CURVE SMOOTH",
"561 428 OFFCURVE",
"530 446 OFFCURVE",
"518 425 CURVE SMOOTH",
"447 302 OFFCURVE",
"352 248 OFFCURVE",
"287 244 CURVE SMOOTH",
"226 241 OFFCURVE",
"187 277 OFFCURVE",
"212 354 CURVE SMOOTH",
"240 440 OFFCURVE",
"379 555 OFFCURVE",
"658 555 CURVE SMOOTH",
"1127 555 OFFCURVE",
"963 257 OFFCURVE",
"669 290 CURVE",
"641 281 OFFCURVE",
"648 256 OFFCURVE",
"668 255 CURVE SMOOTH",
"714 253 OFFCURVE",
"774 248 OFFCURVE",
"817 225 CURVE SMOOTH",
"967 143 OFFCURVE",
"776 -92 OFFCURVE",
"501 -10 CURVE SMOOTH",
"442 8 OFFCURVE",
"382 35 OFFCURVE",
"330 59 CURVE SMOOTH",
"292 75 OFFCURVE",
"249 101 OFFCURVE",
"208 109 CURVE SMOOTH",
"66 140 OFFCURVE",
"18 -54 OFFCURVE",
"183 -63 CURVE SMOOTH"
);
}
);
width = 902;
}
);
note = B;
unicode = 0042;
},
{
glyphname = C;
lastChange = "2021-09-02 07:14:54 +0000";
layers = (
{
hints = (
{
horizontal = 1;
place = "{-144, 34}";
type = Stem;
},
{
horizontal = 1;
place = "{283, 36}";
type = Stem;
},
{
horizontal = 1;
place = "{525, 36}";
type = Stem;
},
{
place = "{106, 40}";
type = Stem;
},
{
place = "{909, 39}";
type = Stem;
},
{
horizontal = 1;
place = "{512, 35}";
type = Stem;
},
{
place = "{85, 39}";
type = Stem;
}
);
layerId = "466AD7DC-B026-4005-940F-6404FDF7EB07";
paths = (
{
closed = 1;
nodes = (
"570 -109 OFFCURVE",
"749 -22 OFFCURVE",
"864 107 CURVE SMOOTH",
"880 125 OFFCURVE",
"858 148 OFFCURVE",
"840 130 CURVE SMOOTH",
"722 7 OFFCURVE",
"558 -73 OFFCURVE",
"435 -86 CURVE SMOOTH",
"53 -125 OFFCURVE",
"93 158 OFFCURVE",
"307 359 CURVE SMOOTH",
"419 464 OFFCURVE",
"581 545 OFFCURVE",
"759 545 CURVE SMOOTH",
"940 545 OFFCURVE",
"973 419 OFFCURVE",
"771 368 CURVE SMOOTH",
"682 343 OFFCURVE",
"470 322 OFFCURVE",
"307 359 CURVE SMOOTH",
"77 413 OFFCURVE",
"73 572 OFFCURVE",
"242 523 CURVE SMOOTH",
"267 515 OFFCURVE",
"279 548 OFFCURVE",
"254 556 CURVE SMOOTH",
"81 607 OFFCURVE",
"40 477 OFFCURVE",
"133 400 CURVE SMOOTH",
"274 281 OFFCURVE",
"612 289 OFFCURVE",
"783 333 CURVE SMOOTH",
"1005 391 OFFCURVE",
"1008 581 OFFCURVE",
"759 581 CURVE SMOOTH",
"548 581 OFFCURVE",
"359 474 OFFCURVE",
"238 342 CURVE SMOOTH",
"29 110 OFFCURVE",
"50 -156 OFFCURVE",
"437 -121 CURVE SMOOTH"
);
}
);
width = 795;
}
);
note = C;
unicode = 0043;
},
{
glyphname = D;
lastChange = "2021-09-02 07:14:54 +0000";
layers = (
{
hints = (
{
horizontal = 1;
place = "{-77, 36}";
type = Stem;
},
{
horizontal = 1;
place = "{206, 36}";
type = Stem;
},
{
horizontal = 1;
place = "{569, 36}";
type = Stem;
},
{
place = "{113, 36}";
type = Stem;
},
{
place = "{203, 37}";
type = Stem;
},
{
place = "{1000, 36}";
type = Stem;
},
{
horizontal = 1;
place = "{-73, 36}";
type = Stem;
},
{
horizontal = 1;
place = "{68, 38}";
type = Stem;
},
{
horizontal = 1;
place = "{591, 36}";
type = Stem;
}
);
layerId = "466AD7DC-B026-4005-940F-6404FDF7EB07";
paths = (
{
closed = 1;
nodes = (
"285 -56 OFFCURVE",
"369 -27 OFFCURVE",
"419 12 CURVE SMOOTH",
"503 77 OFFCURVE",
"659 310 OFFCURVE",
"725 404 CURVE SMOOTH",
"807 523 OFFCURVE",
"906 611 OFFCURVE",
"960 611 CURVE SMOOTH",
"983 611 OFFCURVE",
"983 647 OFFCURVE",
"960 647 CURVE SMOOTH",
"784 647 OFFCURVE",
"547 157 OFFCURVE",
"396 40 CURVE SMOOTH",
"352 5 OFFCURVE",
"278 -19 OFFCURVE",
"221 -17 CURVE SMOOTH",
"105 -11 OFFCURVE",
"144 108 OFFCURVE",
"236 88 CURVE SMOOTH",
"246 86 OFFCURVE",
"261 80 OFFCURVE",
"281 71 CURVE SMOOTH",
"364 35 OFFCURVE",
"443 -6 OFFCURVE",
"529 -33 CURVE SMOOTH",
"758 -102 OFFCURVE",
"938 -15 OFFCURVE",
"1004 131 CURVE SMOOTH",
"1096 331 OFFCURVE",
"989 625 OFFCURVE",
"678 625 CURVE SMOOTH",
"388 625 OFFCURVE",
"247 493 OFFCURVE",
"213 385 CURVE SMOOTH",
"147 180 OFFCURVE",
"429 151 OFFCURVE",
"588 429 CURVE SMOOTH",
"601 450 OFFCURVE",
"569 468 OFFCURVE",
"557 447 CURVE SMOOTH",
"485 320 OFFCURVE",
"389 265 OFFCURVE",
"323 262 CURVE SMOOTH",
"261 258 OFFCURVE",
"222 295 OFFCURVE",
"247 374 CURVE SMOOTH",
"276 463 OFFCURVE",
"398 589 OFFCURVE",
"678 589 CURVE SMOOTH",
"958 589 OFFCURVE",
"1055 327 OFFCURVE",
"972 147 CURVE SMOOTH",
"914 19 OFFCURVE",
"754 -63 OFFCURVE",
"540 1 CURVE SMOOTH",
"480 19 OFFCURVE",
"419 47 OFFCURVE",
"367 72 CURVE SMOOTH",
"329 89 OFFCURVE",
"285 114 OFFCURVE",
"243 123 CURVE SMOOTH",
"100 154 OFFCURVE",
"51 -44 OFFCURVE",
"219 -53 CURVE SMOOTH"
);
}
);
width = 1045;
}
);
note = D;
unicode = 0044;
},
{
glyphname = E;
lastChange = "2021-09-02 07:40:20 +0000";
layers = (
{
hints = (
{
horizontal = 1;
place = "{-130, 34}";
type = Stem;
},
{
horizontal = 1;
place = "{264, 8}";
type = Stem;
},
{
horizontal = 1;
place = "{338, 33}";
type = Stem;
},
{
horizontal = 1;
place = "{555, 38}";
type = Stem;
},
{
place = "{79, 40}";
type = Stem;
},
{
place = "{291, 39}";
type = Stem;
},
{
place = "{783, 39}";
type = Stem;
},
{
place = "{133, 38}";
type = Stem;
},
{
horizontal = 1;
place = "{525, 35}";
type = Stem;
}
);
layerId = "466AD7DC-B026-4005-940F-6404FDF7EB07";
paths = (
{
closed = 1;
nodes = (
"523 -107 OFFCURVE",
"646 -50 OFFCURVE",
"717 10 CURVE SMOOTH",
"748 36 OFFCURVE",
"796 91 OFFCURVE",
"786 137 CURVE SMOOTH",
"775 182 OFFCURVE",
"719 166 OFFCURVE",
"750 133 CURVE SMOOTH",
"768 113 OFFCURVE",
"703 45 OFFCURVE",
"692 35 CURVE SMOOTH",
"628 -17 OFFCURVE",
"516 -73 OFFCURVE",
"333 -76 CURVE SMOOTH",
"-15 -81 OFFCURVE",
"81 285 OFFCURVE",
"480 255 CURVE",
"508 258 OFFCURVE",
"515 292 OFFCURVE",
"485 292 CURVE SMOOTH",
"158 292 OFFCURVE",
"404 570 OFFCURVE",
"697 545 CURVE SMOOTH",
"806 537 OFFCURVE",
"824 456 OFFCURVE",
"680 411 CURVE SMOOTH",
"597 384 OFFCURVE",
"461 383 OFFCURVE",
"351 414 CURVE SMOOTH",
"134 476 OFFCURVE",
"125 611 OFFCURVE",
"261 566 CURVE SMOOTH",
"284 559 OFFCURVE",
"291 591 OFFCURVE",
"268 599 CURVE SMOOTH",
"117 652 OFFCURVE",
"105 539 OFFCURVE",
"172 468 CURVE SMOOTH",
"283 354 OFFCURVE",
"561 337 OFFCURVE",
"697 379 CURVE SMOOTH",
"849 427 OFFCURVE",
"878 564 OFFCURVE",
"701 580 CURVE SMOOTH",
"565 591 OFFCURVE",
"442 544 OFFCURVE",
"367 485 CURVE SMOOTH",
"308 436 OFFCURVE",
"245 337 OFFCURVE",
"338 284 CURVE",
"20 233 OFFCURVE",
"-32 -115 OFFCURVE",
"333 -110 CURVE SMOOTH"
);
}
);
width = 804;
}
);
note = E;
unicode = 0045;
},
{
glyphname = F;
lastChange = "2021-09-02 07:14:54 +0000";
layers = (
{
hints = (
{
horizontal = 1;
place = "{-146, 36}";
type = Stem;
},
{
horizontal = 1;
place = "{188, 36}";
type = Stem;
},
{
horizontal = 1;
place = "{382, 35}";
type = Stem;
},
{
horizontal = 1;
place = "{495, 37}";
type = Stem;
},
{
place = "{88, 36}";
type = Stem;
},
{
place = "{312, 34}";
type = Stem;
},
{
place = "{617, 35}";
type = Stem;
},
{
place = "{1201, 36}";
type = Stem;
},
{
horizontal = 1;
place = "{157, 13}";
type = Stem;
}
);
layerId = "466AD7DC-B026-4005-940F-6404FDF7EB07";
paths = (
{
closed = 1;
nodes = (
"560 -126 OFFCURVE",
"696 35 OFFCURVE",
"796 207 CURVE SMOOTH",
"848 298 OFFCURVE",
"889 384 OFFCURVE",
"938 458 CURVE SMOOTH",
"974 512 OFFCURVE",
"1011 522 OFFCURVE",
"1029 511 CURVE SMOOTH",
"1049 498 OFFCURVE",
"1068 529 OFFCURVE",
"1048 542 CURVE SMOOTH",
"1002 570 OFFCURVE",
"944 533 OFFCURVE",
"908 478 CURVE SMOOTH",
"767 267 OFFCURVE",
"660 -90 OFFCURVE",
"346 -90 CURVE SMOOTH",
"33 -90 OFFCURVE",
"94 239 OFFCURVE",
"262 254 CURVE SMOOTH",
"286 256 OFFCURVE",
"282 292 OFFCURVE",
"258 290 CURVE SMOOTH",
"45 270 OFFCURVE",
"-13 -126 OFFCURVE",
"346 -126 CURVE SMOOTH"
);
},
{
closed = 1;
nodes = (
"524 246 OFFCURVE",
"785 129 OFFCURVE",
"890 158 CURVE SMOOTH",
"913 165 OFFCURVE",
"910 189 OFFCURVE",
"886 186 CURVE SMOOTH",
"864 182 OFFCURVE",
"819 185 OFFCURVE",
"774 190 CURVE SMOOTH",
"671 204 OFFCURVE",
"489 256 OFFCURVE",
"441 120 CURVE SMOOTH",
"434 97 OFFCURVE",
"467 86 OFFCURVE",
"476 109 CURVE SMOOTH"
);
},
{
closed = 1;
nodes = (
"556 210 OFFCURVE",
"635 316 OFFCURVE",
"652 395 CURVE SMOOTH",
"657 419 OFFCURVE",
"621 426 OFFCURVE",
"617 403 CURVE SMOOTH",
"601 332 OFFCURVE",
"533 245 OFFCURVE",
"448 244 CURVE SMOOTH",
"271 238 OFFCURVE",
"334 519 OFFCURVE",
"560 539 CURVE SMOOTH",
"660 548 OFFCURVE",
"756 517 OFFCURVE",
"848 481 CURVE SMOOTH",
"929 452 OFFCURVE",
"1172 338 OFFCURVE",
"1231 450 CURVE SMOOTH",
"1257 500 OFFCURVE",
"1188 508 OFFCURVE",
"1201 472 CURVE",
"1196 445 OFFCURVE",
"1140 436 OFFCURVE",
"1122 437 CURVE SMOOTH",
"937 450 OFFCURVE",
"782 595 OFFCURVE",
"557 575 CURVE SMOOTH",
"283 551 OFFCURVE",
"226 201 OFFCURVE",
"449 208 CURVE SMOOTH"
);
}
);
width = 924;
}
);
note = F;
unicode = 0046;
},
{
glyphname = G;
lastChange = "2021-09-02 07:14:54 +0000";
layers = (
{
hints = (
{
horizontal = 1;
place = "{-318, 36}";
type = Stem;
},
{
horizontal = 1;
place = "{-107, 34}";
type = Stem;
},
{
horizontal = 1;
place = "{-40, 33}";
type = Stem;
},
{
horizontal = 1;
place = "{223, -20}";
target = down;
type = TopGhost;
},
{
horizontal = 1;
place = "{274, 35}";
type = Stem;
},
{
horizontal = 1;
place = "{485, 34}";
type = Stem;
},
{
place = "{16, 35}";
type = Stem;
},
{
place = "{115, 39}";
type = Stem;
},
{
place = "{744, 36}";
type = Stem;
},
{
horizontal = 1;
place = "{498, 35}";
type = Stem;
},
{
place = "{70, 35}";
type = Stem;
}
);
layerId = "466AD7DC-B026-4005-940F-6404FDF7EB07";
paths = (
{
closed = 1;
nodes = (
"235 -298 OFFCURVE",
"369 -247 OFFCURVE",
"473 -151 CURVE SMOOTH",
"491 -134 OFFCURVE",
"508 -113 OFFCURVE",
"524 -91 CURVE",
"578 -99 OFFCURVE",
"638 -113 OFFCURVE",
"650 -133 CURVE",
"658 -153 OFFCURVE",
"684 -132 OFFCURVE",
"674 -112 CURVE SMOOTH",
"659 -81 OFFCURVE",
"602 -66 OFFCURVE",
"547 -58 CURVE",
"599 28 OFFCURVE",
"635 136 OFFCURVE",
"647 222 CURVE",
"647 243 OFFCURVE",
"621 251 OFFCURVE",
"613 232 CURVE SMOOTH",
"591 185 OFFCURVE",
"505 87 OFFCURVE",
"454 61 CURVE SMOOTH",
"408 39 OFFCURVE",
"340 13 OFFCURVE",
"281 13 CURVE SMOOTH",
"221 13 OFFCURVE",
"169 41 OFFCURVE",
"154 116 CURVE",
"148 160 OFFCURVE",
"174 235 OFFCURVE",
"208 293 CURVE SMOOTH",
"215 304 OFFCURVE",
"222 313 OFFCURVE",
"231 323 CURVE",
"294 304 OFFCURVE",
"367 294 OFFCURVE",
"437 294 CURVE SMOOTH",
"518 294 OFFCURVE",
"596 306 OFFCURVE",
"650 323 CURVE SMOOTH",
"728 350 OFFCURVE",
"780 409 OFFCURVE",
"780 460 CURVE SMOOTH",
"780 510 OFFCURVE",
"733 553 OFFCURVE",
"628 553 CURVE SMOOTH",
"459 553 OFFCURVE",
"310 464 OFFCURVE",
"217 364 CURVE",
"141 392 OFFCURVE",
"105 436 OFFCURVE",
"105 467 CURVE SMOOTH",
"105 489 OFFCURVE",
"122 505 OFFCURVE",
"155 505 CURVE SMOOTH",
"166 505 OFFCURVE",
"183 503 OFFCURVE",
"199 497 CURVE SMOOTH",
"222 487 OFFCURVE",
"234 521 OFFCURVE",
"214 529 CURVE SMOOTH",
"199 535 OFFCURVE",
"171 539 OFFCURVE",
"153 539 CURVE SMOOTH",
"98 539 OFFCURVE",
"70 507 OFFCURVE",
"70 467 CURVE SMOOTH",
"70 441 OFFCURVE",
"87 409 OFFCURVE",
"111 384 CURVE",
"133 365 OFFCURVE",
"161 349 OFFCURVE",
"194 336 CURVE",
"154 283 OFFCURVE",
"115 209 OFFCURVE",
"115 140 CURVE SMOOTH",
"115 131 OFFCURVE",
"116 119 OFFCURVE",
"118 111 CURVE SMOOTH",
"136 15 OFFCURVE",
"203 -20 OFFCURVE",
"279 -20 CURVE SMOOTH",
"346 -20 OFFCURVE",
"419 4 OFFCURVE",
"471 30 CURVE SMOOTH",
"507 49 OFFCURVE",
"557 97 OFFCURVE",
"594 140 CURVE",
"575 71 OFFCURVE",
"542 2 OFFCURVE",
"506 -54 CURVE",
"483 -53 OFFCURVE",
"462 -53 OFFCURVE",
"446 -53 CURVE SMOOTH",
"358 -53 OFFCURVE",
"16 -75 OFFCURVE",
"16 -217 CURVE SMOOTH",
"16 -263 OFFCURVE",
"60 -298 OFFCURVE",
"126 -298 CURVE SMOOTH"
);
},
{
closed = 1;
nodes = (
"71 -262 OFFCURVE",
"51 -236 OFFCURVE",
"51 -217 CURVE SMOOTH",
"51 -195 OFFCURVE",
"72 -163 OFFCURVE",
"131 -140 CURVE SMOOTH",
"230 -99 OFFCURVE",
"340 -87 OFFCURVE",
"446 -87 CURVE SMOOTH",
"455 -87 OFFCURVE",
"468 -87 OFFCURVE",
"483 -89 CURVE",
"401 -184 OFFCURVE",
"250 -262 OFFCURVE",
"126 -262 CURVE SMOOTH"
);
},
{
closed = 1;
nodes = (
"378 329 OFFCURVE",
"311 335 OFFCURVE",
"255 351 CURVE",
"350 452 OFFCURVE",
"489 518 OFFCURVE",
"628 518 CURVE SMOOTH",
"702 518 OFFCURVE",
"744 486 OFFCURVE",
"744 449 CURVE SMOOTH",
"744 417 OFFCURVE",
"711 380 OFFCURVE",
"637 355 CURVE SMOOTH",
"586 338 OFFCURVE",
"516 329 OFFCURVE",
"442 329 CURVE SMOOTH"
);
}
);
width = 699;
}
);
note = G;
unicode = 0047;
},
{
glyphname = H;
lastChange = "2021-09-02 07:14:54 +0000";
layers = (
{
hints = (
{
horizontal = 1;
place = "{-179, 36}";
type = Stem;
},
{
horizontal = 1;
place = "{-102, 35}";
type = Stem;
},
{
horizontal = 1;
place = "{103, 36}";
type = Stem;
},
{
horizontal = 1;
place = "{182, 34}";
type = Stem;
},
{
horizontal = 1;
place = "{534, 33}";
type = Stem;
},
{
place = "{62, 36}";
type = Stem;
},
{
place = "{272, 36}";
type = Stem;
},
{
place = "{564, 37}";
type = Stem;
},
{
place = "{946, 30}";
type = Stem;
},
{
horizontal = 1;
place = "{182, 13}";
type = Stem;
}
);
layerId = "466AD7DC-B026-4005-940F-6404FDF7EB07";
paths = (
{
closed = 1;
nodes = (
"534 -159 OFFCURVE",
"677 -5 OFFCURVE",
"753 183 CURVE SMOOTH",
"770 224 OFFCURVE",
"880 528 OFFCURVE",
"946 511 CURVE",
"945 512 OFFCURVE",
"944 514 OFFCURVE",
"942 514 CURVE",
"946 520 OFFCURVE",
"944 525 OFFCURVE",
"941 528 CURVE",
"933 524 OFFCURVE",
"918 520 OFFCURVE",
"902 517 CURVE SMOOTH",
"794 504 OFFCURVE",
"686 518 OFFCURVE",
"579 493 CURVE SMOOTH",
"231 415 OFFCURVE",
"197 123 OFFCURVE",
"384 123 CURVE SMOOTH",
"445 123 OFFCURVE",
"510 160 OFFCURVE",
"552 205 CURVE SMOOTH",
"579 237 OFFCURVE",
"627 320 OFFCURVE",
"583 357 CURVE SMOOTH",
"565 374 OFFCURVE",
"539 351 OFFCURVE",
"558 335 CURVE SMOOTH",
"562 332 OFFCURVE",
"568 316 OFFCURVE",
"561 293 CURVE SMOOTH",
"540 224 OFFCURVE",
"457 159 OFFCURVE",
"384 159 CURVE SMOOTH",
"328 159 OFFCURVE",
"291 195 OFFCURVE",
"316 272 CURVE SMOOTH",
"337 338 OFFCURVE",
"422 421 OFFCURVE",
"587 458 CURVE SMOOTH",
"693 482 OFFCURVE",
"800 468 OFFCURVE",
"906 482 CURVE SMOOTH",
"1004 494 OFFCURVE",
"983 553 OFFCURVE",
"939 547 CURVE SMOOTH",
"907 543 OFFCURVE",
"874 516 OFFCURVE",
"848 478 CURVE SMOOTH",
"803 408 OFFCURVE",
"751 272 OFFCURVE",
"720 196 CURVE SMOOTH",
"647 15 OFFCURVE",
"514 -123 OFFCURVE",
"320 -123 CURVE SMOOTH",
"7 -123 OFFCURVE",
"68 205 OFFCURVE",
"236 221 CURVE SMOOTH",
"260 223 OFFCURVE",
"256 259 OFFCURVE",
"232 257 CURVE SMOOTH",
"20 237 OFFCURVE",
"-38 -159 OFFCURVE",
"320 -159 CURVE SMOOTH"
);
},
{
closed = 1;
nodes = (
"661 271 OFFCURVE",
"922 153 OFFCURVE",
"1027 183 CURVE SMOOTH",
"1049 189 OFFCURVE",
"1047 214 OFFCURVE",
"1023 210 CURVE SMOOTH",
"1001 206 OFFCURVE",
"955 209 OFFCURVE",
"911 215 CURVE SMOOTH",
"808 228 OFFCURVE",
"626 281 OFFCURVE",
"578 145 CURVE SMOOTH",
"571 122 OFFCURVE",
"604 110 OFFCURVE",
"612 133 CURVE SMOOTH"
);
},
{
closed = 1;
nodes = (
"933 -63 OFFCURVE",
"1013 245 OFFCURVE",
"1127 429 CURVE SMOOTH",
"1176 505 OFFCURVE",
"1229 552 OFFCURVE",
"1254 554 CURVE SMOOTH",
"1277 555 OFFCURVE",
"1275 588 OFFCURVE",
"1252 587 CURVE SMOOTH",
"1204 585 OFFCURVE",
"1142 518 OFFCURVE",
"1098 447 CURVE SMOOTH",
"994 281 OFFCURVE",
"943 84 OFFCURVE",
"957 -7 CURVE SMOOTH",
"975 -118 OFFCURVE",
"1098 -92 OFFCURVE",
"1147 -18 CURVE SMOOTH",
"1160 0 OFFCURVE",
"1137 17 OFFCURVE",
"1124 0 CURVE SMOOTH",
"1109 -20 OFFCURVE",
"1077 -43 OFFCURVE",
"1049 -47 CURVE SMOOTH"
);
}
);
width = 1116;
}
);
note = H;
unicode = 0048;
},
{
glyphname = I;
lastChange = "2021-09-02 07:14:54 +0000";
layers = (
{
hints = (
{
horizontal = 1;
place = "{-155, 36}";
type = Stem;
},
{
horizontal = 1;
place = "{194, 35}";
type = Stem;
},
{
place = "{102, 36}";
type = Stem;
},
{
place = "{625, 34}";
type = Stem;
},
{
place = "{925, 29}";
type = Stem;
},
{
horizontal = 1;
place = "{133, 35}";
type = Stem;
},
{
horizontal = 1;
place = "{507, 66}";
type = Stem;
},
{
place = "{388, 36}";
type = Stem;
}
);
layerId = "466AD7DC-B026-4005-940F-6404FDF7EB07";
paths = (
{
closed = 1;
nodes = (
"586 -135 OFFCURVE",
"699 167 OFFCURVE",
"798 391 CURVE SMOOTH",
"838 479 OFFCURVE",
"888 566 OFFCURVE",
"925 558 CURVE",
"924 559 OFFCURVE",
"923 560 OFFCURVE",
"921 561 CURVE",
"924 566 OFFCURVE",
"922 571 OFFCURVE",
"919 575 CURVE",
"911 569 OFFCURVE",
"896 565 OFFCURVE",
"880 564 CURVE",
"788 551 OFFCURVE",
"695 546 OFFCURVE",
"608 510 CURVE SMOOTH",
"469 450 OFFCURVE",
"398 357 OFFCURVE",
"388 280 CURVE SMOOTH",
"362 71 OFFCURVE",
"641 143 OFFCURVE",
"659 327 CURVE SMOOTH",
"663 364 OFFCURVE",
"650 378 OFFCURVE",
"642 390 CURVE",
"629 405 OFFCURVE",
"601 394 OFFCURVE",
"616 368 CURVE SMOOTH",
"645 319 OFFCURVE",
"598 257 OFFCURVE",
"573 233 CURVE SMOOTH",
"510 171 OFFCURVE",
"410 163 OFFCURVE",
"424 276 CURVE SMOOTH",
"431 336 OFFCURVE",
"490 421 OFFCURVE",
"622 477 CURVE SMOOTH",
"705 512 OFFCURVE",
"797 516 OFFCURVE",
"885 527 CURVE SMOOTH",
"982 540 OFFCURVE",
"961 599 OFFCURVE",
"918 593 CURVE SMOOTH",
"884 589 OFFCURVE",
"851 561 OFFCURVE",
"825 521 CURVE SMOOTH",
"807 491 OFFCURVE",
"788 454 OFFCURVE",
"770 413 CURVE SMOOTH",
"678 206 OFFCURVE",
"564 -99 OFFCURVE",
"330 -99 CURVE SMOOTH",
"192 -99 OFFCURVE",
"141 -14 OFFCURVE",
"138 69 CURVE SMOOTH",
"136 127 OFFCURVE",
"164 172 OFFCURVE",
"194 197 CURVE SMOOTH",
"226 221 OFFCURVE",
"266 221 OFFCURVE",
"281 190 CURVE SMOOTH",
"290 169 OFFCURVE",
"313 188 OFFCURVE",
"303 209 CURVE SMOOTH",
"278 260 OFFCURVE",
"221 257 OFFCURVE",
"180 229 CURVE SMOOTH",
"130 195 OFFCURVE",
"101 134 OFFCURVE",
"102 71 CURVE SMOOTH",
"103 -29 OFFCURVE",
"178 -135 OFFCURVE",
"330 -135 CURVE SMOOTH"
);
}
);
width = 805;
}
);
note = I;
unicode = 0049;
},
{
glyphname = J;
lastChange = "2021-09-02 07:14:54 +0000";
layers = (
{
hints = (
{
horizontal = 1;
place = "{-238, 36}";
type = Stem;
},
{
horizontal = 1;
place = "{82, 34}";
type = Stem;
},
{
horizontal = 1;
place = "{160, 35}";
type = Stem;
},
{
horizontal = 1;
place = "{351, 32}";
type = Stem;
},
{
horizontal = 1;
place = "{527, 35}";
type = Stem;
},
{
place = "{-4, 36}";
type = Stem;
},
{
place = "{356, 36}";
type = Stem;
},
{
place = "{572, 36}";
type = Stem;
},
{
place = "{858, 29}";
type = Stem;
}
);
layerId = "466AD7DC-B026-4005-940F-6404FDF7EB07";
paths = (
{
closed = 1;
nodes = (
"391 -218 OFFCURVE",
"523 -67 OFFCURVE",
"611 99 CURVE SMOOTH",
"656 185 OFFCURVE",
"682 274 OFFCURVE",
"729 378 CURVE SMOOTH",
"754 435 OFFCURVE",
"786 495 OFFCURVE",
"813 526 CURVE SMOOTH",
"828 544 OFFCURVE",
"845 550 OFFCURVE",
"858 547 CURVE",
"857 548 OFFCURVE",
"856 549 OFFCURVE",
"854 550 CURVE",
"857 555 OFFCURVE",
"855 560 OFFCURVE",
"852 564 CURVE",
"844 558 OFFCURVE",
"829 555 OFFCURVE",
"813 553 CURVE SMOOTH",
"728 541 OFFCURVE",
"640 544 OFFCURVE",
"560 510 CURVE SMOOTH",
"430 456 OFFCURVE",
"365 369 OFFCURVE",
"356 298 CURVE SMOOTH",
"332 104 OFFCURVE",
"591 171 OFFCURVE",
"608 341 CURVE SMOOTH",
"618 441 OFFCURVE",
"526 396 OFFCURVE",
"567 371 CURVE SMOOTH",
"569 370 OFFCURVE",
"574 364 OFFCURVE",
"572 344 CURVE SMOOTH",
"560 225 OFFCURVE",
"374 150 OFFCURVE",
"392 293 CURVE SMOOTH",
"398 347 OFFCURVE",
"452 425 OFFCURVE",
"574 477 CURVE SMOOTH",
"651 510 OFFCURVE",
"735 506 OFFCURVE",
"818 517 CURVE SMOOTH",
"915 529 OFFCURVE",
"894 588 OFFCURVE",
"851 582 CURVE SMOOTH",
"817 578 OFFCURVE",
"784 551 OFFCURVE",
"763 517 CURVE SMOOTH",
"684 393 OFFCURVE",
"649 247 OFFCURVE",
"577 112 CURVE SMOOTH",
"496 -42 OFFCURVE",
"373 -182 OFFCURVE",
"183 -182 CURVE SMOOTH",
"89 -182 OFFCURVE",
"32 -136 OFFCURVE",
"32 -78 CURVE SMOOTH",
"32 -18 OFFCURVE",
"84 24 OFFCURVE",
"157 54 CURVE SMOOTH",
"279 103 OFFCURVE",
"437 111 OFFCURVE",
"566 94 CURVE SMOOTH",
"619 86 OFFCURVE",
"655 74 OFFCURVE",
"660 71 CURVE SMOOTH",
"684 53 OFFCURVE",
"699 69 OFFCURVE",
"687 90 CURVE SMOOTH",
"658 140 OFFCURVE",
"408 138 OFFCURVE",
"368 136 CURVE SMOOTH",
"251 128 OFFCURVE",
"-4 81 OFFCURVE",
"-4 -78 CURVE SMOOTH",
"-4 -167 OFFCURVE",
"82 -218 OFFCURVE",
"183 -218 CURVE SMOOTH"
);
}
);
width = 741;
}
);
note = J;
unicode = 004A;
},
{
glyphname = K;
lastChange = "2021-09-02 07:14:54 +0000";
layers = (
{
hints = (
{
horizontal = 1;
place = "{-133, 34}";
type = Stem;
},
{
horizontal = 1;
place = "{183, 36}";
type = Stem;
},
{
place = "{85, 38}";
type = Stem;
},
{
place = "{422, 38}";
type = Stem;
},
{
place = "{644, 37}";
type = Stem;
},
{
place = "{780, 38}";
type = Stem;
},
{
horizontal = 1;
place = "{-148, 36}";
type = Stem;
},
{
horizontal = 1;
place = "{136, 35}";
type = Stem;
},
{
horizontal = 1;
place = "{484, 37}";
type = Stem;
}
);
layerId = "466AD7DC-B026-4005-940F-6404FDF7EB07";
paths = (
{
closed = 1;
nodes = (
"518 -128 OFFCURVE",
"679 53 OFFCURVE",
"751 228 CURVE",
"756 243 LINE SMOOTH",
"777 297 OFFCURVE",
"835 447 OFFCURVE",
"888 510 CURVE",
"894 511 LINE SMOOTH",
"943 517 OFFCURVE",
"962 535 OFFCURVE",
"962 552 CURVE SMOOTH",
"962 565 OFFCURVE",
"946 577 OFFCURVE",
"926 575 CURVE SMOOTH",
"906 572 OFFCURVE",
"885 559 OFFCURVE",
"867 543 CURVE",
"845 540 LINE SMOOTH",
"774 533 OFFCURVE",
"698 523 OFFCURVE",
"631 496 CURVE SMOOTH",
"498 439 OFFCURVE",
"431 352 OFFCURVE",
"422 277 CURVE SMOOTH",
"412 192 OFFCURVE",
"454 156 OFFCURVE",
"508 156 CURVE SMOOTH",
"580 156 OFFCURVE",
"672 220 OFFCURVE",
"681 322 CURVE SMOOTH",
"686 370 OFFCURVE",
"667 385 OFFCURVE",
"651 385 CURVE SMOOTH",
"633 385 OFFCURVE",
"621 367 OFFCURVE",
"640 354 CURVE",
"642 352 OFFCURVE",
"646 343 OFFCURVE",
"644 325 CURVE SMOOTH",
"637 249 OFFCURVE",
"563 191 OFFCURVE",
"510 191 CURVE SMOOTH",
"478 191 OFFCURVE",
"452 215 OFFCURVE",
"460 273 CURVE SMOOTH",
"467 330 OFFCURVE",
"521 410 OFFCURVE",
"646 462 CURVE SMOOTH",
"706 487 OFFCURVE",
"770 496 OFFCURVE",
"834 504 CURVE",
"797 444 OFFCURVE",
"755 339 OFFCURVE",
"727 268 CURVE SMOOTH",
"717 241 LINE SMOOTH",
"645 71 OFFCURVE",
"495 -92 OFFCURVE",
"332 -92 CURVE SMOOTH",
"182 -92 OFFCURVE",
"126 -13 OFFCURVE",
"123 65 CURVE SMOOTH",
"121 148 OFFCURVE",
"186 203 OFFCURVE",
"232 203 CURVE SMOOTH",
"247 203 OFFCURVE",
"262 197 OFFCURVE",
"269 182 CURVE SMOOTH",
"280 163 OFFCURVE",
"317 174 OFFCURVE",
"302 199 CURVE SMOOTH",
"287 229 OFFCURVE",
"261 239 OFFCURVE",
"233 239 CURVE SMOOTH",
"213 239 OFFCURVE",
"188 231 OFFCURVE",
"169 220 CURVE SMOOTH",
"115 188 OFFCURVE",
"85 130 OFFCURVE",
"85 71 CURVE SMOOTH",
"85 -25 OFFCURVE",
"163 -128 OFFCURVE",
"332 -128 CURVE SMOOTH"
);
},
{
closed = 1;
nodes = (
"1108 -113 OFFCURVE",
"1162 -65 OFFCURVE",
"1187 -14 CURVE SMOOTH",
"1197 7 OFFCURVE",
"1167 21 OFFCURVE",
"1157 1 CURVE SMOOTH",
"1137 -38 OFFCURVE",
"1090 -79 OFFCURVE",
"1006 -79 CURVE SMOOTH",
"886 -79 OFFCURVE",
"824 164 OFFCURVE",
"818 254 CURVE",
"1019 317 OFFCURVE",
"1252 579 OFFCURVE",
"1318 679 CURVE SMOOTH",
"1330 698 OFFCURVE",
"1303 721 OFFCURVE",
"1290 702 CURVE SMOOTH",
"1221 598 OFFCURVE",
"982 337 OFFCURVE",
"794 287 CURVE",
"789 285 OFFCURVE",
"780 275 OFFCURVE",
"780 269 CURVE SMOOTH",
"780 259 OFFCURVE",
"781 248 OFFCURVE",
"782 234 CURVE SMOOTH",
"792 116 OFFCURVE",
"872 -113 OFFCURVE",
"1003 -113 CURVE SMOOTH"
);
}
);
width = 940;
}
);
note = K;
unicode = 004B;
},
{
glyphname = L;
lastChange = "2021-09-02 07:14:54 +0000";
layers = (
{
hints = (
{
horizontal = 1;
place = "{-112, 35}";
type = Stem;
},
{
horizontal = 1;
place = "{56, 34}";
type = Stem;
},
{
horizontal = 1;
place = "{190, 35}";
type = Stem;
},
{
horizontal = 1;
place = "{563, 34}";
type = Stem;
},
{
place = "{51, 37}";
type = Stem;
},
{
place = "{183, 38}";
type = Stem;
},
{
place = "{889, 38}";
type = Stem;
},
{
horizontal = 1;
place = "{-160, 37}";
type = Stem;
}
);
layerId = "466AD7DC-B026-4005-940F-6404FDF7EB07";
paths = (
{
closed = 1;
nodes = (
"968 -132 OFFCURVE",
"959 -98 OFFCURVE",
"936 -103 CURVE SMOOTH",
"852 -121 OFFCURVE",
"671 -42 OFFCURVE",
"594 -11 CURVE SMOOTH",
"469 40 OFFCURVE",
"360 110 OFFCURVE",
"217 110 CURVE SMOOTH",
"6 110 OFFCURVE",
"-8 -92 OFFCURVE",
"196 -92 CURVE SMOOTH",
"364 -92 OFFCURVE",
"468 42 OFFCURVE",
"535 165 CURVE SMOOTH",
"593 275 OFFCURVE",
"647 440 OFFCURVE",
"729 527 CURVE SMOOTH",
"854 659 OFFCURVE",
"958 531 OFFCURVE",
"833 403 CURVE SMOOTH",
"694 262 OFFCURVE",
"512 219 OFFCURVE",
"315 260 CURVE SMOOTH",
"197 283 OFFCURVE",
"165 421 OFFCURVE",
"365 457 CURVE SMOOTH",
"389 461 OFFCURVE",
"382 495 OFFCURVE",
"357 491 CURVE SMOOTH",
"137 451 OFFCURVE",
"131 261 OFFCURVE",
"307 225 CURVE SMOOTH",
"515 183 OFFCURVE",
"711 228 OFFCURVE",
"860 380 CURVE SMOOTH",
"1022 544 OFFCURVE",
"858 716 OFFCURVE",
"702 551 CURVE SMOOTH",
"549 390 OFFCURVE",
"495 -57 OFFCURVE",
"196 -57 CURVE SMOOTH",
"40 -57 OFFCURVE",
"58 76 OFFCURVE",
"217 76 CURVE SMOOTH",
"279 76 OFFCURVE",
"341 59 OFFCURVE",
"400 36 CURVE SMOOTH",
"528 -13 OFFCURVE",
"811 -165 OFFCURVE",
"944 -137 CURVE SMOOTH"
);
}
);
width = 726;
}
);
note = L;
unicode = 004C;
},
{
glyphname = M;
lastChange = "2021-09-02 07:14:54 +0000";
layers = (
{
hints = (
{
horizontal = 1;
place = "{-227, 34}";
type = Stem;
},
{
horizontal = 1;
place = "{0, 21}";
target = up;
type = BottomGhost;
},
{
horizontal = 1;
place = "{79, 33}";
type = Stem;
},
{
horizontal = 1;
place = "{503, 38}";
type = Stem;
},
{
horizontal = 1;
place = "{604, 34}";
type = Stem;
},
{
place = "{53, 38}";
type = Stem;
},
{
place = "{365, 35}";
type = Stem;
},
{
place = "{576, 35}";
type = Stem;
},
{
place = "{815, 34}";
type = Stem;
},
{
place = "{891, 39}";
type = Stem;
},
{
place = "{1162, 40}";
type = Stem;
}
);
layerId = "466AD7DC-B026-4005-940F-6404FDF7EB07";
paths = (
{
closed = 1;
nodes = (
"805 -173 OFFCURVE",
"1139 370 OFFCURVE",
"1178 444 CURVE SMOOTH",
"1217 516 OFFCURVE",
"1210 567 OFFCURVE",
"1148 561 CURVE SMOOTH",
"1022 549 OFFCURVE",
"853 347 OFFCURVE",
"779 254 CURVE",
"806 316 OFFCURVE",
"907 542 OFFCURVE",
"802 558 CURVE SMOOTH",
"707 570 OFFCURVE",
"603 402 OFFCURVE",
"555 332 CURVE",
"654 544 OFFCURVE",
"613 653 OFFCURVE",
"505 658 CURVE SMOOTH",
"368 664 OFFCURVE",
"233 576 OFFCURVE",
"150 469 CURVE SMOOTH",
"26 309 OFFCURVE",
"5 108 OFFCURVE",
"183 99 CURVE SMOOTH",
"384 89 OFFCURVE",
"473 390 OFFCURVE",
"331 397 CURVE SMOOTH",
"309 398 OFFCURVE",
"304 366 OFFCURVE",
"326 365 CURVE SMOOTH",
"418 359 OFFCURVE",
"340 123 OFFCURVE",
"187 132 CURVE SMOOTH",
"-54 142 OFFCURVE",
"202 637 OFFCURVE",
"501 624 CURVE SMOOTH",
"568 621 OFFCURVE",
"630 548 OFFCURVE",
"498 292 CURVE SMOOTH",
"448 196 OFFCURVE",
"349 20 OFFCURVE",
"349 20 CURVE",
"337 2 OFFCURVE",
"365 -16 OFFCURVE",
"379 5 CURVE",
"379 5 OFFCURVE",
"463 150 OFFCURVE",
"489 190 CURVE SMOOTH",
"589 338 OFFCURVE",
"695 495 OFFCURVE",
"774 520 CURVE SMOOTH",
"812 532 OFFCURVE",
"833 502 OFFCURVE",
"796 392 CURVE SMOOTH",
"751 259 OFFCURVE",
"701 156 OFFCURVE",
"628 37 CURVE SMOOTH",
"616 17 OFFCURVE",
"645 1 OFFCURVE",
"658 20 CURVE SMOOTH",
"758 175 OFFCURVE",
"870 336 OFFCURVE",
"1014 456 CURVE SMOOTH",
"1038 476 OFFCURVE",
"1072 498 OFFCURVE",
"1103 511 CURVE SMOOTH",
"1184 544 OFFCURVE",
"1170 505 OFFCURVE",
"1132 433 CURVE SMOOTH",
"1101 373 OFFCURVE",
"1050 290 OFFCURVE",
"1006 205 CURVE SMOOTH",
"945 90 OFFCURVE",
"893 -30 OFFCURVE",
"891 -115 CURVE SMOOTH",
"886 -242 OFFCURVE",
"1027 -221 OFFCURVE",
"1086 -148 CURVE SMOOTH",
"1101 -129 OFFCURVE",
"1083 -110 OFFCURVE",
"1068 -129 CURVE SMOOTH",
"1049 -150 OFFCURVE",
"1011 -174 OFFCURVE",
"980 -173 CURVE SMOOTH"
);
}
);
width = 1076;
}
);
note = M;
unicode = 004D;
},
{
glyphname = N;
lastChange = "2021-09-02 07:14:54 +0000";
layers = (
{
hints = (
{
horizontal = 1;
place = "{-191, 35}";
type = Stem;
},
{
horizontal = 1;
place = "{75, 35}";
type = Stem;
},
{
horizontal = 1;
place = "{322, 29}";
type = Stem;
},
{
horizontal = 1;
place = "{542, 34}";
type = Stem;
},
{
place = "{89, 39}";
type = Stem;
},
{
place = "{427, 36}";
type = Stem;
},
{
place = "{611, 38}";
type = Stem;
},
{
place = "{762, 38}";
type = Stem;
},
{
place = "{1038, 38}";
type = Stem;
},
{
horizontal = 1;
place = "{567, 35}";
type = Stem;
}
);
layerId = "466AD7DC-B026-4005-940F-6404FDF7EB07";
paths = (
{
closed = 1;
nodes = (
"667 -141 OFFCURVE",
"1011 405 OFFCURVE",
"1051 475 CURVE SMOOTH",
"1094 548 OFFCURVE",
"1081 597 OFFCURVE",
"1015 596 CURVE SMOOTH",
"888 593 OFFCURVE",
"734 433 OFFCURVE",
"661 348 CURVE SMOOTH",
"639 321 OFFCURVE",
"597 263 OFFCURVE",
"550 201 CURVE",
"600 295 OFFCURVE",
"755 617 OFFCURVE",
"532 622 CURVE SMOOTH",
"360 626 OFFCURVE",
"213 508 OFFCURVE",
"140 384 CURVE SMOOTH",
"55 240 OFFCURVE",
"69 87 OFFCURVE",
"235 95 CURVE SMOOTH",
"444 107 OFFCURVE",
"544 378 OFFCURVE",
"386 371 CURVE SMOOTH",
"361 369 OFFCURVE",
"363 341 OFFCURVE",
"387 342 CURVE SMOOTH",
"485 347 OFFCURVE",
"395 139 OFFCURVE",
"235 130 CURVE SMOOTH",
"-13 119 OFFCURVE",
"206 594 OFFCURVE",
"529 587 CURVE SMOOTH",
"602 585 OFFCURVE",
"665 504 OFFCURVE",
"539 255 CURVE SMOOTH",
"490 159 OFFCURVE",
"390 -17 OFFCURVE",
"390 -17 CURVE",
"377 -39 OFFCURVE",
"405 -55 OFFCURVE",
"420 -35 CURVE",
"420 -35 OFFCURVE",
"631 256 OFFCURVE",
"690 326 CURVE SMOOTH",
"742 389 OFFCURVE",
"804 449 OFFCURVE",
"868 498 CURVE SMOOTH",
"904 525 OFFCURVE",
"1100 631 OFFCURVE",
"1019 491 CURVE SMOOTH",
"937 347 OFFCURVE",
"764 78 OFFCURVE",
"762 -77 CURVE SMOOTH",
"762 -201 OFFCURVE",
"911 -190 OFFCURVE",
"974 -117 CURVE SMOOTH",
"991 -98 OFFCURVE",
"963 -76 OFFCURVE",
"947 -96 CURVE SMOOTH",
"928 -116 OFFCURVE",
"889 -135 OFFCURVE",
"856 -136 CURVE SMOOTH"
);
}
);
width = 934;
}
);
note = N;
unicode = 004E;
},
{
glyphname = Eng;
lastChange = "2021-09-02 08:08:45 +0000";
layers = (
{
layerId = "466AD7DC-B026-4005-940F-6404FDF7EB07";
paths = (
{
closed = 1;
nodes = (
"620 552 OFFCURVE",
"484 334 OFFCURVE",
"378 134 CURVE",
"402 312 OFFCURVE",
"390 477 OFFCURVE",
"385 511 CURVE SMOOTH",
"382 538 OFFCURVE",
"349 545 OFFCURVE",
"333 520 CURVE SMOOTH",
"214 344 OFFCURVE",
"35 51 OFFCURVE",
"-15 -28 CURVE SMOOTH",
"-27 -46 OFFCURVE",
"3 -68 OFFCURVE",
"15 -51 CURVE SMOOTH",
"72 39 OFFCURVE",
"173 209 OFFCURVE",
"348 467 CURVE",
"348 467 OFFCURVE",
"372 183 OFFCURVE",
"300 -16 CURVE SMOOTH",
"259 -105 OFFCURVE",
"225 -170 OFFCURVE",
"201 -199 CURVE SMOOTH",
"164 -245 OFFCURVE",
"121 -274 OFFCURVE",
"78 -272 CURVE SMOOTH",
"59 -271 OFFCURVE",
"55 -254 OFFCURVE",
"60 -236 CURVE SMOOTH",
"68 -205 OFFCURVE",
"97 -171 OFFCURVE",
"144 -136 CURVE SMOOTH",
"168 -118 OFFCURVE",
"150 -103 OFFCURVE",
"135 -110 CURVE SMOOTH",
"71 -140 OFFCURVE",
"29 -189 OFFCURVE",
"20 -233 CURVE SMOOTH",
"12 -273 OFFCURVE",
"31 -299 OFFCURVE",
"64 -304 CURVE SMOOTH",
"131 -315 OFFCURVE",
"195 -270 OFFCURVE",
"243 -208 CURVE SMOOTH",
"289 -147 OFFCURVE",
"327 -64 OFFCURVE",
"378 39 CURVE SMOOTH",
"464 210 OFFCURVE",
"571 406 OFFCURVE",
"697 587 CURVE",
"711 613 OFFCURVE",
"680 630 OFFCURVE",
"655 598 CURVE SMOOTH"
);
}
);
width = 600;
}
);
unicode = 014A;
},
{
glyphname = O;
lastChange = "2021-09-02 07:14:54 +0000";
layers = (
{
hints = (
{
horizontal = 1;
place = "{-98, 37}";
type = Stem;
},
{
horizontal = 1;
place = "{209, 34}";
type = Stem;
},
{
horizontal = 1;
place = "{440, 33}";
type = Stem;
},
{
horizontal = 1;
place = "{544, 36}";
type = Stem;
},
{
place = "{112, 39}";
type = Stem;
},
{
place = "{653, 38}";
type = Stem;
},
{
place = "{121, 38}";
type = Stem;
}
);
layerId = "466AD7DC-B026-4005-940F-6404FDF7EB07";
paths = (
{
closed = 1;
nodes = (
"605 92 OFFCURVE",
"671 206 OFFCURVE",
"688 316 CURVE SMOOTH",
"712 482 OFFCURVE",
"606 581 OFFCURVE",
"480 597 CURVE SMOOTH",
"114 641 OFFCURVE",
"-74 214 OFFCURVE",
"418 229 CURVE SMOOTH",
"563 232 OFFCURVE",
"778 284 OFFCURVE",
"882 394 CURVE SMOOTH",
"900 412 OFFCURVE",
"873 438 OFFCURVE",
"854 419 CURVE SMOOTH",
"758 317 OFFCURVE",
"547 267 OFFCURVE",
"415 263 CURVE SMOOTH",
"-20 251 OFFCURVE",
"165 599 OFFCURVE",
"476 561 CURVE SMOOTH",
"735 530 OFFCURVE",
"680 217 OFFCURVE",
"500 49 CURVE SMOOTH",
"383 -59 OFFCURVE",
"92 -120 OFFCURVE",
"161 158 CURVE SMOOTH",
"190 278 OFFCURVE",
"314 398 OFFCURVE",
"401 436 CURVE SMOOTH",
"457 460 OFFCURVE",
"530 471 OFFCURVE",
"547 444 CURVE SMOOTH",
"564 416 OFFCURVE",
"582 433 OFFCURVE",
"575 458 CURVE SMOOTH",
"572 473 OFFCURVE",
"559 482 OFFCURVE",
"546 486 CURVE SMOOTH",
"353 537 OFFCURVE",
"155 296 OFFCURVE",
"123 167 CURVE SMOOTH",
"50 -134 OFFCURVE",
"357 -123 OFFCURVE",
"513 12 CURVE SMOOTH"
);
}
);
width = 715;
}
);
note = O;
unicode = 004F;
},
{
glyphname = OE;
lastChange = "2021-09-02 08:39:26 +0000";
layers = (
{
hints = (
{
horizontal = 1;
place = "{-98, 37}";
type = Stem;
},
{
horizontal = 1;
place = "{209, 34}";
type = Stem;
},
{
horizontal = 1;
place = "{440, 33}";
type = Stem;
},
{
horizontal = 1;
place = "{544, 36}";
type = Stem;
},
{
place = "{112, 39}";
type = Stem;
},
{
place = "{653, 38}";
type = Stem;
},
{
place = "{121, 38}";
type = Stem;
},
{
horizontal = 1;
place = "{-130, 34}";
type = Stem;
},
{
horizontal = 1;
place = "{264, 8}";
type = Stem;
},
{
horizontal = 1;
place = "{338, 33}";
type = Stem;
},
{
horizontal = 1;
place = "{555, 38}";
type = Stem;
},
{
place = "{794, 40}";
type = Stem;
},
{
place = "{1006, 39}";
type = Stem;
},
{
place = "{1498, 39}";
type = Stem;
},
{
place = "{848, 38}";
type = Stem;
},
{
horizontal = 1;
place = "{525, 35}";
type = Stem;
}
);
layerId = "466AD7DC-B026-4005-940F-6404FDF7EB07";
paths = (
{
closed = 1;
nodes = (
"507 55 OFFCURVE",
"503 52 OFFCURVE",
"500 49 CURVE SMOOTH",
"383 -59 OFFCURVE",
"92 -120 OFFCURVE",
"161 158 CURVE SMOOTH",
"190 278 OFFCURVE",
"314 398 OFFCURVE",
"401 436 CURVE SMOOTH",
"457 460 OFFCURVE",
"530 471 OFFCURVE",
"547 444 CURVE SMOOTH",
"564 416 OFFCURVE",
"582 433 OFFCURVE",
"575 458 CURVE SMOOTH",
"572 473 OFFCURVE",
"559 482 OFFCURVE",
"546 486 CURVE SMOOTH",
"353 537 OFFCURVE",
"155 296 OFFCURVE",
"123 167 CURVE SMOOTH",
"50 -134 OFFCURVE",
"357 -123 OFFCURVE",
"513 12 CURVE SMOOTH",
"516 15 OFFCURVE",
"519 17 OFFCURVE",
"522 20 CURVE",
"510 59 LINE"
);
},
{
closed = 1;
nodes = (
"938 -107 OFFCURVE",
"1061 -50 OFFCURVE",
"1132 10 CURVE SMOOTH",
"1163 36 OFFCURVE",
"1211 91 OFFCURVE",
"1201 137 CURVE SMOOTH",
"1190 182 OFFCURVE",
"1134 166 OFFCURVE",
"1165 133 CURVE SMOOTH",
"1183 113 OFFCURVE",
"1118 45 OFFCURVE",
"1107 35 CURVE SMOOTH",
"1043 -17 OFFCURVE",
"931 -73 OFFCURVE",
"748 -76 CURVE SMOOTH",
"400 -81 OFFCURVE",
"496 285 OFFCURVE",
"895 255 CURVE",
"923 258 OFFCURVE",
"930 292 OFFCURVE",
"900 292 CURVE SMOOTH",
"573 292 OFFCURVE",
"819 570 OFFCURVE",
"1112 545 CURVE SMOOTH",
"1221 537 OFFCURVE",
"1239 456 OFFCURVE",
"1095 411 CURVE SMOOTH",
"1012 384 OFFCURVE",
"905 389 OFFCURVE",
"812 415 CURVE SMOOTH",
"601 473 OFFCURVE",
"606 581 OFFCURVE",
"715 550 CURVE SMOOTH",
"735 544 OFFCURVE",
"741 571 OFFCURVE",
"721 578 CURVE SMOOTH",
"581 626 OFFCURVE",
"571 531 OFFCURVE",
"635 466 CURVE SMOOTH",
"727 360 OFFCURVE",
"976 337 OFFCURVE",
"1112 379 CURVE SMOOTH",
"1264 427 OFFCURVE",
"1293 564 OFFCURVE",
"1116 580 CURVE SMOOTH",
"980 591 OFFCURVE",
"857 544 OFFCURVE",
"782 485 CURVE SMOOTH",
"723 436 OFFCURVE",
"660 337 OFFCURVE",
"753 284 CURVE",
"435 233 OFFCURVE",
"383 -115 OFFCURVE",
"748 -110 CURVE SMOOTH"
);
},
{
closed = 1;
nodes = (
"678 265 OFFCURVE",
"684 291 OFFCURVE",
"688 316 CURVE SMOOTH",
"712 482 OFFCURVE",
"606 581 OFFCURVE",
"480 597 CURVE SMOOTH",
"114 641 OFFCURVE",
"-74 214 OFFCURVE",
"418 229 CURVE SMOOTH",
"465 230 OFFCURVE",
"473 265 OFFCURVE",
"415 263 CURVE SMOOTH",
"-20 251 OFFCURVE",
"165 599 OFFCURVE",
"476 561 CURVE SMOOTH",
"660 539 OFFCURVE",
"685 375 OFFCURVE",
"621 222 CURVE",
"669 239 LINE"
);
}
);
width = 1219;
}
);
unicode = 0152;
},
{
glyphname = P;
lastChange = "2021-09-02 07:14:54 +0000";
layers = (
{
hints = (
{
horizontal = 1;
place = "{-94, 36}";
type = Stem;
},
{
horizontal = 1;
place = "{185, 36}";
type = Stem;
},
{
horizontal = 1;
place = "{539, 36}";
type = Stem;
},
{
place = "{63, 38}";
type = Stem;
},
{
place = "{152, 37}";
type = Stem;
},
{
place = "{918, 36}";
type = Stem;
},
{
horizontal = 1;
place = "{576, 30}";
type = Stem;
},
{
horizontal = 1;
place = "{134, 35}";
type = Stem;
}
);
layerId = "466AD7DC-B026-4005-940F-6404FDF7EB07";
paths = (
{
closed = 1;
nodes = (
"345 -81 OFFCURVE",
"444 60 OFFCURVE",
"546 201 CURVE SMOOTH",
"631 319 OFFCURVE",
"716 459 OFFCURVE",
"826 551 CURVE SMOOTH",
"861 581 OFFCURVE",
"894 596 OFFCURVE",
"916 596 CURVE SMOOTH",
"940 596 OFFCURVE",
"932 626 OFFCURVE",
"909 626 CURVE SMOOTH",
"786 626 OFFCURVE",
"633 387 OFFCURVE",
"501 203 CURVE SMOOTH",
"422 93 OFFCURVE",
"328 -45 OFFCURVE",
"170 -38 CURVE SMOOTH",
"54 -32 OFFCURVE",
"99 91 OFFCURVE",
"191 71 CURVE SMOOTH",
"215 66 OFFCURVE",
"216 97 OFFCURVE",
"192 102 CURVE SMOOTH",
"50 133 OFFCURVE",
"1 -65 OFFCURVE",
"168 -74 CURVE SMOOTH"
);
},
{
closed = 1;
nodes = (
"970 107 OFFCURVE",
"1161 595 OFFCURVE",
"647 595 CURVE SMOOTH",
"359 595 OFFCURVE",
"197 473 OFFCURVE",
"162 364 CURVE SMOOTH",
"96 159 OFFCURVE",
"378 130 OFFCURVE",
"537 408 CURVE SMOOTH",
"550 429 OFFCURVE",
"522 445 OFFCURVE",
"510 424 CURVE SMOOTH",
"438 298 OFFCURVE",
"338 244 OFFCURVE",
"272 241 CURVE SMOOTH",
"210 237 OFFCURVE",
"172 274 OFFCURVE",
"196 353 CURVE SMOOTH",
"225 441 OFFCURVE",
"365 559 OFFCURVE",
"647 559 CURVE SMOOTH",
"1114 559 OFFCURVE",
"917 149 OFFCURVE",
"514 192 CURVE SMOOTH",
"491 195 OFFCURVE",
"487 159 OFFCURVE",
"511 157 CURVE SMOOTH"
);
}
);
width = 871;
}
);
note = P;
unicode = 0050;
},
{
glyphname = Thorn;
lastChange = "2021-09-02 22:54:53 +0000";
layers = (
{
hints = (
{
horizontal = 1;
place = "{145, 32}";
type = Stem;
},
{
horizontal = 1;
place = "{485, 32}";
type = Stem;
}
);
layerId = "466AD7DC-B026-4005-940F-6404FDF7EB07";
paths = (
{
closed = 1;
nodes = (
"175 147 LINE",
"202 145 OFFCURVE",
"234 147 OFFCURVE",
"262 151 CURVE SMOOTH",
"574 194 OFFCURVE",
"616 473 OFFCURVE",
"398 484 CURVE",
"443 553 LINE SMOOTH",
"458 575 OFFCURVE",
"424 597 OFFCURVE",
"410 575 CURVE SMOOTH",
"349 483 LINE",
"267 475 OFFCURVE",
"193 438 OFFCURVE",
"128 404 CURVE SMOOTH",
"110 394 OFFCURVE",
"126 364 OFFCURVE",
"144 374 CURVE SMOOTH",
"199 402 OFFCURVE",
"259 434 OFFCURVE",
"325 446 CURVE",
"151 183 LINE",
"134 189 OFFCURVE",
"126 170 OFFCURVE",
"135 159 CURVE",
"29 -2 LINE SMOOTH",
"14 -24 OFFCURVE",
"48 -46 OFFCURVE",
"62 -24 CURVE SMOOTH"
);
},
{
closed = 1;
nodes = (
"376 452 LINE",
"383 452 LINE SMOOTH",
"577 452 OFFCURVE",
"524 222 OFFCURVE",
"258 185 CURVE SMOOTH",
"238 182 OFFCURVE",
"216 180 OFFCURVE",
"196 179 CURVE"
);
}
);
width = 557;
}
);
note = Thorn;
unicode = 00DE;
},
{
glyphname = Q;
lastChange = "2021-09-02 07:14:54 +0000";
layers = (
{
hints = (
{
horizontal = 1;
place = "{-256, 37}";
type = Stem;
},
{
horizontal = 1;
place = "{-137, 37}";
type = Stem;
},
{
horizontal = 1;
place = "{-1, 36}";
type = Stem;
},
{
horizontal = 1;
place = "{435, 39}";
type = Stem;
},
{
horizontal = 1;
place = "{560, 37}";
type = Stem;
},
{
place = "{96, 37}";
type = Stem;
},
{
place = "{619, 40}";
type = Stem;
},
{
place = "{110, 40}";
type = Stem;
},
{
place = "{677, 41}";
type = Stem;
}
);
layerId = "466AD7DC-B026-4005-940F-6404FDF7EB07";
paths = (
{
closed = 1;
nodes = (
"398 -118 OFFCURVE",
"561 23 OFFCURVE",
"634 239 CURVE SMOOTH",
"723 500 OFFCURVE",
"560 617 OFFCURVE",
"393 617 CURVE SMOOTH",
"228 617 OFFCURVE",
"60 514 OFFCURVE",
"123 334 CURVE SMOOTH",
"130 312 OFFCURVE",
"168 328 OFFCURVE",
"159 351 CURVE SMOOTH",
"116 475 OFFCURVE",
"221 580 OFFCURVE",
"373 580 CURVE SMOOTH",
"597 580 OFFCURVE",
"654 420 OFFCURVE",
"600 255 CURVE SMOOTH",
"544 89 OFFCURVE",
"416 -81 OFFCURVE",
"243 -80 CURVE SMOOTH",
"160 -79 OFFCURVE",
"118 -22 OFFCURVE",
"138 97 CURVE SMOOTH",
"165 254 OFFCURVE",
"317 401 OFFCURVE",
"369 432 CURVE SMOOTH",
"411 455 OFFCURVE",
"478 464 OFFCURVE",
"500 445 CURVE SMOOTH",
"519 430 OFFCURVE",
"540 444 OFFCURVE",
"527 465 CURVE SMOOTH",
"501 508 OFFCURVE",
"415 501 OFFCURVE",
"350 463 CURVE SMOOTH",
"294 428 OFFCURVE",
"131 274 OFFCURVE",
"101 100 CURVE SMOOTH",
"80 -29 OFFCURVE",
"126 -116 OFFCURVE",
"241 -117 CURVE SMOOTH"
);
},
{
closed = 1;
nodes = (
"494 -178 OFFCURVE",
"444 -151 OFFCURVE",
"401 -121 CURVE SMOOTH",
"336 -75 OFFCURVE",
"96 163 OFFCURVE",
"41 -2 CURVE SMOOTH",
"34 -26 OFFCURVE",
"69 -37 OFFCURVE",
"77 -14 CURVE SMOOTH",
"88 20 OFFCURVE",
"108 24 OFFCURVE",
"142 14 CURVE SMOOTH",
"222 -14 OFFCURVE",
"310 -102 OFFCURVE",
"380 -151 CURVE SMOOTH",
"717 -386 OFFCURVE",
"850 -66 OFFCURVE",
"553 -2 CURVE SMOOTH",
"530 3 OFFCURVE",
"521 -26 OFFCURVE",
"543 -30 CURVE SMOOTH",
"730 -71 OFFCURVE",
"708 -230 OFFCURVE",
"557 -194 CURVE SMOOTH"
);
}
);
width = 665;
}
);
note = Q;
unicode = 0051;
},
{
glyphname = R;
lastChange = "2021-09-02 07:14:54 +0000";
layers = (
{
hints = (
{
horizontal = 1;
place = "{-80, 36}";
type = Stem;
},
{
horizontal = 1;
place = "{188, 36}";
type = Stem;
},
{
horizontal = 1;
place = "{526, 36}";
type = Stem;
},
{
place = "{65, 38}";
type = Stem;
},
{
place = "{155, 36}";
type = Stem;
},
{
place = "{549, 37}";
type = Stem;
},
{
place = "{860, 37}";
type = Stem;
},
{
horizontal = 1;
place = "{-136, 33}";
type = Stem;
},
{
horizontal = 1;
place = "{206, 36}";
type = Stem;
},
{
horizontal = 1;
place = "{57, 35}";
type = Stem;
},
{
horizontal = 1;
place = "{554, 31}";
type = Stem;
}
);
layerId = "466AD7DC-B026-4005-940F-6404FDF7EB07";
paths = (
{
closed = 1;
nodes = (
"335 -67 OFFCURVE",
"428 67 OFFCURVE",
"525 200 CURVE SMOOTH",
"572 267 LINE SMOOTH",
"634 358 OFFCURVE",
"709 464 OFFCURVE",
"790 531 CURVE SMOOTH",
"823 560 OFFCURVE",
"853 574 OFFCURVE",
"874 574 CURVE SMOOTH",
"897 574 OFFCURVE",
"889 605 OFFCURVE",
"867 605 CURVE SMOOTH",
"763 605 OFFCURVE",
"638 428 OFFCURVE",
"524 266 CURVE SMOOTH",
"480 204 LINE SMOOTH",
"406 101 OFFCURVE",
"315 -31 OFFCURVE",
"166 -24 CURVE SMOOTH",
"121 -22 OFFCURVE",
"103 0 OFFCURVE",
"103 22 CURVE SMOOTH",
"103 54 OFFCURVE",
"138 88 OFFCURVE",
"187 77 CURVE SMOOTH",
"210 73 OFFCURVE",
"211 104 OFFCURVE",
"188 109 CURVE SMOOTH",
"112 125 OFFCURVE",
"65 73 OFFCURVE",
"65 23 CURVE SMOOTH",
"65 -18 OFFCURVE",
"95 -56 OFFCURVE",
"166 -60 CURVE SMOOTH"
);
},
{
closed = 1;
nodes = (
"827 -116 OFFCURVE",
"898 -67 OFFCURVE",
"922 -2 CURVE SMOOTH",
"929 18 OFFCURVE",
"897 33 OFFCURVE",
"888 11 CURVE SMOOTH",
"866 -45 OFFCURVE",
"814 -83 OFFCURVE",
"760 -83 CURVE SMOOTH",
"725 -83 OFFCURVE",
"690 -66 OFFCURVE",
"665 -28 CURVE SMOOTH",
"616 45 OFFCURVE",
"590 169 OFFCURVE",
"586 226 CURVE",
"765 219 OFFCURVE",
"897 331 OFFCURVE",
"897 431 CURVE SMOOTH",
"897 510 OFFCURVE",
"817 582 OFFCURVE",
"621 582 CURVE SMOOTH",
"378 582 OFFCURVE",
"197 464 OFFCURVE",
"164 360 CURVE SMOOTH",
"158 340 OFFCURVE",
"155 322 OFFCURVE",
"155 306 CURVE SMOOTH",
"155 243 OFFCURVE",
"198 208 OFFCURVE",
"259 208 CURVE SMOOTH",
"338 208 OFFCURVE",
"444 267 OFFCURVE",
"521 402 CURVE SMOOTH",
"532 422 OFFCURVE",
"505 437 OFFCURVE",
"492 417 CURVE",
"425 298 OFFCURVE",
"331 247 OFFCURVE",
"269 244 CURVE SMOOTH",
"223 242 OFFCURVE",
"191 263 OFFCURVE",
"191 308 CURVE SMOOTH",
"191 320 OFFCURVE",
"193 334 OFFCURVE",
"198 350 CURVE SMOOTH",
"224 433 OFFCURVE",
"385 546 OFFCURVE",
"621 546 CURVE SMOOTH",
"792 546 OFFCURVE",
"860 490 OFFCURVE",
"860 430 CURVE SMOOTH",
"860 351 OFFCURVE",
"750 262 OFFCURVE",
"607 262 CURVE SMOOTH",
"596 262 OFFCURVE",
"581 263 OFFCURVE",
"569 264 CURVE SMOOTH",
"561 264 OFFCURVE",
"549 258 OFFCURVE",
"549 246 CURVE SMOOTH",
"548 178 OFFCURVE",
"574 41 OFFCURVE",
"631 -45 CURVE SMOOTH",
"665 -96 OFFCURVE",
"710 -116 OFFCURVE",
"757 -116 CURVE SMOOTH"
);
}
);
width = 820;
}
);
note = R;
unicode = 0052;
},
{
glyphname = S;
lastChange = "2021-09-02 07:14:54 +0000";
layers = (
{
hints = (
{
horizontal = 1;
place = "{-139, 38}";
type = Stem;
},
{
horizontal = 1;
place = "{374, 33}";
type = Stem;
},
{
horizontal = 1;
place = "{539, 38}";
type = Stem;
},
{
place = "{113, 38}";
type = Stem;
},
{
place = "{410, 43}";
type = Stem;
},
{
place = "{726, 38}";
type = Stem;
},
{
place = "{797, 42}";
type = Stem;
}
);
layerId = "466AD7DC-B026-4005-940F-6404FDF7EB07";
paths = (
{
closed = 1;
nodes = (
"573 -119 OFFCURVE",
"764 -32 OFFCURVE",
"764 127 CURVE SMOOTH",
"764 236 OFFCURVE",
"667 280 OFFCURVE",
"580 319 CURVE SMOOTH",
"533 339 OFFCURVE",
"451 375 OFFCURVE",
"453 440 CURVE SMOOTH",
"454 495 OFFCURVE",
"536 559 OFFCURVE",
"662 559 CURVE SMOOTH",
"759 559 OFFCURVE",
"797 534 OFFCURVE",
"797 506 CURVE SMOOTH",
"797 473 OFFCURVE",
"745 436 OFFCURVE",
"678 427 CURVE SMOOTH",
"655 423 OFFCURVE",
"665 391 OFFCURVE",
"689 394 CURVE SMOOTH",
"780 406 OFFCURVE",
"839 459 OFFCURVE",
"839 509 CURVE SMOOTH",
"839 555 OFFCURVE",
"788 597 OFFCURVE",
"662 597 CURVE SMOOTH",
"524 597 OFFCURVE",
"412 520 OFFCURVE",
"410 437 CURVE SMOOTH",
"409 389 OFFCURVE",
"447 338 OFFCURVE",
"548 292 CURVE SMOOTH",
"644 248 OFFCURVE",
"726 210 OFFCURVE",
"726 127 CURVE SMOOTH",
"726 5 OFFCURVE",
"570 -81 OFFCURVE",
"393 -81 CURVE SMOOTH",
"260 -81 OFFCURVE",
"151 -26 OFFCURVE",
"151 90 CURVE SMOOTH",
"151 141 OFFCURVE",
"206 251 OFFCURVE",
"318 275 CURVE SMOOTH",
"348 282 OFFCURVE",
"343 319 OFFCURVE",
"309 312 CURVE SMOOTH",
"171 286 OFFCURVE",
"113 155 OFFCURVE",
"113 90 CURVE SMOOTH",
"113 -61 OFFCURVE",
"255 -119 OFFCURVE",
"393 -119 CURVE SMOOTH"
);
}
);
width = 805;
}
);
note = S;
unicode = 0053;
},
{
glyphname = Germandbls;
lastChange = "2021-09-02 22:55:02 +0000";
layers = (
{
hints = (
{
horizontal = 1;
place = "{-22, 32}";
type = Stem;
},
{
horizontal = 1;
place = "{269, 32}";
type = Stem;
},
{
horizontal = 1;
place = "{517, 32}";
type = Stem;
},
{
place = "{414, 32}";
type = Stem;
}
);
layerId = "466AD7DC-B026-4005-940F-6404FDF7EB07";
paths = (
{
closed = 1;
nodes = (
"458 81 OFFCURVE",
"386 14 CURVE SMOOTH",
"321 -45 OFFCURVE",
"177 -50 OFFCURVE",
"201 23 CURVE SMOOTH",
"213 57 OFFCURVE",
"188 86 OFFCURVE",
"164 43 CURVE SMOOTH",
"152 19 OFFCURVE",
"155 -41 OFFCURVE",
"201 -57 CURVE SMOOTH",
"253 -77 OFFCURVE",
"353 -65 OFFCURVE",
"412 -17 CURVE SMOOTH",
"490 52 OFFCURVE",
"490 123 OFFCURVE",
"462 236 CURVE",
"454 261 OFFCURVE",
"444 287 OFFCURVE",
"432 315 CURVE",
"500 342 OFFCURVE",
"539 356 OFFCURVE",
"580 385 CURVE SMOOTH",
"758 512 OFFCURVE",
"670 626 OFFCURVE",
"575 626 CURVE SMOOTH",
"380 626 OFFCURVE",
"296 406 OFFCURVE",
"202 248 CURVE SMOOTH",
"156 168 OFFCURVE",
"82 23 OFFCURVE",
"-1 -26 CURVE SMOOTH",
"-25 -40 OFFCURVE",
"-69 -51 OFFCURVE",
"-85 -45 CURVE SMOOTH",
"-119 -35 OFFCURVE",
"-132 -68 OFFCURVE",
"-112 -77 CURVE SMOOTH",
"-69 -99 OFFCURVE",
"-9 -77 OFFCURVE",
"26 -59 CURVE SMOOTH",
"116 -12 OFFCURVE",
"164 104 OFFCURVE",
"215 190 CURVE SMOOTH",
"293 324 OFFCURVE",
"400 589 OFFCURVE",
"560 589 CURVE SMOOTH",
"664 589 OFFCURVE",
"660 477 OFFCURVE",
"532 397 CURVE SMOOTH",
"501 378 OFFCURVE",
"434 348 OFFCURVE",
"397 340 CURVE",
"372 324 OFFCURVE",
"397 295 OFFCURVE",
"409 254 CURVE SMOOTH",
"432 173 OFFCURVE"
);
}
);
width = 497;
}
);
unicode = 1E9E;
},
{
glyphname = Schwa;
lastChange = "2021-09-02 08:17:05 +0000";
layers = (
{
layerId = "466AD7DC-B026-4005-940F-6404FDF7EB07";
paths = (
{
closed = 1;
nodes = (
"532 203 OFFCURVE",
"561 235 OFFCURVE",
"561 266 CURVE SMOOTH",
"561 452 OFFCURVE",
"43 271 OFFCURVE",
"43 45 CURVE SMOOTH",
"43 -31 OFFCURVE",
"99 -65 OFFCURVE",
"158 -65 CURVE SMOOTH",
"381 -65 OFFCURVE",
"648 245 OFFCURVE",
"648 475 CURVE SMOOTH",
"648 606 OFFCURVE",
"528 626 OFFCURVE",
"463 626 CURVE SMOOTH",
"353 626 OFFCURVE",
"251 571 OFFCURVE",
"217 541 CURVE SMOOTH",
"196 522 OFFCURVE",
"209 491 OFFCURVE",
"230 510 CURVE SMOOTH",
"258 533 OFFCURVE",
"360 584 OFFCURVE",
"460 584 CURVE SMOOTH",
"530 584 OFFCURVE",
"606 557 OFFCURVE",
"606 475 CURVE SMOOTH",
"606 274 OFFCURVE",
"344 -26 OFFCURVE",
"160 -26 CURVE SMOOTH",
"109 -26 OFFCURVE",
"82 8 OFFCURVE",
"82 45 CURVE SMOOTH",
"82 226 OFFCURVE",
"532 405 OFFCURVE",
"532 233 CURVE SMOOTH"
);
}
);
width = 600;
}
);
unicode = 018F;
},
{
glyphname = T;
lastChange = "2021-09-02 07:14:54 +0000";
layers = (
{
hints = (
{
horizontal = 1;
place = "{-150, 38}";
type = Stem;
},
{
horizontal = 1;
place = "{188, 36}";
type = Stem;
},
{
horizontal = 1;
place = "{382, 35}";
type = Stem;
},
{
horizontal = 1;
place = "{509, 38}";
type = Stem;
},
{
place = "{97, 38}";
type = Stem;
},
{
place = "{312, 34}";
type = Stem;
},
{
place = "{617, 35}";
type = Stem;
},
{
place = "{1201, 36}";
type = Stem;
}
);
layerId = "466AD7DC-B026-4005-940F-6404FDF7EB07";
paths = (
{
closed = 1;
nodes = (
"680 -130 OFFCURVE",
"781 253 OFFCURVE",
"925 469 CURVE SMOOTH",
"963 526 OFFCURVE",
"1002 536 OFFCURVE",
"1020 525 CURVE SMOOTH",
"1041 511 OFFCURVE",
"1061 544 OFFCURVE",
"1040 557 CURVE SMOOTH",
"992 587 OFFCURVE",
"931 548 OFFCURVE",
"893 490 CURVE SMOOTH",
"759 289 OFFCURVE",
"654 -92 OFFCURVE",
"355 -92 CURVE SMOOTH",
"68 -92 OFFCURVE",
"82 216 OFFCURVE",
"278 259 CURVE SMOOTH",
"303 265 OFFCURVE",
"295 302 OFFCURVE",
"270 296 CURVE SMOOTH",
"44 246 OFFCURVE",
"7 -130 OFFCURVE",
"355 -130 CURVE SMOOTH"
);
},
{
closed = 1;
nodes = (
"556 210 OFFCURVE",
"635 316 OFFCURVE",
"652 395 CURVE SMOOTH",
"657 419 OFFCURVE",
"621 426 OFFCURVE",
"617 403 CURVE SMOOTH",
"601 332 OFFCURVE",
"533 245 OFFCURVE",
"448 244 CURVE SMOOTH",
"271 238 OFFCURVE",
"334 519 OFFCURVE",
"560 539 CURVE SMOOTH",
"660 548 OFFCURVE",
"756 517 OFFCURVE",
"848 481 CURVE SMOOTH",
"929 452 OFFCURVE",
"1172 338 OFFCURVE",
"1231 450 CURVE SMOOTH",
"1257 500 OFFCURVE",
"1188 508 OFFCURVE",
"1201 472 CURVE",
"1196 445 OFFCURVE",
"1140 436 OFFCURVE",
"1122 437 CURVE SMOOTH",
"937 450 OFFCURVE",
"782 595 OFFCURVE",
"557 575 CURVE SMOOTH",
"283 551 OFFCURVE",
"226 201 OFFCURVE",
"449 208 CURVE SMOOTH"
);
}
);
width = 837;
}
);
note = T;
unicode = 0054;
},
{
glyphname = U;
lastChange = "2021-09-02 07:14:54 +0000";
layers = (
{
hints = (
{
horizontal = 1;
place = "{-189, 35}";
type = Stem;
},
{
horizontal = 1;
place = "{-64, 35}";
type = Stem;
},
{
horizontal = 1;
place = "{76, 36}";
type = Stem;
},
{
horizontal = 1;
place = "{335, 33}";
type = Stem;
},
{
horizontal = 1;
place = "{578, 35}";
type = Stem;
},
{
place = "{140, 35}";
type = Stem;
},
{
place = "{440, 35}";
type = Stem;
},
{
place = "{662, 37}";
type = Stem;
},
{
place = "{434, 36}";
type = Stem;
},
{
place = "{667, 36}";
type = Stem;
}
);
layerId = "466AD7DC-B026-4005-940F-6404FDF7EB07";
paths = (
{
closed = 1;
nodes = (
"784 -169 OFFCURVE",
"840 -139 OFFCURVE",
"868 -107 CURVE SMOOTH",
"883 -91 OFFCURVE",
"859 -66 OFFCURVE",
"844 -83 CURVE SMOOTH",
"826 -104 OFFCURVE",
"775 -134 OFFCURVE",
"742 -134 CURVE SMOOTH",
"719 -134 OFFCURVE",
"701 -119 OFFCURVE",
"703 -81 CURVE SMOOTH",
"710 60 OFFCURVE",
"831 259 OFFCURVE",
"907 387 CURVE",
"916 407 OFFCURVE",
"890 424 OFFCURVE",
"877 405 CURVE SMOOTH",
"799 279 OFFCURVE",
"778 237 OFFCURVE",
"714 156 CURVE SMOOTH",
"671 100 OFFCURVE",
"562 -9 OFFCURVE",
"502 -9 CURVE SMOOTH",
"485 -9 OFFCURVE",
"475 3 OFFCURVE",
"475 30 CURVE SMOOTH",
"475 94 OFFCURVE",
"577 248 OFFCURVE",
"591 270 CURVE SMOOTH",
"648 354 OFFCURVE",
"699 434 OFFCURVE",
"699 514 CURVE SMOOTH",
"699 596 OFFCURVE",
"640 633 OFFCURVE",
"570 633 CURVE SMOOTH",
"329 633 OFFCURVE",
"140 380 OFFCURVE",
"140 221 CURVE SMOOTH",
"140 149 OFFCURVE",
"178 96 OFFCURVE",
"269 96 CURVE SMOOTH",
"396 96 OFFCURVE",
"470 227 OFFCURVE",
"470 308 CURVE SMOOTH",
"470 354 OFFCURVE",
"444 388 OFFCURVE",
"392 388 CURVE SMOOTH",
"368 388 OFFCURVE",
"362 355 OFFCURVE",
"386 355 CURVE SMOOTH",
"413 355 OFFCURVE",
"434 334 OFFCURVE",
"434 307 CURVE SMOOTH",
"434 247 OFFCURVE",
"372 132 OFFCURVE",
"269 132 CURVE SMOOTH",
"204 132 OFFCURVE",
"175 171 OFFCURVE",
"175 223 CURVE SMOOTH",
"175 360 OFFCURVE",
"354 598 OFFCURVE",
"570 598 CURVE SMOOTH",
"610 598 OFFCURVE",
"662 578 OFFCURVE",
"662 511 CURVE SMOOTH",
"662 432 OFFCURVE",
"611 362 OFFCURVE",
"561 288 CURVE SMOOTH",
"533 247 OFFCURVE",
"440 107 OFFCURVE",
"440 20 CURVE SMOOTH",
"440 -26 OFFCURVE",
"470 -44 OFFCURVE",
"496 -44 CURVE SMOOTH",
"583 -44 OFFCURVE",
"669 53 OFFCURVE",
"723 117 CURVE",
"691 45 OFFCURVE",
"670 -27 OFFCURVE",
"667 -79 CURVE SMOOTH",
"664 -145 OFFCURVE",
"697 -169 OFFCURVE",
"739 -169 CURVE SMOOTH"
);
}
);
width = 829;
}
);
note = U;
unicode = 0055;
},
{
glyphname = V;
lastChange = "2021-09-02 07:14:54 +0000";
layers = (
{
hints = (
{
horizontal = 1;
place = "{-68, 37}";
type = Stem;
},
{
horizontal = 1;
place = "{81, 35}";
type = Stem;
},
{
horizontal = 1;
place = "{334, 32}";
type = Stem;
},
{
horizontal = 1;
place = "{477, 37}";
type = Stem;
},
{
horizontal = 1;
place = "{580, 35}";
type = Stem;
},
{
place = "{123, 39}";
type = Stem;
},
{
place = "{427, 36}";
type = Stem;
},
{
place = "{655, 37}";
type = Stem;
},
{
place = "{916, 38}";
type = Stem;
},
{
place = "{449, 39}";
type = Stem;
}
);
layerId = "466AD7DC-B026-4005-940F-6404FDF7EB07";
paths = (
{
closed = 1;
nodes = (
"680 -42 OFFCURVE",
"954 255 OFFCURVE",
"954 443 CURVE SMOOTH",
"954 495 OFFCURVE",
"920 546 OFFCURVE",
"841 531 CURVE SMOOTH",
"817 527 OFFCURVE",
"820 492 OFFCURVE",
"843 497 CURVE SMOOTH",
"891 507 OFFCURVE",
"916 472 OFFCURVE",
"916 437 CURVE SMOOTH",
"916 262 OFFCURVE",
"641 -7 OFFCURVE",
"536 -11 CURVE SMOOTH",
"503 -13 OFFCURVE",
"488 8 OFFCURVE",
"488 39 CURVE SMOOTH",
"488 115 OFFCURVE",
"537 196 OFFCURVE",
"586 270 CURVE SMOOTH",
"642 355 OFFCURVE",
"692 436 OFFCURVE",
"692 516 CURVE SMOOTH",
"692 598 OFFCURVE",
"633 635 OFFCURVE",
"563 635 CURVE SMOOTH",
"322 635 OFFCURVE",
"123 382 OFFCURVE",
"123 220 CURVE SMOOTH",
"123 131 OFFCURVE",
"176 101 OFFCURVE",
"231 101 CURVE SMOOTH",
"333 101 OFFCURVE",
"463 193 OFFCURVE",
"463 310 CURVE SMOOTH",
"463 356 OFFCURVE",
"432 386 OFFCURVE",
"380 386 CURVE SMOOTH",
"356 386 OFFCURVE",
"355 354 OFFCURVE",
"379 354 CURVE SMOOTH",
"406 354 OFFCURVE",
"427 336 OFFCURVE",
"427 309 CURVE SMOOTH",
"427 217 OFFCURVE",
"315 136 OFFCURVE",
"234 136 CURVE SMOOTH",
"196 136 OFFCURVE",
"162 158 OFFCURVE",
"162 222 CURVE SMOOTH",
"162 362 OFFCURVE",
"347 600 OFFCURVE",
"563 600 CURVE SMOOTH",
"603 600 OFFCURVE",
"655 580 OFFCURVE",
"655 513 CURVE SMOOTH",
"655 434 OFFCURVE",
"603 360 OFFCURVE",
"553 286 CURVE SMOOTH",
"507 213 OFFCURVE",
"449 129 OFFCURVE",
"449 36 CURVE SMOOTH",
"449 -15 OFFCURVE",
"475 -51 OFFCURVE",
"538 -48 CURVE SMOOTH"
);
}
);
width = 879;
}
);
note = V;
unicode = 0056;
},
{
glyphname = W;
lastChange = "2021-09-02 07:14:54 +0000";
layers = (
{
hints = (
{
horizontal = 1;
place = "{-50, 30}";
type = Stem;
},
{
horizontal = 1;
place = "{91, 37}";
type = Stem;
},
{
horizontal = 1;
place = "{370, 36}";
type = Stem;
},
{
horizontal = 1;
place = "{456, 38}";
type = Stem;
},
{
horizontal = 1;
place = "{576, 37}";
type = Stem;
},
{
place = "{145, 37}";
type = Stem;
},
{
place = "{459, 37}";
type = Stem;
},
{
place = "{651, 37}";
type = Stem;
},
{
place = "{772, 38}";
type = Stem;
},
{
place = "{1171, 36}";
type = Stem;
},
{
horizontal = 1;
place = "{-77, 37}";
type = Stem;
},
{
place = "{471, 35}";
type = Stem;
}
);
layerId = "466AD7DC-B026-4005-940F-6404FDF7EB07";
paths = (
{
closed = 1;
nodes = (
"621 -53 OFFCURVE",
"713 55 OFFCURVE",
"782 156 CURVE",
"776 127 OFFCURVE",
"772 98 OFFCURVE",
"772 72 CURVE SMOOTH",
"772 22 OFFCURVE",
"786 -15 OFFCURVE",
"831 -26 CURVE SMOOTH",
"843 -29 OFFCURVE",
"856 -30 OFFCURVE",
"868 -30 CURVE SMOOTH",
"987 -30 OFFCURVE",
"1118 95 OFFCURVE",
"1183 247 CURVE SMOOTH",
"1198 284 OFFCURVE",
"1207 323 OFFCURVE",
"1207 356 CURVE SMOOTH",
"1207 449 OFFCURVE",
"1150 514 OFFCURVE",
"1082 514 CURVE SMOOTH",
"1068 514 OFFCURVE",
"1053 512 OFFCURVE",
"1038 505 CURVE SMOOTH",
"1016 497 OFFCURVE",
"1030 463 OFFCURVE",
"1051 471 CURVE SMOOTH",
"1059 475 OFFCURVE",
"1068 476 OFFCURVE",
"1077 476 CURVE SMOOTH",
"1121 476 OFFCURVE",
"1171 436 OFFCURVE",
"1171 359 CURVE SMOOTH",
"1171 330 OFFCURVE",
"1166 298 OFFCURVE",
"1148 259 CURVE SMOOTH",
"1084 109 OFFCURVE",
"954 0 OFFCURVE",
"875 0 CURVE SMOOTH",
"837 0 OFFCURVE",
"810 26 OFFCURVE",
"810 85 CURVE SMOOTH",
"810 133 OFFCURVE",
"830 207 OFFCURVE",
"870 300 CURVE SMOOTH",
"875 313 OFFCURVE",
"880 324 OFFCURVE",
"882 330 CURVE SMOOTH",
"890 353 OFFCURVE",
"860 364 OFFCURVE",
"849 344 CURVE SMOOTH",
"845 337 OFFCURVE",
"840 324 OFFCURVE",
"835 314 CURVE SMOOTH",
"786 220 OFFCURVE",
"636 -10 OFFCURVE",
"547 -20 CURVE",
"521 -19 OFFCURVE",
"502 -2 OFFCURVE",
"506 45 CURVE SMOOTH",
"511 96 OFFCURVE",
"540 170 OFFCURVE",
"593 256 CURVE SMOOTH",
"661 367 OFFCURVE",
"688 447 OFFCURVE",
"688 507 CURVE SMOOTH",
"688 597 OFFCURVE",
"626 633 OFFCURVE",
"554 633 CURVE SMOOTH",
"306 633 OFFCURVE",
"145 395 OFFCURVE",
"145 241 CURVE SMOOTH",
"145 166 OFFCURVE",
"183 111 OFFCURVE",
"268 111 CURVE SMOOTH",
"400 111 OFFCURVE",
"496 251 OFFCURVE",
"496 345 CURVE SMOOTH",
"496 392 OFFCURVE",
"472 426 OFFCURVE",
"418 426 CURVE SMOOTH",
"395 426 OFFCURVE",
"395 390 OFFCURVE",
"418 390 CURVE SMOOTH",
"447 390 OFFCURVE",
"459 369 OFFCURVE",
"459 343 CURVE SMOOTH",
"459 272 OFFCURVE",
"376 148 OFFCURVE",
"268 148 CURVE SMOOTH",
"209 148 OFFCURVE",
"182 187 OFFCURVE",
"182 244 CURVE SMOOTH",
"182 376 OFFCURVE",
"329 596 OFFCURVE",
"554 596 CURVE SMOOTH",
"595 596 OFFCURVE",
"651 578 OFFCURVE",
"651 505 CURVE SMOOTH",
"651 457 OFFCURVE",
"628 385 OFFCURVE",
"562 276 CURVE SMOOTH",
"507 189 OFFCURVE",
"476 109 OFFCURVE",
"471 49 CURVE SMOOTH",
"465 -12 OFFCURVE",
"487 -60 OFFCURVE",
"549 -57 CURVE SMOOTH"
);
}
);
width = 1227;
}
);
note = W;
unicode = 0057;
},
{
glyphname = X;
lastChange = "2021-09-02 07:14:54 +0000";
layers = (
{
hints = (
{
horizontal = 1;
place = "{-70, 38}";
type = Stem;
},
{
horizontal = 1;
place = "{299, 37}";
type = Stem;
},
{
horizontal = 1;
place = "{535, 36}";
type = Stem;
},
{
place = "{29, 36}";
type = Stem;
},
{
place = "{130, 149}";
type = Stem;
},
{
place = "{460, 39}";
type = Stem;
},
{
place = "{453, 37}";
type = Stem;
}
);
layerId = "466AD7DC-B026-4005-940F-6404FDF7EB07";
paths = (
{
closed = 1;
nodes = (
"29 -140 OFFCURVE",
"63 -140 OFFCURVE",
"65 -120 CURVE SMOOTH",
"73 1 OFFCURVE",
"352 211 OFFCURVE",
"462 279 CURVE SMOOTH",
"569 345 OFFCURVE",
"860 573 OFFCURVE",
"891 621 CURVE SMOOTH",
"902 639 OFFCURVE",
"870 659 OFFCURVE",
"859 640 CURVE",
"822 592 OFFCURVE",
"549 376 OFFCURVE",
"443 312 CURVE SMOOTH",
"339 247 OFFCURVE",
"30 26 OFFCURVE",
"29 -120 CURVE SMOOTH"
);
},
{
closed = 1;
nodes = (
"547 -50 OFFCURVE",
"560 -47 OFFCURVE",
"572 -41 CURVE",
"669 -3 OFFCURVE",
"726 129 OFFCURVE",
"738 159 CURVE",
"744 181 OFFCURVE",
"710 195 OFFCURVE",
"702 174 CURVE SMOOTH",
"691 141 OFFCURVE",
"638 26 OFFCURVE",
"558 -7 CURVE SMOOTH",
"535 -17 OFFCURVE",
"521 -11 OFFCURVE",
"511 9 CURVE SMOOTH",
"495 40 OFFCURVE",
"490 90 OFFCURVE",
"490 145 CURVE SMOOTH",
"490 182 OFFCURVE",
"493 225 OFFCURVE",
"495 267 CURVE SMOOTH",
"497 308 OFFCURVE",
"499 350 OFFCURVE",
"499 387 CURVE SMOOTH",
"499 430 OFFCURVE",
"497 469 OFFCURVE",
"488 497 CURVE SMOOTH",
"470 560 OFFCURVE",
"419 591 OFFCURVE",
"365 591 CURVE SMOOTH",
"271 591 OFFCURVE",
"154 509 OFFCURVE",
"133 422 CURVE SMOOTH",
"131 410 OFFCURVE",
"130 400 OFFCURVE",
"130 390 CURVE SMOOTH",
"130 340 OFFCURVE",
"165 319 OFFCURVE",
"208 319 CURVE SMOOTH",
"228 319 OFFCURVE",
"248 322 OFFCURVE",
"269 330 CURVE SMOOTH",
"289 337 OFFCURVE",
"277 371 OFFCURVE",
"256 364 CURVE SMOOTH",
"239 359 OFFCURVE",
"222 356 OFFCURVE",
"207 356 CURVE SMOOTH",
"179 356 OFFCURVE",
"158 368 OFFCURVE",
"168 415 CURVE SMOOTH",
"185 483 OFFCURVE",
"285 555 OFFCURVE",
"365 555 CURVE SMOOTH",
"405 555 OFFCURVE",
"438 535 OFFCURVE",
"453 487 CURVE",
"458 462 OFFCURVE",
"460 416 OFFCURVE",
"460 366 CURVE SMOOTH",
"460 316 OFFCURVE",
"458 259 OFFCURVE",
"456 213 CURVE SMOOTH",
"455 182 OFFCURVE",
"453 155 OFFCURVE",
"453 137 CURVE SMOOTH",
"453 83 OFFCURVE",
"459 -50 OFFCURVE",
"537 -50 CURVE SMOOTH"
);
}
);
width = 742;
}
);
note = X;
unicode = 0058;
},
{
glyphname = Y;
lastChange = "2021-09-02 07:14:54 +0000";
layers = (
{
hints = (
{
horizontal = 1;
place = "{-354, 36}";
type = Stem;
},
{
horizontal = 1;
place = "{-128, 35}";
type = Stem;
},
{
horizontal = 1;
place = "{-49, 38}";
type = Stem;
},
{
horizontal = 1;
place = "{91, 38}";
type = Stem;
},
{
horizontal = 1;
place = "{332, 32}";
type = Stem;
},
{
horizontal = 1;
place = "{591, 39}";
type = Stem;
},
{
place = "{125, 38}";
type = Stem;
},
{
place = "{417, 39}";
type = Stem;
},
{
place = "{642, 38}";
type = Stem;
},
{
place = "{184, 42}";
type = Stem;
},
{
place = "{449, 36}";
type = Stem;
},
{
place = "{809, 48}";
type = Stem;
}
);
layerId = "466AD7DC-B026-4005-940F-6404FDF7EB07";
paths = (
{
closed = 1;
nodes = (
"470 -334 OFFCURVE",
"609 -247 OFFCURVE",
"709 -107 CURVE",
"763 -104 OFFCURVE",
"872 -96 OFFCURVE",
"893 -60 CURVE SMOOTH",
"905 -37 OFFCURVE",
"879 -17 OFFCURVE",
"867 -38 CURVE SMOOTH",
"857 -57 OFFCURVE",
"799 -66 OFFCURVE",
"730 -70 CURVE",
"802 31 OFFCURVE",
"857 228 OFFCURVE",
"857 354 CURVE SMOOTH",
"857 378 OFFCURVE",
"831 382 OFFCURVE",
"821 361 CURVE SMOOTH",
"743 188 OFFCURVE",
"613 9 OFFCURVE",
"527 9 CURVE SMOOTH",
"497 9 OFFCURVE",
"480 27 OFFCURVE",
"485 77 CURVE SMOOTH",
"491 125 OFFCURVE",
"522 198 OFFCURVE",
"578 283 CURVE SMOOTH",
"651 390 OFFCURVE",
"680 473 OFFCURVE",
"680 532 CURVE SMOOTH",
"680 613 OFFCURVE",
"624 650 OFFCURVE",
"555 650 CURVE SMOOTH",
"315 650 OFFCURVE",
"125 396 OFFCURVE",
"125 237 CURVE SMOOTH",
"125 165 OFFCURVE",
"165 111 OFFCURVE",
"255 111 CURVE SMOOTH",
"381 111 OFFCURVE",
"456 221 OFFCURVE",
"456 302 CURVE SMOOTH",
"456 348 OFFCURVE",
"431 384 OFFCURVE",
"378 384 CURVE SMOOTH",
"354 384 OFFCURVE",
"353 352 OFFCURVE",
"377 352 CURVE SMOOTH",
"406 352 OFFCURVE",
"417 332 OFFCURVE",
"417 305 CURVE SMOOTH",
"417 244 OFFCURVE",
"356 149 OFFCURVE",
"255 149 CURVE SMOOTH",
"191 149 OFFCURVE",
"163 188 OFFCURVE",
"163 240 CURVE SMOOTH",
"163 375 OFFCURVE",
"340 611 OFFCURVE",
"555 611 CURVE SMOOTH",
"595 611 OFFCURVE",
"642 594 OFFCURVE",
"642 529 CURVE SMOOTH",
"642 482 OFFCURVE",
"618 410 OFFCURVE",
"546 305 CURVE SMOOTH",
"489 220 OFFCURVE",
"455 139 OFFCURVE",
"449 80 CURVE SMOOTH",
"442 22 OFFCURVE",
"466 -29 OFFCURVE",
"527 -29 CURVE SMOOTH",
"618 -29 OFFCURVE",
"732 112 OFFCURVE",
"809 248 CURVE",
"809 180 OFFCURVE",
"751 23 OFFCURVE",
"687 -73 CURVE",
"585 -78 OFFCURVE",
"489 -82 OFFCURVE",
"405 -97 CURVE SMOOTH",
"283 -119 OFFCURVE",
"184 -162 OFFCURVE",
"184 -255 CURVE SMOOTH",
"184 -301 OFFCURVE",
"232 -334 OFFCURVE",
"296 -334 CURVE SMOOTH"
);
},
{
closed = 1;
nodes = (
"242 -298 OFFCURVE",
"226 -268 OFFCURVE",
"226 -255 CURVE SMOOTH",
"226 -189 OFFCURVE",
"290 -152 OFFCURVE",
"389 -133 CURVE SMOOTH",
"485 -115 OFFCURVE",
"589 -111 OFFCURVE",
"664 -108 CURVE",
"575 -225 OFFCURVE",
"446 -298 OFFCURVE",
"296 -298 CURVE SMOOTH"
);
}
);
width = 883;
}
);
note = Y;
unicode = 0059;
},
{
glyphname = Z;
lastChange = "2021-09-02 07:14:54 +0000";
layers = (
{
hints = (
{
horizontal = 1;
place = "{-132, 36}";
type = Stem;
},
{
horizontal = 1;
place = "{1, 21}";
target = up;
type = BottomGhost;
},
{
horizontal = 1;
place = "{51, 34}";
type = Stem;
},
{
horizontal = 1;
place = "{463, 33}";
type = Stem;
},
{
horizontal = 1;
place = "{540, 34}";
type = Stem;
},
{
place = "{67, 42}";
type = Stem;
},
{
place = "{298, 41}";
type = Stem;
},
{
place = "{920, 37}";
type = Stem;
},
{
horizontal = 1;
place = "{-70, 33}";
type = Stem;
}
);
layerId = "466AD7DC-B026-4005-940F-6404FDF7EB07";
paths = (
{
closed = 1;
nodes = (
"779 -112 OFFCURVE",
"840 -89 OFFCURVE",
"872 -17 CURVE SMOOTH",
"882 5 OFFCURVE",
"851 21 OFFCURVE",
"842 1 CURVE SMOOTH",
"817 -52 OFFCURVE",
"768 -76 OFFCURVE",
"715 -76 CURVE SMOOTH",
"616 -76 OFFCURVE",
"487 -11 OFFCURVE",
"393 35 CURVE SMOOTH",
"369 47 LINE",
"428 101 OFFCURVE",
"485 167 OFFCURVE",
"530 222 CURVE SMOOTH",
"564 261 LINE SMOOTH",
"632 342 OFFCURVE",
"701 424 OFFCURVE",
"783 492 CURVE",
"810 487 OFFCURVE",
"835 483 OFFCURVE",
"858 483 CURVE SMOOTH",
"875 483 OFFCURVE",
"892 485 OFFCURVE",
"906 490 CURVE SMOOTH",
"933 502 OFFCURVE",
"957 531 OFFCURVE",
"957 555 CURVE SMOOTH",
"957 569 OFFCURVE",
"949 582 OFFCURVE",
"929 590 CURVE SMOOTH",
"887 606 OFFCURVE",
"829 576 OFFCURVE",
"770 530 CURVE",
"748 535 OFFCURVE",
"725 542 OFFCURVE",
"701 549 CURVE SMOOTH",
"627 571 OFFCURVE",
"546 595 OFFCURVE",
"472 595 CURVE SMOOTH",
"418 595 OFFCURVE",
"372 582 OFFCURVE",
"334 549 CURVE SMOOTH",
"308 526 OFFCURVE",
"298 503 OFFCURVE",
"298 479 CURVE SMOOTH",
"298 417 OFFCURVE",
"377 364 OFFCURVE",
"442 354 CURVE SMOOTH",
"465 351 OFFCURVE",
"471 387 OFFCURVE",
"448 391 CURVE SMOOTH",
"380 401 OFFCURVE",
"339 440 OFFCURVE",
"339 478 CURVE SMOOTH",
"339 493 OFFCURVE",
"345 509 OFFCURVE",
"360 522 CURVE SMOOTH",
"390 549 OFFCURVE",
"429 559 OFFCURVE",
"474 559 CURVE SMOOTH",
"538 559 OFFCURVE",
"614 538 OFFCURVE",
"684 518 CURVE SMOOTH",
"702 512 OFFCURVE",
"719 507 OFFCURVE",
"737 502 CURVE",
"655 430 OFFCURVE",
"578 337 OFFCURVE",
"549 303 CURVE SMOOTH",
"516 259 OFFCURVE",
"419 145 OFFCURVE",
"330 66 CURVE",
"316 72 LINE SMOOTH",
"260 95 OFFCURVE",
"210 105 OFFCURVE",
"174 105 CURVE SMOOTH",
"101 105 OFFCURVE",
"67 69 OFFCURVE",
"67 30 CURVE SMOOTH",
"67 -13 OFFCURVE",
"116 -58 OFFCURVE",
"203 -50 CURVE",
"246 -43 OFFCURVE",
"293 -16 OFFCURVE",
"339 21 CURVE",
"387 0 OFFCURVE",
"434 -24 OFFCURVE",
"469 -41 CURVE SMOOTH",
"496 -55 LINE SMOOTH",
"552 -84 OFFCURVE",
"637 -112 OFFCURVE",
"711 -112 CURVE SMOOTH"
);
},
{
closed = 1;
nodes = (
"133 -17 OFFCURVE",
"109 6 OFFCURVE",
"109 29 CURVE SMOOTH",
"109 50 OFFCURVE",
"131 71 OFFCURVE",
"173 71 CURVE SMOOTH",
"203 71 OFFCURVE",
"249 57 OFFCURVE",
"297 38 CURVE",
"263 12 OFFCURVE",
"233 -7 OFFCURVE",
"208 -14 CURVE SMOOTH",
"198 -16 OFFCURVE",
"186 -17 OFFCURVE",
"178 -17 CURVE SMOOTH"
);
},
{
closed = 1;
nodes = (
"846 516 OFFCURVE",
"833 517 OFFCURVE",
"819 520 CURVE SMOOTH",
"820 520 OFFCURVE",
"820 520 OFFCURVE",
"821 521 CURVE SMOOTH",
"836 533 OFFCURVE",
"905 580 OFFCURVE",
"920 551 CURVE SMOOTH",
"922 548 OFFCURVE",
"914 531 OFFCURVE",
"892 522 CURVE SMOOTH",
"883 518 OFFCURVE",
"871 516 OFFCURVE",
"858 516 CURVE SMOOTH"
);
}
);
width = 723;
}
);
note = Z;
unicode = 005A;
},
{
glyphname = A.1;
lastChange = "2021-09-02 22:45:55 +0000";
layers = (
{
hints = (
{
horizontal = 1;
place = "{-330, 37}";
type = Stem;
},
{
horizontal = 1;
place = "{-133, 32}";
type = Stem;
},
{
horizontal = 1;
place = "{-66, 35}";
type = Stem;
},
{
horizontal = 1;
place = "{296, 33}";
type = Stem;
},
{
horizontal = 1;
place = "{554, 33}";
type = Stem;
},
{
place = "{0, 37}";
type = Stem;
},
{
place = "{352, 38}";
type = Stem;
},
{
place = "{752, 37}";
type = Stem;
},
{
place = "{1445, 39}";
type = Stem;
},
{
horizontal = 1;
place = "{273, 8}";
type = Stem;
},
{
horizontal = 1;
place = "{535, 36}";
type = Stem;
},
{
place = "{19, 36}";
type = Stem;
},
{
place = "{575, 33}";
type = Stem;
}
);
layerId = "466AD7DC-B026-4005-940F-6404FDF7EB07";
paths = (
{
closed = 1;
nodes = (
"345 -109 OFFCURVE",
"291 -293 OFFCURVE",
"484 -261 CURVE SMOOTH",
"639 -235 OFFCURVE",
"792 -173 OFFCURVE",
"1085 -139 CURVE SMOOTH",
"1215 -124 OFFCURVE",
"1338 -138 OFFCURVE",
"1407 -178 CURVE SMOOTH",
"1455 -206 OFFCURVE",
"1463 -276 OFFCURVE",
"1396 -290 CURVE SMOOTH",
"1338 -302 OFFCURVE",
"1231 -275 OFFCURVE",
"1198 -245 CURVE SMOOTH",
"1181 -230 OFFCURVE",
"1171 -263 OFFCURVE",
"1188 -279 CURVE SMOOTH",
"1220 -308 OFFCURVE",
"1329 -340 OFFCURVE",
"1406 -327 CURVE SMOOTH",
"1488 -313 OFFCURVE",
"1512 -214 OFFCURVE",
"1445 -162 CURVE SMOOTH",
"1375 -107 OFFCURVE",
"1231 -91 OFFCURVE",
"1080 -107 CURVE SMOOTH",
"785 -138 OFFCURVE",
"639 -200 OFFCURVE",
"478 -227 CURVE SMOOTH",
"341 -250 OFFCURVE",
"387 -99 OFFCURVE",
"463 58 CURVE SMOOTH",
"505 146 OFFCURVE",
"563 238 OFFCURVE",
"601 273 CURVE",
"597 276 OFFCURVE",
"587 286 OFFCURVE",
"575 277 CURVE",
"579 285 OFFCURVE",
"574 291 OFFCURVE",
"573 291 CURVE",
"567 282 OFFCURVE",
"549 260 OFFCURVE",
"511 214 CURVE SMOOTH",
"434 121 OFFCURVE",
"277 -41 OFFCURVE",
"126 -31 CURVE SMOOTH",
"78 -28 OFFCURVE",
"55 2 OFFCURVE",
"55 56 CURVE SMOOTH",
"55 110 OFFCURVE",
"82 185 OFFCURVE",
"130 260 CURVE SMOOTH",
"231 418 OFFCURVE",
"413 549 OFFCURVE",
"617 535 CURVE SMOOTH",
"785 524 OFFCURVE",
"810 386 OFFCURVE",
"616 341 CURVE SMOOTH",
"499 314 OFFCURVE",
"314 335 OFFCURVE",
"208 368 CURVE SMOOTH",
"-2 435 OFFCURVE",
"-14 602 OFFCURVE",
"147 542 CURVE",
"169 531 OFFCURVE",
"183 564 OFFCURVE",
"159 571 CURVE",
"4 632 OFFCURVE",
"-41 508 OFFCURVE",
"38 428 CURVE SMOOTH",
"66 399 OFFCURVE",
"104 372 OFFCURVE",
"153 351 CURVE SMOOTH",
"273 300 OFFCURVE",
"505 280 OFFCURVE",
"625 308 CURVE SMOOTH",
"835 358 OFFCURVE",
"853 556 OFFCURVE",
"620 571 CURVE SMOOTH",
"426 583 OFFCURVE",
"262 477 OFFCURVE",
"153 351 CURVE SMOOTH",
"88 274 OFFCURVE",
"20 156 OFFCURVE",
"19 56 CURVE SMOOTH",
"19 -9 OFFCURVE",
"49 -62 OFFCURVE",
"124 -66 CURVE SMOOTH",
"297 -76 OFFCURVE",
"466 103 OFFCURVE",
"539 191 CURVE SMOOTH",
"578 237 OFFCURVE",
"597 264 OFFCURVE",
"605 273 CURVE",
"616 295 OFFCURVE",
"594 315 OFFCURVE",
"574 297 CURVE SMOOTH",
"533 258 OFFCURVE",
"476 162 OFFCURVE",
"423 53 CURVE SMOOTH"
);
}
);
width = 576;
}
);
note = A.1;
},
{
glyphname = B.1;
lastChange = "2021-09-02 22:45:55 +0000";
layers = (
{
hints = (
{
horizontal = 1;
place = "{-237, 37}";
type = Stem;
},
{
horizontal = 1;
place = "{-51, 40}";
type = Stem;
},
{
horizontal = 1;
place = "{213, 36}";
type = Stem;
},
{
horizontal = 1;
place = "{301, 38}";
type = Stem;
},
{
horizontal = 1;
place = "{556, 37}";
type = Stem;
},
{
place = "{1, 42}";
type = Stem;
},
{
place = "{215, 37}";
type = Stem;
},
{
place = "{692, 40}";
type = Stem;
},
{
place = "{764, 37}";
type = Stem;
},
{
place = "{27, 42}";
type = Stem;
}
);
layerId = "466AD7DC-B026-4005-940F-6404FDF7EB07";
paths = (
{
closed = 1;
nodes = (
"582 493 OFFCURVE",
"549 513 OFFCURVE",
"538 496 CURVE SMOOTH",
"458 378 OFFCURVE",
"350 191 OFFCURVE",
"294 89 CURVE SMOOTH",
"222 -42 OFFCURVE",
"172 -195 OFFCURVE",
"266 -229 CURVE SMOOTH",
"306 -244 OFFCURVE",
"391 -240 OFFCURVE",
"480 -196 CURVE SMOOTH",
"503 -184 OFFCURVE",
"491 -150 OFFCURVE",
"474 -159 CURVE SMOOTH",
"414 -192 OFFCURVE",
"325 -208 OFFCURVE",
"292 -197 CURVE SMOOTH",
"214 -171 OFFCURVE",
"265 -39 OFFCURVE",
"327 73 CURVE SMOOTH",
"383 175 OFFCURVE",
"496 362 OFFCURVE",
"570 474 CURVE SMOOTH"
);
},
{
closed = 1;
nodes = (
"645 95 OFFCURVE",
"417 -29 OFFCURVE",
"139 -11 CURVE SMOOTH",
"-13 -1 OFFCURVE",
"117 120 OFFCURVE",
"186 134 CURVE SMOOTH",
"209 139 OFFCURVE",
"193 166 OFFCURVE",
"170 161 CURVE SMOOTH",
"57 138 OFFCURVE",
"-65 -21 OFFCURVE",
"129 -47 CURVE SMOOTH",
"307 -72 OFFCURVE",
"648 17 OFFCURVE",
"719 155 CURVE SMOOTH",
"759 234 OFFCURVE",
"702 296 OFFCURVE",
"626 324 CURVE",
"654 333 OFFCURVE",
"683 345 OFFCURVE",
"708 361 CURVE SMOOTH",
"834 436 OFFCURVE",
"845 575 OFFCURVE",
"661 593 CURVE SMOOTH",
"565 603 OFFCURVE",
"349 582 OFFCURVE",
"196 507 CURVE SMOOTH",
"-68 377 OFFCURVE",
"-36 209 OFFCURVE",
"121 213 CURVE SMOOTH",
"161 214 OFFCURVE",
"212 229 OFFCURVE",
"270 255 CURVE SMOOTH",
"293 265 OFFCURVE",
"290 302 OFFCURVE",
"267 292 CURVE SMOOTH",
"220 271 OFFCURVE",
"172 257 OFFCURVE",
"145 252 CURVE SMOOTH",
"-12 226 OFFCURVE",
"13 373 OFFCURVE",
"212 472 CURVE SMOOTH",
"350 541 OFFCURVE",
"552 566 OFFCURVE",
"657 556 CURVE SMOOTH",
"790 542 OFFCURVE",
"797 458 OFFCURVE",
"689 393 CURVE SMOOTH",
"636 361 OFFCURVE",
"567 343 OFFCURVE",
"523 339 CURVE SMOOTH",
"497 336 OFFCURVE",
"500 299 OFFCURVE",
"526 301 CURVE SMOOTH",
"639 309 OFFCURVE",
"717 235 OFFCURVE",
"685 173 CURVE SMOOTH"
);
}
);
width = 695;
}
);
note = B.1;
},
{
glyphname = A.ss01;
lastChange = "2021-09-02 22:26:51 +0000";
layers = (
{
hints = (
{
horizontal = 1;
place = "{223, 32}";
type = Stem;
},
{
place = "{65, 32}";
type = Stem;
}
);
layerId = "466AD7DC-B026-4005-940F-6404FDF7EB07";
paths = (
{
closed = 1;
nodes = (
"674 188 OFFCURVE",
"666 221 OFFCURVE",
"640 215 CURVE SMOOTH",
"622 210 OFFCURVE",
"603 206 OFFCURVE",
"583 202 CURVE",
"628 323 OFFCURVE",
"711 544 OFFCURVE",
"711 544 CURVE",
"720 568 OFFCURVE",
"697 584 OFFCURVE",
"679 566 CURVE SMOOTH",
"310 176 LINE",
"204 173 OFFCURVE",
"98 178 OFFCURVE",
"17 192 CURVE SMOOTH",
"-3 195 OFFCURVE",
"-3 155 OFFCURVE",
"18 152 CURVE SMOOTH",
"92 142 OFFCURVE",
"181 137 OFFCURVE",
"273 138 CURVE",
"106 -39 LINE SMOOTH",
"88 -59 OFFCURVE",
"113 -90 OFFCURVE",
"132 -70 CURVE SMOOTH",
"328 139 LINE",
"395 141 OFFCURVE",
"462 146 OFFCURVE",
"523 155 CURVE",
"516 137 LINE SMOOTH",
"490 69 OFFCURVE",
"429 -128 OFFCURVE",
"493 -192 CURVE SMOOTH",
"535 -234 OFFCURVE",
"602 -212 OFFCURVE",
"625 -193 CURVE SMOOTH",
"641 -180 OFFCURVE",
"635 -149 OFFCURVE",
"614 -161 CURVE SMOOTH",
"591 -174 OFFCURVE",
"544 -189 OFFCURVE",
"520 -158 CURVE SMOOTH",
"480 -105 OFFCURVE",
"539 77 OFFCURVE",
"555 127 CURVE SMOOTH",
"568 163 LINE",
"596 168 OFFCURVE",
"623 174 OFFCURVE",
"648 181 CURVE SMOOTH"
);
},
{
closed = 1;
nodes = (
"645 478 LINE",
"645 478 OFFCURVE",
"576 293 OFFCURVE",
"538 195 CURVE",
"485 187 OFFCURVE",
"425 181 OFFCURVE",
"365 178 CURVE"
);
}
);
width = 628;
}
);
note = A;
},
{
color = 11;
glyphname = Aacute.ss01;
lastChange = "2021-09-02 22:26:51 +0000";
layers = (
{
hints = (
{
horizontal = 1;
place = "{223, 32}";
type = Stem;
},
{
place = "{65, 32}";
type = Stem;
}
);
layerId = "466AD7DC-B026-4005-940F-6404FDF7EB07";
paths = (
{
closed = 1;
nodes = (
"674 188 OFFCURVE",
"666 221 OFFCURVE",
"640 215 CURVE SMOOTH",
"622 210 OFFCURVE",
"603 206 OFFCURVE",
"583 202 CURVE",
"628 323 OFFCURVE",
"711 544 OFFCURVE",
"711 544 CURVE",
"720 568 OFFCURVE",
"697 584 OFFCURVE",
"679 566 CURVE SMOOTH",
"310 176 LINE",
"204 173 OFFCURVE",
"98 178 OFFCURVE",
"17 192 CURVE SMOOTH",
"-3 195 OFFCURVE",
"-3 155 OFFCURVE",
"18 152 CURVE SMOOTH",
"92 142 OFFCURVE",
"181 137 OFFCURVE",
"273 138 CURVE",
"106 -39 LINE SMOOTH",
"88 -59 OFFCURVE",
"113 -90 OFFCURVE",
"132 -70 CURVE SMOOTH",
"328 139 LINE",
"395 141 OFFCURVE",
"462 146 OFFCURVE",
"523 155 CURVE",
"516 137 LINE SMOOTH",
"490 69 OFFCURVE",
"429 -128 OFFCURVE",
"493 -192 CURVE SMOOTH",
"535 -234 OFFCURVE",
"602 -212 OFFCURVE",
"625 -193 CURVE SMOOTH",
"641 -180 OFFCURVE",
"635 -149 OFFCURVE",
"614 -161 CURVE SMOOTH",
"591 -174 OFFCURVE",
"544 -189 OFFCURVE",
"520 -158 CURVE SMOOTH",
"480 -105 OFFCURVE",
"539 77 OFFCURVE",
"555 127 CURVE SMOOTH",
"568 163 LINE",
"596 168 OFFCURVE",
"623 174 OFFCURVE",
"648 181 CURVE SMOOTH"
);
},
{
closed = 1;
nodes = (
"645 478 LINE",
"645 478 OFFCURVE",
"576 293 OFFCURVE",
"538 195 CURVE",
"485 187 OFFCURVE",
"425 181 OFFCURVE",
"365 178 CURVE"
);
},
{
closed = 1;
nodes = (
"624 642 OFFCURVE",
"637 612 OFFCURVE",
"670 627 CURVE SMOOTH",
"788 677 LINE SMOOTH",
"811 687 OFFCURVE",
"800 730 OFFCURVE",
"772 715 CURVE SMOOTH",
"769 713 OFFCURVE",
"653 657 OFFCURVE",
"653 657 CURVE"
);
}
);
width = 628;
}
);
note = Aacute;
},
{
color = 11;
glyphname = Abreve.ss01;
lastChange = "2021-09-02 22:55:02 +0000";
layers = (
{
hints = (
{
horizontal = 1;
place = "{223, 32}";
type = Stem;
},
{
place = "{65, 32}";
type = Stem;
}
);
layerId = "466AD7DC-B026-4005-940F-6404FDF7EB07";
paths = (
{
closed = 1;
nodes = (
"674 188 OFFCURVE",
"666 221 OFFCURVE",
"640 215 CURVE SMOOTH",
"622 210 OFFCURVE",
"603 206 OFFCURVE",
"583 202 CURVE",
"711 544 LINE SMOOTH",
"720 568 OFFCURVE",
"697 584 OFFCURVE",
"679 566 CURVE SMOOTH",
"310 176 LINE",
"204 173 OFFCURVE",
"98 178 OFFCURVE",
"17 192 CURVE SMOOTH",
"-3 195 OFFCURVE",
"-3 155 OFFCURVE",
"18 152 CURVE SMOOTH",
"92 142 OFFCURVE",
"181 137 OFFCURVE",
"273 138 CURVE",
"106 -39 LINE SMOOTH",
"88 -59 OFFCURVE",
"113 -90 OFFCURVE",
"132 -70 CURVE SMOOTH",
"328 139 LINE",
"395 141 OFFCURVE",
"462 146 OFFCURVE",
"523 155 CURVE",
"516 137 LINE SMOOTH",
"490 69 OFFCURVE",
"429 -128 OFFCURVE",
"493 -192 CURVE SMOOTH",
"535 -234 OFFCURVE",
"602 -212 OFFCURVE",
"625 -193 CURVE SMOOTH",
"641 -180 OFFCURVE",
"635 -149 OFFCURVE",
"614 -161 CURVE SMOOTH",
"591 -174 OFFCURVE",
"544 -189 OFFCURVE",
"520 -158 CURVE SMOOTH",
"480 -105 OFFCURVE",
"539 77 OFFCURVE",
"555 127 CURVE SMOOTH",
"568 163 LINE",
"596 168 OFFCURVE",
"623 174 OFFCURVE",
"648 181 CURVE SMOOTH"
);
},
{
closed = 1;
nodes = (
"645 478 LINE",
"645 478 OFFCURVE",
"576 293 OFFCURVE",
"538 195 CURVE",
"485 187 OFFCURVE",
"425 181 OFFCURVE",
"365 178 CURVE"
);
},
{
closed = 1;
nodes = (
"677 717 OFFCURVE",
"642 730 OFFCURVE",
"635 711 CURVE SMOOTH",
"631 700 OFFCURVE",
"629 691 OFFCURVE",
"629 681 CURVE SMOOTH",
"629 637 OFFCURVE",
"671 611 OFFCURVE",
"703 610 CURVE SMOOTH",
"764 606 OFFCURVE",
"805 627 OFFCURVE",
"853 697 CURVE SMOOTH",
"864 714 OFFCURVE",
"835 736 OFFCURVE",
"823 719 CURVE SMOOTH",
"780 657 OFFCURVE",
"751 644 OFFCURVE",
"705 646 CURVE SMOOTH",
"680 648 OFFCURVE",
"658 667 OFFCURVE",
"670 698 CURVE SMOOTH"
);
}
);
width = 628;
}
);
note = Abreve;
},
{
color = 11;
glyphname = Acircumflex.ss01;
lastChange = "2021-09-02 22:55:02 +0000";
layers = (
{
hints = (
{
horizontal = 1;
place = "{223, 32}";
type = Stem;
},
{
place = "{65, 32}";
type = Stem;
},
{
place = "{643, 347}";
type = Stem;
}
);
layerId = "466AD7DC-B026-4005-940F-6404FDF7EB07";
paths = (
{
closed = 1;
nodes = (
"674 188 OFFCURVE",
"666 221 OFFCURVE",
"640 215 CURVE SMOOTH",
"622 210 OFFCURVE",
"603 206 OFFCURVE",
"583 202 CURVE",
"711 544 LINE SMOOTH",
"720 568 OFFCURVE",
"697 584 OFFCURVE",
"679 566 CURVE SMOOTH",
"310 176 LINE",
"204 173 OFFCURVE",
"98 178 OFFCURVE",
"17 192 CURVE SMOOTH",
"-3 195 OFFCURVE",
"-3 155 OFFCURVE",
"18 152 CURVE SMOOTH",
"92 142 OFFCURVE",
"181 137 OFFCURVE",
"273 138 CURVE",
"106 -39 LINE SMOOTH",
"88 -59 OFFCURVE",
"113 -90 OFFCURVE",
"132 -70 CURVE SMOOTH",
"328 139 LINE",
"395 141 OFFCURVE",
"462 146 OFFCURVE",
"523 155 CURVE",
"516 137 LINE SMOOTH",
"490 69 OFFCURVE",
"429 -128 OFFCURVE",
"493 -192 CURVE SMOOTH",
"535 -234 OFFCURVE",
"602 -212 OFFCURVE",
"625 -193 CURVE SMOOTH",
"641 -180 OFFCURVE",
"635 -149 OFFCURVE",
"614 -161 CURVE SMOOTH",
"591 -174 OFFCURVE",
"544 -189 OFFCURVE",
"520 -158 CURVE SMOOTH",
"480 -105 OFFCURVE",
"539 77 OFFCURVE",
"555 127 CURVE SMOOTH",
"568 163 LINE",
"596 168 OFFCURVE",
"623 174 OFFCURVE",
"648 181 CURVE SMOOTH"
);
},
{
closed = 1;
nodes = (
"645 478 LINE",
"645 478 OFFCURVE",
"576 293 OFFCURVE",
"538 195 CURVE",
"485 187 OFFCURVE",
"425 181 OFFCURVE",
"365 178 CURVE"
);
},
{
closed = 1;
nodes = (
"575 615 LINE",
"554 599 OFFCURVE",
"589 581 OFFCURVE",
"611 599 CURVE",
"758 692 LINE",
"767 600 LINE",
"767 577 OFFCURVE",
"807 580 OFFCURVE",
"806 613 CURVE SMOOTH",
"798 714 LINE SMOOTH",
"797 736 OFFCURVE",
"760 739 OFFCURVE",
"742 725 CURVE"
);
}
);
width = 628;
}
);
note = Acircumflex;
},
{
color = 11;
glyphname = Adieresis.ss01;
lastChange = "2021-09-02 22:55:02 +0000";
layers = (
{
hints = (
{
horizontal = 1;
place = "{223, 32}";
type = Stem;
},
{
horizontal = 1;
place = "{243, 52}";
type = Stem;
},
{
place = "{65, 32}";
type = Stem;
},
{
place = "{601, 52}";
type = Stem;
}
);
layerId = "466AD7DC-B026-4005-940F-6404FDF7EB07";
paths = (
{
closed = 1;
nodes = (
"674 188 OFFCURVE",
"666 221 OFFCURVE",
"640 215 CURVE SMOOTH",
"622 210 OFFCURVE",
"603 206 OFFCURVE",
"583 202 CURVE",
"711 544 LINE SMOOTH",
"720 568 OFFCURVE",
"697 584 OFFCURVE",
"679 566 CURVE SMOOTH",
"310 176 LINE",
"204 173 OFFCURVE",
"98 178 OFFCURVE",
"17 192 CURVE SMOOTH",
"-3 195 OFFCURVE",
"-3 155 OFFCURVE",
"18 152 CURVE SMOOTH",
"92 142 OFFCURVE",
"181 137 OFFCURVE",
"273 138 CURVE",
"106 -39 LINE SMOOTH",
"88 -59 OFFCURVE",
"113 -90 OFFCURVE",
"132 -70 CURVE SMOOTH",
"328 139 LINE",
"395 141 OFFCURVE",
"462 146 OFFCURVE",
"523 155 CURVE",
"516 137 LINE SMOOTH",
"490 69 OFFCURVE",
"429 -128 OFFCURVE",
"493 -192 CURVE SMOOTH",
"535 -234 OFFCURVE",
"602 -212 OFFCURVE",
"625 -193 CURVE SMOOTH",
"641 -180 OFFCURVE",
"635 -149 OFFCURVE",
"614 -161 CURVE SMOOTH",
"591 -174 OFFCURVE",
"544 -189 OFFCURVE",
"520 -158 CURVE SMOOTH",
"480 -105 OFFCURVE",
"539 77 OFFCURVE",
"555 127 CURVE SMOOTH",
"568 163 LINE",
"596 168 OFFCURVE",
"623 174 OFFCURVE",
"648 181 CURVE SMOOTH"
);
},
{
closed = 1;
nodes = (
"645 478 LINE",
"645 478 OFFCURVE",
"576 293 OFFCURVE",
"538 195 CURVE",
"485 187 OFFCURVE",
"425 181 OFFCURVE",
"365 178 CURVE"
);
},
{
closed = 1;
nodes = (
"683 627 OFFCURVE",
"694 640 OFFCURVE",
"694 655 CURVE SMOOTH",
"694 671 OFFCURVE",
"683 682 OFFCURVE",
"667 682 CURVE SMOOTH",
"651 682 OFFCURVE",
"639 671 OFFCURVE",
"639 655 CURVE SMOOTH",
"639 640 OFFCURVE",
"651 627 OFFCURVE",
"667 627 CURVE SMOOTH"
);
},
{
closed = 1;
nodes = (
"799 627 OFFCURVE",
"810 640 OFFCURVE",
"810 655 CURVE SMOOTH",
"810 671 OFFCURVE",
"799 682 OFFCURVE",
"783 682 CURVE SMOOTH",
"767 682 OFFCURVE",
"755 671 OFFCURVE",
"755 655 CURVE SMOOTH",
"755 640 OFFCURVE",
"767 627 OFFCURVE",
"783 627 CURVE SMOOTH"
);
}
);
width = 628;
}
);
note = Adieresis;
},
{
color = 11;
glyphname = Agrave.ss01;
lastChange = "2021-09-02 22:55:02 +0000";
layers = (
{
hints = (
{
horizontal = 1;
place = "{223, 32}";
type = Stem;
},
{
place = "{65, 32}";
type = Stem;
}
);
layerId = "466AD7DC-B026-4005-940F-6404FDF7EB07";
paths = (
{
closed = 1;
nodes = (
"674 188 OFFCURVE",
"666 221 OFFCURVE",
"640 215 CURVE SMOOTH",
"622 210 OFFCURVE",
"603 206 OFFCURVE",
"583 202 CURVE",
"711 544 LINE SMOOTH",
"720 568 OFFCURVE",
"697 584 OFFCURVE",
"679 566 CURVE SMOOTH",
"310 176 LINE",
"204 173 OFFCURVE",
"98 178 OFFCURVE",
"17 192 CURVE SMOOTH",
"-3 195 OFFCURVE",
"-3 155 OFFCURVE",
"18 152 CURVE SMOOTH",
"92 142 OFFCURVE",
"181 137 OFFCURVE",
"273 138 CURVE",
"106 -39 LINE SMOOTH",
"88 -59 OFFCURVE",
"113 -90 OFFCURVE",
"132 -70 CURVE SMOOTH",
"328 139 LINE",
"395 141 OFFCURVE",
"462 146 OFFCURVE",
"523 155 CURVE",
"516 137 LINE SMOOTH",
"490 69 OFFCURVE",
"429 -128 OFFCURVE",
"493 -192 CURVE SMOOTH",
"535 -234 OFFCURVE",
"602 -212 OFFCURVE",
"625 -193 CURVE SMOOTH",
"641 -180 OFFCURVE",
"635 -149 OFFCURVE",
"614 -161 CURVE SMOOTH",
"591 -174 OFFCURVE",
"544 -189 OFFCURVE",
"520 -158 CURVE SMOOTH",
"480 -105 OFFCURVE",
"539 77 OFFCURVE",
"555 127 CURVE SMOOTH",
"568 163 LINE",
"596 168 OFFCURVE",
"623 174 OFFCURVE",
"648 181 CURVE SMOOTH"
);
},
{
closed = 1;
nodes = (
"645 478 LINE",
"645 478 OFFCURVE",
"576 293 OFFCURVE",
"538 195 CURVE",
"485 187 OFFCURVE",
"425 181 OFFCURVE",
"365 178 CURVE"
);
},
{
closed = 1;
nodes = (
"754 671 OFFCURVE",
"650 724 OFFCURVE",
"647 726 CURVE SMOOTH",
"619 741 OFFCURVE",
"608 698 OFFCURVE",
"631 688 CURVE SMOOTH",
"737 641 LINE SMOOTH",
"770 626 OFFCURVE",
"783 656 OFFCURVE",
"754 671 CURVE"
);
}
);
width = 628;
}
);
note = Agrave;
},
{
color = 11;
glyphname = Amacron.ss01;
lastChange = "2021-09-02 22:55:02 +0000";
layers = (
{
hints = (
{
horizontal = 1;
place = "{223, 32}";
type = Stem;
},
{
horizontal = 1;
place = "{257, 32}";
type = Stem;
},
{
place = "{65, 32}";
type = Stem;
}
);
layerId = "466AD7DC-B026-4005-940F-6404FDF7EB07";
paths = (
{
closed = 1;
nodes = (
"674 188 OFFCURVE",
"666 221 OFFCURVE",
"640 215 CURVE SMOOTH",
"622 210 OFFCURVE",
"603 206 OFFCURVE",
"583 202 CURVE",
"711 544 LINE SMOOTH",
"720 568 OFFCURVE",
"697 584 OFFCURVE",
"679 566 CURVE SMOOTH",
"310 176 LINE",
"204 173 OFFCURVE",
"98 178 OFFCURVE",
"17 192 CURVE SMOOTH",
"-3 195 OFFCURVE",
"-3 155 OFFCURVE",
"18 152 CURVE SMOOTH",
"92 142 OFFCURVE",
"181 137 OFFCURVE",
"273 138 CURVE",
"106 -39 LINE SMOOTH",
"88 -59 OFFCURVE",
"113 -90 OFFCURVE",
"132 -70 CURVE SMOOTH",
"328 139 LINE",
"395 141 OFFCURVE",
"462 146 OFFCURVE",
"523 155 CURVE",
"516 137 LINE SMOOTH",
"490 69 OFFCURVE",
"429 -128 OFFCURVE",
"493 -192 CURVE SMOOTH",
"535 -234 OFFCURVE",
"602 -212 OFFCURVE",
"625 -193 CURVE SMOOTH",
"641 -180 OFFCURVE",
"635 -149 OFFCURVE",
"614 -161 CURVE SMOOTH",
"591 -174 OFFCURVE",
"544 -189 OFFCURVE",
"520 -158 CURVE SMOOTH",
"480 -105 OFFCURVE",
"539 77 OFFCURVE",
"555 127 CURVE SMOOTH",
"568 163 LINE",
"596 168 OFFCURVE",
"623 174 OFFCURVE",
"648 181 CURVE SMOOTH"
);
},
{
closed = 1;
nodes = (
"645 478 LINE",
"645 478 OFFCURVE",
"576 293 OFFCURVE",
"538 195 CURVE",
"485 187 OFFCURVE",
"425 181 OFFCURVE",
"365 178 CURVE"
);
},
{
closed = 1;
nodes = (
"658 666 LINE SMOOTH",
"633 666 OFFCURVE",
"633 628 OFFCURVE",
"658 628 CURVE SMOOTH",
"812 628 LINE SMOOTH",
"837 628 OFFCURVE",
"837 666 OFFCURVE",
"812 666 CURVE SMOOTH"
);
}
);
width = 628;
}
);
note = Amacron;
},
{
color = 11;
glyphname = Aogonek.ss01;
lastChange = "2021-09-02 22:26:51 +0000";
layers = (
{
hints = (
{
horizontal = 1;
place = "{-203, 32}";
type = Stem;
},
{
horizontal = 1;
place = "{124, 19}";
type = Stem;
},
{
horizontal = 1;
place = "{223, 32}";
type = Stem;
},
{
place = "{65, 32}";
type = Stem;
},
{
place = "{768, 32}";
type = Stem;
}
);
layerId = "466AD7DC-B026-4005-940F-6404FDF7EB07";
paths = (
{
closed = 1;
nodes = (
"674 188 OFFCURVE",
"666 221 OFFCURVE",
"640 215 CURVE SMOOTH",
"622 210 OFFCURVE",
"603 206 OFFCURVE",
"583 202 CURVE",
"628 323 OFFCURVE",
"711 544 OFFCURVE",
"711 544 CURVE",
"720 568 OFFCURVE",
"697 584 OFFCURVE",
"679 566 CURVE SMOOTH",
"310 176 LINE",
"204 173 OFFCURVE",
"98 178 OFFCURVE",
"17 192 CURVE SMOOTH",
"-3 195 OFFCURVE",
"-3 155 OFFCURVE",
"18 152 CURVE SMOOTH",
"92 142 OFFCURVE",
"181 137 OFFCURVE",
"273 138 CURVE",
"106 -39 LINE SMOOTH",
"88 -59 OFFCURVE",
"113 -90 OFFCURVE",
"132 -70 CURVE SMOOTH",
"328 139 LINE",
"395 141 OFFCURVE",
"462 146 OFFCURVE",
"523 155 CURVE",
"516 137 LINE SMOOTH",
"492 74 OFFCURVE",
"438 -98 OFFCURVE",
"480 -175 CURVE",
"475 -176 OFFCURVE",
"471 -177 OFFCURVE",
"468 -180 CURVE",
"439 -200 OFFCURVE",
"381 -270 OFFCURVE",
"368 -327 CURVE SMOOTH",
"358 -367 OFFCURVE",
"378 -384 OFFCURVE",
"404 -388 CURVE SMOOTH",
"456 -396 OFFCURVE",
"513 -361 OFFCURVE",
"565 -324 CURVE SMOOTH",
"585 -309 OFFCURVE",
"582 -274 OFFCURVE",
"563 -289 CURVE SMOOTH",
"543 -304 OFFCURVE",
"475 -358 OFFCURVE",
"430 -351 CURVE SMOOTH",
"372 -342 OFFCURVE",
"464 -222 OFFCURVE",
"499 -197 CURVE",
"541 -232 OFFCURVE",
"603 -211 OFFCURVE",
"625 -193 CURVE SMOOTH",
"641 -180 OFFCURVE",
"635 -149 OFFCURVE",
"614 -161 CURVE SMOOTH",
"591 -174 OFFCURVE",
"544 -189 OFFCURVE",
"520 -158 CURVE SMOOTH",
"480 -105 OFFCURVE",
"539 77 OFFCURVE",
"555 127 CURVE SMOOTH",
"568 163 LINE",
"596 168 OFFCURVE",
"623 174 OFFCURVE",
"648 181 CURVE SMOOTH"
);
},
{
closed = 1;
nodes = (
"645 478 LINE",
"645 478 OFFCURVE",
"576 293 OFFCURVE",
"538 195 CURVE",
"485 187 OFFCURVE",
"425 181 OFFCURVE",
"365 178 CURVE"
);
}
);
width = 628;
}
);
note = Aogonek;
},
{
color = 11;
glyphname = Aring.ss01;
lastChange = "2021-09-02 22:55:02 +0000";
layers = (
{
hints = (
{
horizontal = 1;
place = "{223, 32}";
type = Stem;
},
{
place = "{65, 32}";
type = Stem;
}
);
layerId = "466AD7DC-B026-4005-940F-6404FDF7EB07";
paths = (
{
closed = 1;
nodes = (
"674 188 OFFCURVE",
"666 221 OFFCURVE",
"640 215 CURVE SMOOTH",
"622 210 OFFCURVE",
"603 206 OFFCURVE",
"583 202 CURVE",
"711 544 LINE SMOOTH",
"720 568 OFFCURVE",
"697 584 OFFCURVE",
"679 566 CURVE SMOOTH",
"310 176 LINE",
"204 173 OFFCURVE",
"98 178 OFFCURVE",
"17 192 CURVE SMOOTH",
"-3 195 OFFCURVE",
"-3 155 OFFCURVE",
"18 152 CURVE SMOOTH",
"92 142 OFFCURVE",
"181 137 OFFCURVE",
"273 138 CURVE",
"106 -39 LINE SMOOTH",
"88 -59 OFFCURVE",
"113 -90 OFFCURVE",
"132 -70 CURVE SMOOTH",
"328 139 LINE",
"395 141 OFFCURVE",
"462 146 OFFCURVE",
"523 155 CURVE",
"516 137 LINE SMOOTH",
"490 69 OFFCURVE",
"429 -128 OFFCURVE",
"493 -192 CURVE SMOOTH",
"535 -234 OFFCURVE",
"602 -212 OFFCURVE",
"625 -193 CURVE SMOOTH",
"641 -180 OFFCURVE",
"635 -149 OFFCURVE",
"614 -161 CURVE SMOOTH",
"591 -174 OFFCURVE",
"544 -189 OFFCURVE",
"520 -158 CURVE SMOOTH",
"480 -105 OFFCURVE",
"539 77 OFFCURVE",
"555 127 CURVE SMOOTH",
"568 163 LINE",
"596 168 OFFCURVE",
"623 174 OFFCURVE",
"648 181 CURVE SMOOTH"
);
},
{
closed = 1;
nodes = (
"645 478 LINE",
"645 478 OFFCURVE",
"576 293 OFFCURVE",
"538 195 CURVE",
"485 187 OFFCURVE",
"425 181 OFFCURVE",
"365 178 CURVE"
);
},
{
closed = 1;
nodes = (
"763 605 OFFCURVE",
"799 638 OFFCURVE",
"808 675 CURVE SMOOTH",
"818 715 OFFCURVE",
"797 742 OFFCURVE",
"758 742 CURVE SMOOTH",
"718 742 OFFCURVE",
"681 715 OFFCURVE",
"671 675 CURVE SMOOTH",
"662 638 OFFCURVE",
"684 605 OFFCURVE",
"724 605 CURVE SMOOTH"
);
},
{
closed = 1;
nodes = (
"712 641 OFFCURVE",
"703 657 OFFCURVE",
"707 675 CURVE SMOOTH",
"712 695 OFFCURVE",
"730 708 OFFCURVE",
"750 708 CURVE SMOOTH",
"770 708 OFFCURVE",
"779 695 OFFCURVE",
"774 675 CURVE SMOOTH",
"770 657 OFFCURVE",
"752 641 OFFCURVE",
"732 641 CURVE SMOOTH"
);
}
);
width = 628;
}
);
note = Aring;
},
{
color = 11;
glyphname = Atilde.ss01;
lastChange = "2021-09-02 22:26:51 +0000";
layers = (
{
hints = (
{
horizontal = 1;
place = "{223, 32}";
type = Stem;
},
{
place = "{65, 32}";
type = Stem;
}
);
layerId = "466AD7DC-B026-4005-940F-6404FDF7EB07";
paths = (
{
closed = 1;
nodes = (
"674 188 OFFCURVE",
"666 221 OFFCURVE",
"640 215 CURVE SMOOTH",
"622 210 OFFCURVE",
"603 206 OFFCURVE",
"583 202 CURVE",
"628 323 OFFCURVE",
"711 544 OFFCURVE",
"711 544 CURVE",
"720 568 OFFCURVE",
"697 584 OFFCURVE",
"679 566 CURVE SMOOTH",
"310 176 LINE",
"204 173 OFFCURVE",
"98 178 OFFCURVE",
"17 192 CURVE SMOOTH",
"-3 195 OFFCURVE",
"-3 155 OFFCURVE",
"18 152 CURVE SMOOTH",
"92 142 OFFCURVE",
"181 137 OFFCURVE",
"273 138 CURVE",
"106 -39 LINE SMOOTH",
"88 -59 OFFCURVE",
"113 -90 OFFCURVE",
"132 -70 CURVE SMOOTH",
"328 139 LINE",
"395 141 OFFCURVE",
"462 146 OFFCURVE",
"523 155 CURVE",
"516 137 LINE SMOOTH",
"490 69 OFFCURVE",
"429 -128 OFFCURVE",
"493 -192 CURVE SMOOTH",
"535 -234 OFFCURVE",
"602 -212 OFFCURVE",
"625 -193 CURVE SMOOTH",
"641 -180 OFFCURVE",
"635 -149 OFFCURVE",
"614 -161 CURVE SMOOTH",
"591 -174 OFFCURVE",
"544 -189 OFFCURVE",
"520 -158 CURVE SMOOTH",
"480 -105 OFFCURVE",
"539 77 OFFCURVE",
"555 127 CURVE SMOOTH",
"568 163 LINE",
"596 168 OFFCURVE",
"623 174 OFFCURVE",
"648 181 CURVE SMOOTH"
);
},
{
closed = 1;
nodes = (
"645 478 LINE",
"645 478 OFFCURVE",
"576 293 OFFCURVE",
"538 195 CURVE",
"485 187 OFFCURVE",
"425 181 OFFCURVE",
"365 178 CURVE"
);
},
{
closed = 1;
nodes = (
"868 676 OFFCURVE",
"842 694 OFFCURVE",
"826 676 CURVE SMOOTH",
"812 659 OFFCURVE",
"800 650 OFFCURVE",
"780 650 CURVE SMOOTH",
"769 650 OFFCURVE",
"764 658 OFFCURVE",
"757 668 CURVE SMOOTH",
"749 681 OFFCURVE",
"738 695 OFFCURVE",
"714 695 CURVE SMOOTH",
"676 695 OFFCURVE",
"647 673 OFFCURVE",
"614 640 CURVE SMOOTH",
"596 623 OFFCURVE",
"616 601 OFFCURVE",
"634 618 CURVE SMOOTH",
"659 643 OFFCURVE",
"678 657 OFFCURVE",
"705 658 CURVE",
"716 660 OFFCURVE",
"722 651 OFFCURVE",
"728 642 CURVE SMOOTH",
"736 630 OFFCURVE",
"747 614 OFFCURVE",
"770 613 CURVE SMOOTH",
"802 612 OFFCURVE",
"832 631 OFFCURVE",
"854 658 CURVE SMOOTH"
);
}
);
width = 628;
}
);
note = Atilde;
},
{
glyphname = AE.ss01;
lastChange = "2021-09-02 22:26:51 +0000";
layers = (
{
hints = (
{
horizontal = 1;
place = "{240, 52}";
type = Stem;
},
{
horizontal = 1;
place = "{526, 19}";
type = Stem;
},
{
place = "{5, 613}";
type = Stem;
}
);
layerId = "466AD7DC-B026-4005-940F-6404FDF7EB07";
paths = (
{
closed = 1;
nodes = (
"874 360 OFFCURVE",
"881 343 OFFCURVE",
"907 347 CURVE SMOOTH",
"940 353 OFFCURVE",
"989 403 OFFCURVE",
"984 458 CURVE SMOOTH",
"977 525 OFFCURVE",
"923 551 OFFCURVE",
"861 551 CURVE SMOOTH",
"770 551 OFFCURVE",
"584 478 OFFCURVE",
"596 347 CURVE SMOOTH",
"599 313 OFFCURVE",
"617 290 OFFCURVE",
"641 274 CURVE",
"617 268 OFFCURVE",
"590 260 OFFCURVE",
"563 250 CURVE SMOOTH",
"549 245 OFFCURVE",
"536 239 OFFCURVE",
"522 232 CURVE",
"520 233 OFFCURVE",
"517 234 OFFCURVE",
"515 234 CURVE SMOOTH",
"503 234 LINE",
"616 543 LINE SMOOTH",
"624 567 OFFCURVE",
"602 583 OFFCURVE",
"584 565 CURVE SMOOTH",
"260 222 LINE",
"189 216 OFFCURVE",
"118 207 OFFCURVE",
"55 196 CURVE SMOOTH",
"29 191 OFFCURVE",
"36 158 OFFCURVE",
"62 162 CURVE SMOOTH",
"109 170 OFFCURVE",
"164 177 OFFCURVE",
"222 182 CURVE",
"12 -40 LINE SMOOTH",
"-6 -59 OFFCURVE",
"19 -90 OFFCURVE",
"38 -70 CURVE SMOOTH",
"278 186 LINE",
"344 191 OFFCURVE",
"408 195 OFFCURVE",
"461 196 CURVE",
"418 165 OFFCURVE",
"387 123 OFFCURVE",
"392 72 CURVE SMOOTH",
"400 -19 OFFCURVE",
"489 -57 OFFCURVE",
"592 -55 CURVE SMOOTH",
"716 -52 OFFCURVE",
"862 9 OFFCURVE",
"918 92 CURVE SMOOTH",
"931 112 OFFCURVE",
"908 135 OFFCURVE",
"894 115 CURVE SMOOTH",
"807 -17 OFFCURVE",
"444 -75 OFFCURVE",
"431 72 CURVE SMOOTH",
"425 132 OFFCURVE",
"493 180 OFFCURVE",
"581 215 CURVE SMOOTH",
"625 232 OFFCURVE",
"670 244 OFFCURVE",
"703 252 CURVE",
"721 248 OFFCURVE",
"740 247 OFFCURVE",
"756 247 CURVE SMOOTH",
"811 247 OFFCURVE",
"792 292 OFFCURVE",
"747 292 CURVE SMOOTH",
"742 292 OFFCURVE",
"726 291 OFFCURVE",
"704 287 CURVE",
"671 296 OFFCURVE",
"639 315 OFFCURVE",
"636 347 CURVE SMOOTH",
"627 440 OFFCURVE",
"774 511 OFFCURVE",
"865 511 CURVE SMOOTH",
"904 511 OFFCURVE",
"940 501 OFFCURVE",
"944 458 CURVE SMOOTH",
"947 423 OFFCURVE",
"913 386 OFFCURVE",
"895 374 CURVE SMOOTH"
);
},
{
closed = 1;
nodes = (
"551 477 LINE",
"461 233 LINE",
"418 232 OFFCURVE",
"368 230 OFFCURVE",
"316 226 CURVE"
);
}
);
width = 906;
}
);
note = AE;
},
{
glyphname = B.ss01;
lastChange = "2021-09-02 22:26:51 +0000";
layers = (
{
hints = (
{
horizontal = 1;
place = "{-116, 32}";
type = Stem;
},
{
horizontal = 1;
place = "{151, 32}";
type = Stem;
},
{
horizontal = 1;
place = "{269, 32}";
type = Stem;
},
{
place = "{782, 32}";
type = Stem;
},
{
place = "{972, 32}";
type = Stem;
}
);
layerId = "466AD7DC-B026-4005-940F-6404FDF7EB07";
paths = (
{
closed = 1;
nodes = (
"803 492 OFFCURVE",
"747 542 OFFCURVE",
"651 553 CURVE SMOOTH",
"468 574 OFFCURVE",
"133 502 OFFCURVE",
"43 315 CURVE SMOOTH",
"9 244 OFFCURVE",
"42 190 OFFCURVE",
"118 187 CURVE SMOOTH",
"152 186 OFFCURVE",
"195 194 OFFCURVE",
"240 214 CURVE SMOOTH",
"269 228 OFFCURVE",
"267 261 OFFCURVE",
"239 245 CURVE SMOOTH",
"216 231 OFFCURVE",
"162 213 OFFCURVE",
"121 216 CURVE SMOOTH",
"69 219 OFFCURVE",
"56 264 OFFCURVE",
"79 308 CURVE SMOOTH",
"161 462 OFFCURVE",
"469 541 OFFCURVE",
"623 524 CURVE SMOOTH",
"734 511 OFFCURVE",
"756 466 OFFCURVE",
"744 421 CURVE SMOOTH",
"736 389 OFFCURVE",
"685 335 OFFCURVE",
"584 313 CURVE SMOOTH",
"561 308 OFFCURVE",
"534 303 OFFCURVE",
"504 302 CURVE SMOOTH",
"486 301 OFFCURVE",
"479 270 OFFCURVE",
"501 270 CURVE SMOOTH",
"539 270 OFFCURVE",
"576 269 OFFCURVE",
"599 262 CURVE SMOOTH",
"669 240 OFFCURVE",
"691 195 OFFCURVE",
"685 154 CURVE",
"639 158 OFFCURVE",
"580 158 OFFCURVE",
"518 147 CURVE SMOOTH",
"499 143 OFFCURVE",
"400 125 OFFCURVE",
"323 93 CURVE SMOOTH",
"258 66 OFFCURVE",
"181 -24 OFFCURVE",
"270 -42 CURVE SMOOTH",
"391 -66 OFFCURVE",
"659 -2 OFFCURVE",
"718 122 CURVE",
"734 120 OFFCURVE",
"750 117 OFFCURVE",
"765 113 CURVE SMOOTH",
"787 107 OFFCURVE",
"785 136 OFFCURVE",
"762 142 CURVE SMOOTH",
"754 144 OFFCURVE",
"742 147 OFFCURVE",
"727 149 CURVE",
"745 235 OFFCURVE",
"662 276 OFFCURVE",
"639 289 CURVE",
"720 319 OFFCURVE",
"773 370 OFFCURVE",
"784 416 CURVE SMOOTH"
);
},
{
closed = 1;
nodes = (
"244 -9 OFFCURVE",
"280 36 OFFCURVE",
"334 60 CURVE SMOOTH",
"424 99 OFFCURVE",
"560 130 OFFCURVE",
"675 125 CURVE",
"626 26 OFFCURVE",
"410 -16 OFFCURVE",
"311 -12 CURVE SMOOTH"
);
},
{
closed = 1;
nodes = (
"577 455 LINE SMOOTH",
"592 477 OFFCURVE",
"558 500 OFFCURVE",
"544 477 CURVE SMOOTH",
"344 163 LINE SMOOTH",
"330 141 OFFCURVE",
"363 119 OFFCURVE",
"377 141 CURVE SMOOTH"
);
}
);
width = 734;
}
);
note = B;
},
{
glyphname = C.ss01;
lastChange = "2021-09-02 22:26:51 +0000";
layers = (
{
hints = (
{
horizontal = 1;
place = "{-63, 37}";
type = Stem;
},
{
horizontal = 1;
place = "{221, 32}";
type = Stem;
},
{
horizontal = 1;
place = "{531, 34}";
type = Stem;
},
{
place = "{40, 43}";
type = Stem;
},
{
place = "{344, 34}";
type = Stem;
},
{
place = "{647, 37}";
type = Stem;
}
);
layerId = "466AD7DC-B026-4005-940F-6404FDF7EB07";
paths = (
{
closed = 1;
nodes = (
"379 327 OFFCURVE",
"347 331 OFFCURVE",
"344 299 CURVE SMOOTH",
"340 240 OFFCURVE",
"380 221 OFFCURVE",
"431 221 CURVE SMOOTH",
"654 221 OFFCURVE",
"811 565 OFFCURVE",
"544 565 CURVE SMOOTH",
"356 565 OFFCURVE",
"40 359 OFFCURVE",
"40 107 CURVE SMOOTH",
"40 6 OFFCURVE",
"101 -63 OFFCURVE",
"262 -63 CURVE SMOOTH",
"418 -63 OFFCURVE",
"664 72 OFFCURVE",
"737 157 CURVE SMOOTH",
"754 177 OFFCURVE",
"739 208 OFFCURVE",
"721 188 CURVE SMOOTH",
"654 108 OFFCURVE",
"416 -26 OFFCURVE",
"265 -26 CURVE SMOOTH",
"133 -26 OFFCURVE",
"83 25 OFFCURVE",
"83 110 CURVE SMOOTH",
"83 341 OFFCURVE",
"386 531 OFFCURVE",
"544 531 CURVE SMOOTH",
"754 531 OFFCURVE",
"608 253 OFFCURVE",
"429 253 CURVE SMOOTH",
"398 253 OFFCURVE",
"377 265 OFFCURVE",
"378 295 CURVE SMOOTH"
);
}
);
width = 678;
}
);
note = C;
},
{
color = 11;
glyphname = Cacute.ss01;
lastChange = "2021-09-02 22:26:51 +0000";
layers = (
{
hints = (
{
horizontal = 1;
place = "{-63, 37}";
type = Stem;
},
{
horizontal = 1;
place = "{221, 32}";
type = Stem;
},
{
horizontal = 1;
place = "{531, 34}";
type = Stem;
},
{
place = "{40, 43}";
type = Stem;
},
{
place = "{344, 34}";
type = Stem;
},
{
place = "{647, 37}";
type = Stem;
},
{
place = "{548, 163}";
type = Stem;
}
);
layerId = "466AD7DC-B026-4005-940F-6404FDF7EB07";
paths = (
{
closed = 1;
nodes = (
"379 327 OFFCURVE",
"347 331 OFFCURVE",
"344 299 CURVE SMOOTH",
"340 240 OFFCURVE",
"380 221 OFFCURVE",
"431 221 CURVE SMOOTH",
"654 221 OFFCURVE",
"811 565 OFFCURVE",
"544 565 CURVE SMOOTH",
"356 565 OFFCURVE",
"40 359 OFFCURVE",
"40 107 CURVE SMOOTH",
"40 6 OFFCURVE",
"101 -63 OFFCURVE",
"262 -63 CURVE SMOOTH",
"418 -63 OFFCURVE",
"664 72 OFFCURVE",
"737 157 CURVE SMOOTH",
"754 177 OFFCURVE",
"739 208 OFFCURVE",
"721 188 CURVE SMOOTH",
"654 108 OFFCURVE",
"416 -26 OFFCURVE",
"265 -26 CURVE SMOOTH",
"133 -26 OFFCURVE",
"83 25 OFFCURVE",
"83 110 CURVE SMOOTH",
"83 341 OFFCURVE",
"386 531 OFFCURVE",
"544 531 CURVE SMOOTH",
"754 531 OFFCURVE",
"608 253 OFFCURVE",
"429 253 CURVE SMOOTH",
"398 253 OFFCURVE",
"377 265 OFFCURVE",
"378 295 CURVE SMOOTH"
);
},
{
closed = 1;
nodes = (
"535 634 OFFCURVE",
"548 604 OFFCURVE",
"581 619 CURVE SMOOTH",
"699 669 LINE SMOOTH",
"722 679 OFFCURVE",
"711 722 OFFCURVE",
"683 707 CURVE SMOOTH",
"680 705 OFFCURVE",
"564 649 OFFCURVE",
"564 649 CURVE"
);
}
);
width = 678;
}
);
note = Cacute;
},
{
color = 11;
glyphname = Ccaron.ss01;
lastChange = "2021-09-02 22:54:53 +0000";
layers = (
{
hints = (
{
place = "{562, 347}";
type = Stem;
}
);
layerId = "466AD7DC-B026-4005-940F-6404FDF7EB07";
paths = (
{
closed = 1;
nodes = (
"379 327 OFFCURVE",
"347 331 OFFCURVE",
"344 299 CURVE SMOOTH",
"340 240 OFFCURVE",
"380 221 OFFCURVE",
"431 221 CURVE SMOOTH",
"654 221 OFFCURVE",
"811 565 OFFCURVE",
"544 565 CURVE SMOOTH",
"356 565 OFFCURVE",
"40 359 OFFCURVE",
"40 107 CURVE SMOOTH",
"40 6 OFFCURVE",
"101 -63 OFFCURVE",
"262 -63 CURVE SMOOTH",
"418 -63 OFFCURVE",
"664 72 OFFCURVE",
"737 157 CURVE SMOOTH",
"754 177 OFFCURVE",
"739 208 OFFCURVE",
"721 188 CURVE SMOOTH",
"654 108 OFFCURVE",
"416 -26 OFFCURVE",
"265 -26 CURVE SMOOTH",
"133 -26 OFFCURVE",
"83 25 OFFCURVE",
"83 110 CURVE SMOOTH",
"83 341 OFFCURVE",
"386 531 OFFCURVE",
"544 531 CURVE SMOOTH",
"754 531 OFFCURVE",
"608 253 OFFCURVE",
"429 253 CURVE SMOOTH",
"398 253 OFFCURVE",
"377 265 OFFCURVE",
"378 295 CURVE SMOOTH"
);
},
{
closed = 1;
nodes = (
"789 722 LINE",
"810 738 OFFCURVE",
"775 756 OFFCURVE",
"753 738 CURVE",
"606 645 LINE",
"597 737 LINE",
"597 760 OFFCURVE",
"557 757 OFFCURVE",
"558 724 CURVE SMOOTH",
"566 623 LINE SMOOTH",
"567 601 OFFCURVE",
"604 598 OFFCURVE",
"622 612 CURVE"
);
}
);
width = 678;
}
);
note = Ccaron;
},
{
color = 11;
glyphname = Ccedilla.ss01;
lastChange = "2021-09-02 22:26:51 +0000";
layers = (
{
hints = (
{
horizontal = 1;
place = "{-320, 36}";
type = Stem;
},
{
horizontal = 1;
place = "{-161, 29}";
type = Stem;
},
{
horizontal = 1;
place = "{-63, 37}";
type = Stem;
},
{
horizontal = 1;
place = "{221, 32}";
type = Stem;
},
{
horizontal = 1;
place = "{531, 34}";
type = Stem;
},
{
place = "{40, 43}";
type = Stem;
},
{
place = "{250, 46}";
type = Stem;
},
{
place = "{344, 34}";
type = Stem;
},
{
place = "{647, 37}";
type = Stem;
}
);
layerId = "466AD7DC-B026-4005-940F-6404FDF7EB07";
paths = (
{
closed = 1;
nodes = (
"239 -68 LINE SMOOTH",
"240 -66 OFFCURVE",
"241 -64 OFFCURVE",
"241 -62 CURVE",
"248 -63 OFFCURVE",
"255 -63 OFFCURVE",
"262 -63 CURVE SMOOTH",
"418 -63 OFFCURVE",
"664 72 OFFCURVE",
"737 157 CURVE SMOOTH",
"754 177 OFFCURVE",
"739 208 OFFCURVE",
"721 188 CURVE SMOOTH",
"654 108 OFFCURVE",
"416 -26 OFFCURVE",
"265 -26 CURVE SMOOTH",
"133 -26 OFFCURVE",
"83 25 OFFCURVE",
"83 110 CURVE SMOOTH",
"83 341 OFFCURVE",
"386 531 OFFCURVE",
"544 531 CURVE SMOOTH",
"754 531 OFFCURVE",
"608 253 OFFCURVE",
"429 253 CURVE SMOOTH",
"398 253 OFFCURVE",
"377 265 OFFCURVE",
"378 295 CURVE SMOOTH",
"379 327 OFFCURVE",
"347 331 OFFCURVE",
"344 299 CURVE SMOOTH",
"340 240 OFFCURVE",
"380 221 OFFCURVE",
"431 221 CURVE SMOOTH",
"654 221 OFFCURVE",
"811 565 OFFCURVE",
"544 565 CURVE SMOOTH",
"356 565 OFFCURVE",
"40 359 OFFCURVE",
"40 107 CURVE SMOOTH",
"40 21 OFFCURVE",
"84 -42 OFFCURVE",
"197 -58 CURVE",
"137 -142 LINE SMOOTH",
"125 -159 OFFCURVE",
"139 -176 OFFCURVE",
"170 -167 CURVE SMOOTH",
"197 -160 OFFCURVE",
"268 -151 OFFCURVE",
"246 -197 CURVE SMOOTH",
"229 -231 OFFCURVE",
"169 -273 OFFCURVE",
"61 -284 CURVE SMOOTH",
"40 -286 OFFCURVE",
"39 -322 OFFCURVE",
"60 -320 CURVE SMOOTH",
"181 -308 OFFCURVE",
"264 -254 OFFCURVE",
"289 -206 CURVE SMOOTH",
"301 -181 OFFCURVE",
"299 -153 OFFCURVE",
"271 -139 CURVE SMOOTH",
"253 -130 OFFCURVE",
"224 -128 OFFCURVE",
"196 -132 CURVE"
);
}
);
width = 678;
}
);
note = Ccedilla;
},
{
color = 11;
glyphname = Ccircumflex.ss01;
lastChange = "2021-09-02 22:54:53 +0000";
layers = (
{
hints = (
{
place = "{559, 347}";
type = Stem;
}
);
layerId = "466AD7DC-B026-4005-940F-6404FDF7EB07";
paths = (
{
closed = 1;
nodes = (
"379 327 OFFCURVE",
"347 331 OFFCURVE",
"344 299 CURVE SMOOTH",
"340 240 OFFCURVE",
"380 221 OFFCURVE",
"431 221 CURVE SMOOTH",
"654 221 OFFCURVE",
"811 565 OFFCURVE",
"544 565 CURVE SMOOTH",
"356 565 OFFCURVE",
"40 359 OFFCURVE",
"40 107 CURVE SMOOTH",
"40 6 OFFCURVE",
"101 -63 OFFCURVE",
"262 -63 CURVE SMOOTH",
"418 -63 OFFCURVE",
"664 72 OFFCURVE",
"737 157 CURVE SMOOTH",
"754 177 OFFCURVE",
"739 208 OFFCURVE",
"721 188 CURVE SMOOTH",
"654 108 OFFCURVE",
"416 -26 OFFCURVE",
"265 -26 CURVE SMOOTH",
"133 -26 OFFCURVE",
"83 25 OFFCURVE",
"83 110 CURVE SMOOTH",
"83 341 OFFCURVE",
"386 531 OFFCURVE",
"544 531 CURVE SMOOTH",
"754 531 OFFCURVE",
"608 253 OFFCURVE",
"429 253 CURVE SMOOTH",
"398 253 OFFCURVE",
"377 265 OFFCURVE",
"378 295 CURVE SMOOTH"
);
},
{
closed = 1;
nodes = (
"491 637 LINE",
"470 621 OFFCURVE",
"505 603 OFFCURVE",
"527 621 CURVE",
"674 714 LINE",
"683 622 LINE",
"683 599 OFFCURVE",
"723 602 OFFCURVE",
"722 635 CURVE SMOOTH",
"714 736 LINE SMOOTH",
"713 758 OFFCURVE",
"676 761 OFFCURVE",
"658 747 CURVE"
);
}
);
width = 678;
}
);
note = Ccircumflex;
},
{
color = 11;
glyphname = Cdotaccent.ss01;
lastChange = "2021-09-02 22:26:51 +0000";
layers = (
{
hints = (
{
horizontal = 1;
place = "{173, 52}";
type = Stem;
},
{
place = "{532, 52}";
type = Stem;
}
);
layerId = "466AD7DC-B026-4005-940F-6404FDF7EB07";
paths = (
{
closed = 1;
nodes = (
"379 327 OFFCURVE",
"347 331 OFFCURVE",
"344 299 CURVE SMOOTH",
"340 240 OFFCURVE",
"380 221 OFFCURVE",
"431 221 CURVE SMOOTH",
"654 221 OFFCURVE",
"811 565 OFFCURVE",
"544 565 CURVE SMOOTH",
"356 565 OFFCURVE",
"40 359 OFFCURVE",
"40 107 CURVE SMOOTH",
"40 6 OFFCURVE",
"101 -63 OFFCURVE",
"262 -63 CURVE SMOOTH",
"418 -63 OFFCURVE",
"664 72 OFFCURVE",
"737 157 CURVE SMOOTH",
"754 177 OFFCURVE",
"739 208 OFFCURVE",
"721 188 CURVE SMOOTH",
"654 108 OFFCURVE",
"416 -26 OFFCURVE",
"265 -26 CURVE SMOOTH",
"133 -26 OFFCURVE",
"83 25 OFFCURVE",
"83 110 CURVE SMOOTH",
"83 341 OFFCURVE",
"386 531 OFFCURVE",
"544 531 CURVE SMOOTH",
"754 531 OFFCURVE",
"608 253 OFFCURVE",
"429 253 CURVE SMOOTH",
"398 253 OFFCURVE",
"377 265 OFFCURVE",
"378 295 CURVE SMOOTH"
);
},
{
closed = 1;
nodes = (
"640 611 OFFCURVE",
"651 624 OFFCURVE",
"651 639 CURVE SMOOTH",
"651 655 OFFCURVE",
"640 666 OFFCURVE",
"624 666 CURVE SMOOTH",
"608 666 OFFCURVE",
"596 655 OFFCURVE",
"596 639 CURVE SMOOTH",
"596 624 OFFCURVE",
"608 611 OFFCURVE",
"624 611 CURVE SMOOTH"
);
}
);
width = 678;
}
);
note = Cdotaccent;
},
{
glyphname = D.ss01;
lastChange = "2021-09-02 22:26:51 +0000";
layers = (
{
hints = (
{
horizontal = 1;
place = "{523, 18}";
type = Stem;
},
{
place = "{257, 12}";
type = Stem;
},
{
place = "{296, 32}";
type = Stem;
}
);
layerId = "466AD7DC-B026-4005-940F-6404FDF7EB07";
paths = (
{
closed = 1;
nodes = (
"211 46 OFFCURVE",
"226 -51 OFFCURVE",
"338 -51 CURVE SMOOTH",
"463 -51 OFFCURVE",
"628 18 OFFCURVE",
"721 122 CURVE",
"736 120 OFFCURVE",
"751 117 OFFCURVE",
"765 113 CURVE SMOOTH",
"787 107 OFFCURVE",
"785 136 OFFCURVE",
"762 142 CURVE SMOOTH",
"741 146 LINE",
"785 205 OFFCURVE",
"811 276 OFFCURVE",
"811 350 CURVE SMOOTH",
"811 517 OFFCURVE",
"699 564 OFFCURVE",
"568 564 CURVE SMOOTH",
"395 564 OFFCURVE",
"120 482 OFFCURVE",
"42 318 CURVE SMOOTH",
"8 248 OFFCURVE",
"41 194 OFFCURVE",
"117 191 CURVE SMOOTH",
"151 189 OFFCURVE",
"194 197 OFFCURVE",
"238 218 CURVE SMOOTH",
"268 231 OFFCURVE",
"266 265 OFFCURVE",
"238 248 CURVE SMOOTH",
"214 235 OFFCURVE",
"160 216 OFFCURVE",
"120 219 CURVE SMOOTH",
"68 223 OFFCURVE",
"54 268 OFFCURVE",
"77 311 CURVE SMOOTH",
"152 452 OFFCURVE",
"409 532 OFFCURVE",
"564 532 CURVE SMOOTH",
"671 532 OFFCURVE",
"774 489 OFFCURVE",
"774 347 CURVE SMOOTH",
"774 272 OFFCURVE",
"746 206 OFFCURVE",
"702 152 CURVE",
"579 166 OFFCURVE",
"436 140 OFFCURVE",
"323 93 CURVE SMOOTH"
);
},
{
closed = 1;
nodes = (
"260 -21 OFFCURVE",
"275 34 OFFCURVE",
"334 60 CURVE SMOOTH",
"425 99 OFFCURVE",
"562 130 OFFCURVE",
"677 125 CURVE",
"591 38 OFFCURVE",
"468 -13 OFFCURVE",
"346 -18 CURVE SMOOTH"
);
},
{
closed = 1;
nodes = (
"578 457 LINE SMOOTH",
"592 479 OFFCURVE",
"559 499 OFFCURVE",
"545 477 CURVE SMOOTH",
"333 150 LINE SMOOTH",
"318 128 OFFCURVE",
"352 106 OFFCURVE",
"366 128 CURVE SMOOTH"
);
}
);
width = 734;
}
);
note = D;
},
{
glyphname = Eth.ss01;
lastChange = "2021-09-02 22:26:51 +0000";
layers = (
{
hints = (
{
horizontal = 1;
place = "{-193, 32}";
type = Stem;
},
{
horizontal = 1;
place = "{-35, 32}";
type = Stem;
},
{
horizontal = 1;
place = "{281, 32}";
type = Stem;
},
{
horizontal = 1;
place = "{538, 19}";
type = Stem;
}
);
layerId = "466AD7DC-B026-4005-940F-6404FDF7EB07";
paths = (
{
closed = 1;
nodes = (
"119 217 LINE SMOOTH",
"94 217 OFFCURVE",
"94 179 OFFCURVE",
"119 179 CURVE SMOOTH",
"159 179 LINE",
"29 -22 LINE SMOOTH",
"14 -44 OFFCURVE",
"48 -66 OFFCURVE",
"62 -44 CURVE SMOOTH",
"105 22 LINE",
"123 -7 OFFCURVE",
"165 -34 OFFCURVE",
"224 -34 CURVE SMOOTH",
"365 -34 OFFCURVE",
"494 93 OFFCURVE",
"558 229 CURVE SMOOTH",
"639 401 OFFCURVE",
"618 563 OFFCURVE",
"423 563 CURVE SMOOTH",
"308 563 OFFCURVE",
"206 511 OFFCURVE",
"111 464 CURVE SMOOTH",
"89 452 OFFCURVE",
"106 419 OFFCURVE",
"128 430 CURVE SMOOTH",
"216 474 OFFCURVE",
"311 524 OFFCURVE",
"417 524 CURVE SMOOTH",
"606 524 OFFCURVE",
"574 350 OFFCURVE",
"515 234 CURVE SMOOTH",
"455 114 OFFCURVE",
"349 6 OFFCURVE",
"224 6 CURVE SMOOTH",
"173 6 OFFCURVE",
"137 37 OFFCURVE",
"126 56 CURVE",
"206 179 LINE",
"273 179 LINE SMOOTH",
"298 179 OFFCURVE",
"298 217 OFFCURVE",
"273 217 CURVE SMOOTH",
"231 217 LINE",
"385 455 LINE SMOOTH",
"400 477 OFFCURVE",
"366 499 OFFCURVE",
"352 477 CURVE SMOOTH",
"183 217 LINE"
);
}
);
width = 557;
}
);
note = Eth;
},
{
color = 11;
glyphname = Dcaron.ss01;
lastChange = "2021-09-02 22:54:53 +0000";
layers = (
{
hints = (
{
horizontal = 1;
place = "{523, 18}";
type = Stem;
},
{
place = "{257, 12}";
type = Stem;
},
{
place = "{296, 32}";
type = Stem;
},
{
place = "{661, 347}";
type = Stem;
}
);
layerId = "466AD7DC-B026-4005-940F-6404FDF7EB07";
paths = (
{
closed = 1;
nodes = (
"211 46 OFFCURVE",
"226 -51 OFFCURVE",
"338 -51 CURVE SMOOTH",
"463 -51 OFFCURVE",
"628 18 OFFCURVE",
"721 122 CURVE",
"736 120 OFFCURVE",
"751 117 OFFCURVE",
"765 113 CURVE SMOOTH",
"787 107 OFFCURVE",
"785 136 OFFCURVE",
"762 142 CURVE SMOOTH",
"741 146 LINE",
"785 205 OFFCURVE",
"811 276 OFFCURVE",
"811 350 CURVE SMOOTH",
"811 517 OFFCURVE",
"699 564 OFFCURVE",
"568 564 CURVE SMOOTH",
"395 564 OFFCURVE",
"120 482 OFFCURVE",
"42 318 CURVE SMOOTH",
"8 248 OFFCURVE",
"41 194 OFFCURVE",
"117 191 CURVE SMOOTH",
"151 189 OFFCURVE",
"194 197 OFFCURVE",
"238 218 CURVE SMOOTH",
"268 231 OFFCURVE",
"266 265 OFFCURVE",
"238 248 CURVE SMOOTH",
"214 235 OFFCURVE",
"160 216 OFFCURVE",
"120 219 CURVE SMOOTH",
"68 223 OFFCURVE",
"54 268 OFFCURVE",
"77 311 CURVE SMOOTH",
"152 452 OFFCURVE",
"409 532 OFFCURVE",
"564 532 CURVE SMOOTH",
"671 532 OFFCURVE",
"774 489 OFFCURVE",
"774 347 CURVE SMOOTH",
"774 272 OFFCURVE",
"746 206 OFFCURVE",
"702 152 CURVE",
"579 166 OFFCURVE",
"436 140 OFFCURVE",
"323 93 CURVE SMOOTH"
);
},
{
closed = 1;
nodes = (
"260 -21 OFFCURVE",
"275 34 OFFCURVE",
"334 60 CURVE SMOOTH",
"425 99 OFFCURVE",
"562 130 OFFCURVE",
"677 125 CURVE",
"591 38 OFFCURVE",
"468 -13 OFFCURVE",
"346 -18 CURVE SMOOTH"
);
},
{
closed = 1;
nodes = (
"578 457 LINE SMOOTH",
"592 479 OFFCURVE",
"559 499 OFFCURVE",
"545 477 CURVE SMOOTH",
"333 150 LINE SMOOTH",
"318 128 OFFCURVE",
"352 106 OFFCURVE",
"366 128 CURVE SMOOTH"
);
},
{
closed = 1;
nodes = (
"888 710 LINE",
"909 726 OFFCURVE",
"874 744 OFFCURVE",
"852 726 CURVE",
"705 633 LINE",
"696 725 LINE",
"696 748 OFFCURVE",
"656 745 OFFCURVE",
"657 712 CURVE SMOOTH",
"665 611 LINE SMOOTH",
"666 589 OFFCURVE",
"703 586 OFFCURVE",
"721 600 CURVE"
);
}
);
width = 734;
}
);
note = Dcaron;
},
{
color = 11;
glyphname = Dcroat.ss01;
lastChange = "2021-09-02 22:54:53 +0000";
layers = (
{
hints = (
{
horizontal = 1;
place = "{-158, 32}";
type = Stem;
},
{
horizontal = 1;
place = "{523, 18}";
type = Stem;
},
{
place = "{257, 12}";
type = Stem;
},
{
place = "{296, 32}";
type = Stem;
}
);
layerId = "466AD7DC-B026-4005-940F-6404FDF7EB07";
paths = (
{
closed = 1;
nodes = (
"211 46 OFFCURVE",
"226 -51 OFFCURVE",
"338 -51 CURVE SMOOTH",
"463 -51 OFFCURVE",
"628 18 OFFCURVE",
"721 122 CURVE",
"736 120 OFFCURVE",
"751 117 OFFCURVE",
"765 113 CURVE SMOOTH",
"787 107 OFFCURVE",
"785 136 OFFCURVE",
"762 142 CURVE SMOOTH",
"741 146 LINE",
"785 205 OFFCURVE",
"811 276 OFFCURVE",
"811 350 CURVE SMOOTH",
"811 517 OFFCURVE",
"699 564 OFFCURVE",
"568 564 CURVE SMOOTH",
"395 564 OFFCURVE",
"120 482 OFFCURVE",
"42 318 CURVE SMOOTH",
"8 248 OFFCURVE",
"41 194 OFFCURVE",
"117 191 CURVE SMOOTH",
"151 189 OFFCURVE",
"194 197 OFFCURVE",
"238 218 CURVE SMOOTH",
"268 231 OFFCURVE",
"266 265 OFFCURVE",
"238 248 CURVE SMOOTH",
"214 235 OFFCURVE",
"160 216 OFFCURVE",
"120 219 CURVE SMOOTH",
"68 223 OFFCURVE",
"54 268 OFFCURVE",
"77 311 CURVE SMOOTH",
"152 452 OFFCURVE",
"409 532 OFFCURVE",
"564 532 CURVE SMOOTH",
"671 532 OFFCURVE",
"774 489 OFFCURVE",
"774 347 CURVE SMOOTH",
"774 272 OFFCURVE",
"746 206 OFFCURVE",
"702 152 CURVE",
"579 166 OFFCURVE",
"436 140 OFFCURVE",
"323 93 CURVE SMOOTH"
);
},
{
closed = 1;
nodes = (
"260 -21 OFFCURVE",
"275 34 OFFCURVE",
"334 60 CURVE SMOOTH",
"425 99 OFFCURVE",
"562 130 OFFCURVE",
"677 125 CURVE",
"591 38 OFFCURVE",
"468 -13 OFFCURVE",
"346 -18 CURVE SMOOTH"
);
},
{
closed = 1;
nodes = (
"334 251 LINE SMOOTH",
"309 251 OFFCURVE",
"309 213 OFFCURVE",
"334 213 CURVE SMOOTH",
"374 213 LINE",
"333 150 LINE SMOOTH",
"318 128 OFFCURVE",
"352 106 OFFCURVE",
"366 128 CURVE SMOOTH",
"421 213 LINE",
"488 213 LINE SMOOTH",
"513 213 OFFCURVE",
"513 251 OFFCURVE",
"488 251 CURVE SMOOTH",
"445 251 LINE",
"578 457 LINE SMOOTH",
"592 479 OFFCURVE",
"559 499 OFFCURVE",
"545 477 CURVE SMOOTH",
"398 251 LINE"
);
}
);
width = 734;
}
);
note = Dcroat;
},
{
glyphname = E.ss01;
lastChange = "2021-09-02 22:26:51 +0000";
layers = (
{
hints = (
{
horizontal = 1;
place = "{105, 18}";
type = Stem;
}
);
layerId = "466AD7DC-B026-4005-940F-6404FDF7EB07";
paths = (
{
closed = 1;
nodes = (
"139 213 OFFCURVE",
"52 153 OFFCURVE",
"52 50 CURVE SMOOTH",
"52 22 OFFCURVE",
"60 -9 OFFCURVE",
"93 -33 CURVE",
"83 -44 OFFCURVE",
"76 -54 OFFCURVE",
"72 -60 CURVE SMOOTH",
"59 -78 OFFCURVE",
"76 -100 OFFCURVE",
"89 -82 CURVE SMOOTH",
"97 -70 OFFCURVE",
"107 -58 OFFCURVE",
"118 -47 CURVE",
"195 -81 OFFCURVE",
"328 -56 OFFCURVE",
"426 -5 CURVE SMOOTH",
"600 85 OFFCURVE",
"625 239 OFFCURVE",
"430 177 CURVE SMOOTH",
"352 152 OFFCURVE",
"267 104 OFFCURVE",
"250 95 CURVE SMOOTH",
"196 64 OFFCURVE",
"152 27 OFFCURVE",
"121 -3 CURVE",
"103 10 OFFCURVE",
"92 30 OFFCURVE",
"92 58 CURVE SMOOTH",
"92 139 OFFCURVE",
"179 187 OFFCURVE",
"249 215 CURVE SMOOTH",
"293 232 OFFCURVE",
"336 244 OFFCURVE",
"369 251 CURVE",
"386 248 OFFCURVE",
"404 247 OFFCURVE",
"425 247 CURVE SMOOTH",
"479 247 OFFCURVE",
"478 300 OFFCURVE",
"415 292 CURVE SMOOTH",
"409 291 OFFCURVE",
"388 289 OFFCURVE",
"359 284 CURVE",
"221 330 OFFCURVE",
"357 526 OFFCURVE",
"528 526 CURVE SMOOTH",
"647 526 OFFCURVE",
"603 345 OFFCURVE",
"513 345 CURVE SMOOTH",
"491 345 OFFCURVE",
"474 365 OFFCURVE",
"477 408 CURVE",
"480 423 LINE",
"490 454 OFFCURVE",
"464 456 OFFCURVE",
"451 429 CURVE SMOOTH",
"445 416 OFFCURVE",
"441 402 OFFCURVE",
"440 390 CURVE SMOOTH",
"436 336 OFFCURVE",
"465 309 OFFCURVE",
"503 309 CURVE SMOOTH",
"657 309 OFFCURVE",
"706 559 OFFCURVE",
"531 559 CURVE SMOOTH",
"326 559 OFFCURVE",
"191 349 OFFCURVE",
"309 274 CURVE",
"285 268 OFFCURVE",
"258 260 OFFCURVE",
"232 250 CURVE SMOOTH"
);
},
{
closed = 1;
nodes = (
"592 192 OFFCURVE",
"497 79 OFFCURVE",
"438 43 CURVE SMOOTH",
"352 -10 OFFCURVE",
"223 -49 OFFCURVE",
"147 -18 CURVE",
"229 56 OFFCURVE",
"350 119 OFFCURVE",
"443 147 CURVE SMOOTH"
);
}
);
width = 568;
}
);
note = E;
},
{
color = 11;
glyphname = Eacute.ss01;
lastChange = "2021-09-02 22:26:51 +0000";
layers = (
{
hints = (
{
horizontal = 1;
place = "{105, 18}";
type = Stem;
}
);
layerId = "466AD7DC-B026-4005-940F-6404FDF7EB07";
paths = (
{
closed = 1;
nodes = (
"139 213 OFFCURVE",
"52 153 OFFCURVE",
"52 50 CURVE SMOOTH",
"52 22 OFFCURVE",
"60 -9 OFFCURVE",
"93 -33 CURVE",
"83 -44 OFFCURVE",
"76 -54 OFFCURVE",
"72 -60 CURVE SMOOTH",
"59 -78 OFFCURVE",
"76 -100 OFFCURVE",
"89 -82 CURVE SMOOTH",
"97 -70 OFFCURVE",
"107 -58 OFFCURVE",
"118 -47 CURVE",
"195 -81 OFFCURVE",
"328 -56 OFFCURVE",
"426 -5 CURVE SMOOTH",
"600 85 OFFCURVE",
"625 239 OFFCURVE",
"430 177 CURVE SMOOTH",
"352 152 OFFCURVE",
"267 104 OFFCURVE",
"250 95 CURVE SMOOTH",
"196 64 OFFCURVE",
"152 27 OFFCURVE",
"121 -3 CURVE",
"103 10 OFFCURVE",
"92 30 OFFCURVE",
"92 58 CURVE SMOOTH",
"92 139 OFFCURVE",
"179 187 OFFCURVE",
"249 215 CURVE SMOOTH",
"293 232 OFFCURVE",
"336 244 OFFCURVE",
"369 251 CURVE",
"386 248 OFFCURVE",
"404 247 OFFCURVE",
"425 247 CURVE SMOOTH",
"479 247 OFFCURVE",
"478 300 OFFCURVE",
"415 292 CURVE SMOOTH",
"409 291 OFFCURVE",
"388 289 OFFCURVE",
"359 284 CURVE",
"221 330 OFFCURVE",
"357 526 OFFCURVE",
"528 526 CURVE SMOOTH",
"647 526 OFFCURVE",
"603 345 OFFCURVE",
"513 345 CURVE SMOOTH",
"491 345 OFFCURVE",
"474 365 OFFCURVE",
"477 408 CURVE",
"480 423 LINE",
"490 454 OFFCURVE",
"464 456 OFFCURVE",
"451 429 CURVE SMOOTH",
"445 416 OFFCURVE",
"441 402 OFFCURVE",
"440 390 CURVE SMOOTH",
"436 336 OFFCURVE",
"465 309 OFFCURVE",
"503 309 CURVE SMOOTH",
"657 309 OFFCURVE",
"706 559 OFFCURVE",
"531 559 CURVE SMOOTH",
"326 559 OFFCURVE",
"191 349 OFFCURVE",
"309 274 CURVE",
"285 268 OFFCURVE",
"258 260 OFFCURVE",
"232 250 CURVE SMOOTH"
);
},
{
closed = 1;
nodes = (
"592 192 OFFCURVE",
"497 79 OFFCURVE",
"438 43 CURVE SMOOTH",
"352 -10 OFFCURVE",
"223 -49 OFFCURVE",
"147 -18 CURVE",
"229 56 OFFCURVE",
"350 119 OFFCURVE",
"443 147 CURVE SMOOTH"
);
},
{
closed = 1;
nodes = (
"517 640 OFFCURVE",
"530 610 OFFCURVE",
"563 625 CURVE SMOOTH",
"681 675 LINE SMOOTH",
"704 685 OFFCURVE",
"693 728 OFFCURVE",
"665 713 CURVE SMOOTH",
"662 711 OFFCURVE",
"546 655 OFFCURVE",
"546 655 CURVE"
);
}
);
width = 568;
}
);
note = Eacute;
},
{
color = 11;
glyphname = Ebreve.ss01;
lastChange = "2021-09-02 22:54:53 +0000";
layers = (
{
hints = (
{
horizontal = 1;
place = "{105, 18}";
type = Stem;
}
);
layerId = "466AD7DC-B026-4005-940F-6404FDF7EB07";
paths = (
{
closed = 1;
nodes = (
"139 213 OFFCURVE",
"52 153 OFFCURVE",
"52 50 CURVE SMOOTH",
"52 22 OFFCURVE",
"60 -9 OFFCURVE",
"93 -33 CURVE",
"83 -44 OFFCURVE",
"76 -54 OFFCURVE",
"72 -60 CURVE SMOOTH",
"59 -78 OFFCURVE",
"76 -100 OFFCURVE",
"89 -82 CURVE SMOOTH",
"97 -70 OFFCURVE",
"107 -58 OFFCURVE",
"118 -47 CURVE",
"195 -81 OFFCURVE",
"328 -56 OFFCURVE",
"426 -5 CURVE SMOOTH",
"600 85 OFFCURVE",
"625 239 OFFCURVE",
"430 177 CURVE SMOOTH",
"352 152 OFFCURVE",
"267 104 OFFCURVE",
"250 95 CURVE SMOOTH",
"196 64 OFFCURVE",
"152 27 OFFCURVE",
"121 -3 CURVE",
"103 10 OFFCURVE",
"92 30 OFFCURVE",
"92 58 CURVE SMOOTH",
"92 139 OFFCURVE",
"179 187 OFFCURVE",
"249 215 CURVE SMOOTH",
"293 232 OFFCURVE",
"336 244 OFFCURVE",
"369 251 CURVE",
"386 248 OFFCURVE",
"404 247 OFFCURVE",
"425 247 CURVE SMOOTH",
"479 247 OFFCURVE",
"478 300 OFFCURVE",
"415 292 CURVE SMOOTH",
"409 291 OFFCURVE",
"388 289 OFFCURVE",
"359 284 CURVE",
"221 330 OFFCURVE",
"357 526 OFFCURVE",
"528 526 CURVE SMOOTH",
"647 526 OFFCURVE",
"603 345 OFFCURVE",
"513 345 CURVE SMOOTH",
"491 345 OFFCURVE",
"474 365 OFFCURVE",
"477 408 CURVE",
"480 423 LINE",
"490 454 OFFCURVE",
"464 456 OFFCURVE",
"451 429 CURVE SMOOTH",
"445 416 OFFCURVE",
"441 402 OFFCURVE",
"440 390 CURVE SMOOTH",
"436 336 OFFCURVE",
"465 309 OFFCURVE",
"503 309 CURVE SMOOTH",
"657 309 OFFCURVE",
"706 559 OFFCURVE",
"531 559 CURVE SMOOTH",
"326 559 OFFCURVE",
"191 349 OFFCURVE",
"309 274 CURVE",
"285 268 OFFCURVE",
"258 260 OFFCURVE",
"232 250 CURVE SMOOTH"
);
},
{
closed = 1;
nodes = (
"592 192 OFFCURVE",
"497 79 OFFCURVE",
"438 43 CURVE SMOOTH",
"352 -10 OFFCURVE",
"223 -49 OFFCURVE",
"147 -18 CURVE",
"229 56 OFFCURVE",
"350 119 OFFCURVE",
"443 147 CURVE SMOOTH"
);
},
{
closed = 1;
nodes = (
"550 706 OFFCURVE",
"515 719 OFFCURVE",
"508 700 CURVE SMOOTH",
"504 689 OFFCURVE",
"502 680 OFFCURVE",
"502 670 CURVE SMOOTH",
"502 626 OFFCURVE",
"544 600 OFFCURVE",
"576 599 CURVE SMOOTH",
"637 595 OFFCURVE",
"678 616 OFFCURVE",
"726 686 CURVE SMOOTH",
"737 703 OFFCURVE",
"708 725 OFFCURVE",
"696 708 CURVE SMOOTH",
"653 646 OFFCURVE",
"624 633 OFFCURVE",
"578 635 CURVE SMOOTH",
"553 637 OFFCURVE",
"531 656 OFFCURVE",
"543 687 CURVE SMOOTH"
);
}
);
width = 568;
}
);
note = Ebreve;
},
{
color = 11;
glyphname = Ecaron.ss01;
lastChange = "2021-09-02 22:54:53 +0000";
layers = (
{
hints = (
{
horizontal = 1;
place = "{105, 18}";
type = Stem;
},
{
place = "{550, 347}";
type = Stem;
}
);
layerId = "466AD7DC-B026-4005-940F-6404FDF7EB07";
paths = (
{
closed = 1;
nodes = (
"139 213 OFFCURVE",
"52 153 OFFCURVE",
"52 50 CURVE SMOOTH",
"52 22 OFFCURVE",
"60 -9 OFFCURVE",
"93 -33 CURVE",
"83 -44 OFFCURVE",
"76 -54 OFFCURVE",
"72 -60 CURVE SMOOTH",
"59 -78 OFFCURVE",
"76 -100 OFFCURVE",
"89 -82 CURVE SMOOTH",
"97 -70 OFFCURVE",
"107 -58 OFFCURVE",
"118 -47 CURVE",
"195 -81 OFFCURVE",
"328 -56 OFFCURVE",
"426 -5 CURVE SMOOTH",
"600 85 OFFCURVE",
"625 239 OFFCURVE",
"430 177 CURVE SMOOTH",
"352 152 OFFCURVE",
"267 104 OFFCURVE",
"250 95 CURVE SMOOTH",
"196 64 OFFCURVE",
"152 27 OFFCURVE",
"121 -3 CURVE",
"103 10 OFFCURVE",
"92 30 OFFCURVE",
"92 58 CURVE SMOOTH",
"92 139 OFFCURVE",
"179 187 OFFCURVE",
"249 215 CURVE SMOOTH",
"293 232 OFFCURVE",
"336 244 OFFCURVE",
"369 251 CURVE",
"386 248 OFFCURVE",
"404 247 OFFCURVE",
"425 247 CURVE SMOOTH",
"479 247 OFFCURVE",
"478 300 OFFCURVE",
"415 292 CURVE SMOOTH",
"409 291 OFFCURVE",
"388 289 OFFCURVE",
"359 284 CURVE",
"221 330 OFFCURVE",
"357 526 OFFCURVE",
"528 526 CURVE SMOOTH",
"647 526 OFFCURVE",
"603 345 OFFCURVE",
"513 345 CURVE SMOOTH",
"491 345 OFFCURVE",
"474 365 OFFCURVE",
"477 408 CURVE",
"480 423 LINE",
"490 454 OFFCURVE",
"464 456 OFFCURVE",
"451 429 CURVE SMOOTH",
"445 416 OFFCURVE",
"441 402 OFFCURVE",
"440 390 CURVE SMOOTH",
"436 336 OFFCURVE",
"465 309 OFFCURVE",
"503 309 CURVE SMOOTH",
"657 309 OFFCURVE",
"706 559 OFFCURVE",
"531 559 CURVE SMOOTH",
"326 559 OFFCURVE",
"191 349 OFFCURVE",
"309 274 CURVE",
"285 268 OFFCURVE",
"258 260 OFFCURVE",
"232 250 CURVE SMOOTH"
);
},
{
closed = 1;
nodes = (
"592 192 OFFCURVE",
"497 79 OFFCURVE",
"438 43 CURVE SMOOTH",
"352 -10 OFFCURVE",
"223 -49 OFFCURVE",
"147 -18 CURVE",
"229 56 OFFCURVE",
"350 119 OFFCURVE",
"443 147 CURVE SMOOTH"
);
},
{
closed = 1;
nodes = (
"777 728 LINE",
"798 744 OFFCURVE",
"763 762 OFFCURVE",
"741 744 CURVE",
"594 651 LINE",
"585 743 LINE",
"585 766 OFFCURVE",
"545 763 OFFCURVE",
"546 730 CURVE SMOOTH",
"554 629 LINE SMOOTH",
"555 607 OFFCURVE",
"592 604 OFFCURVE",
"610 618 CURVE"
);
}
);
width = 568;
}
);
note = Ecaron;
},
{
color = 11;
glyphname = Ecircumflex.ss01;
lastChange = "2021-09-02 22:54:53 +0000";
layers = (
{
hints = (
{
horizontal = 1;
place = "{105, 18}";
type = Stem;
},
{
place = "{517, 347}";
type = Stem;
}
);
layerId = "466AD7DC-B026-4005-940F-6404FDF7EB07";
paths = (
{
closed = 1;
nodes = (
"139 213 OFFCURVE",
"52 153 OFFCURVE",
"52 50 CURVE SMOOTH",
"52 22 OFFCURVE",
"60 -9 OFFCURVE",
"93 -33 CURVE",
"83 -44 OFFCURVE",
"76 -54 OFFCURVE",
"72 -60 CURVE SMOOTH",
"59 -78 OFFCURVE",
"76 -100 OFFCURVE",
"89 -82 CURVE SMOOTH",
"97 -70 OFFCURVE",
"107 -58 OFFCURVE",
"118 -47 CURVE",
"195 -81 OFFCURVE",
"328 -56 OFFCURVE",
"426 -5 CURVE SMOOTH",
"600 85 OFFCURVE",
"625 239 OFFCURVE",
"430 177 CURVE SMOOTH",
"352 152 OFFCURVE",
"267 104 OFFCURVE",
"250 95 CURVE SMOOTH",
"196 64 OFFCURVE",
"152 27 OFFCURVE",
"121 -3 CURVE",
"103 10 OFFCURVE",
"92 30 OFFCURVE",
"92 58 CURVE SMOOTH",
"92 139 OFFCURVE",
"179 187 OFFCURVE",
"249 215 CURVE SMOOTH",
"293 232 OFFCURVE",
"336 244 OFFCURVE",
"369 251 CURVE",
"386 248 OFFCURVE",
"404 247 OFFCURVE",
"425 247 CURVE SMOOTH",
"479 247 OFFCURVE",
"478 300 OFFCURVE",
"415 292 CURVE SMOOTH",
"409 291 OFFCURVE",
"388 289 OFFCURVE",
"359 284 CURVE",
"221 330 OFFCURVE",
"357 526 OFFCURVE",
"528 526 CURVE SMOOTH",
"647 526 OFFCURVE",
"603 345 OFFCURVE",
"513 345 CURVE SMOOTH",
"491 345 OFFCURVE",
"474 365 OFFCURVE",
"477 408 CURVE",
"480 423 LINE",
"490 454 OFFCURVE",
"464 456 OFFCURVE",
"451 429 CURVE SMOOTH",
"445 416 OFFCURVE",
"441 402 OFFCURVE",
"440 390 CURVE SMOOTH",
"436 336 OFFCURVE",
"465 309 OFFCURVE",
"503 309 CURVE SMOOTH",
"657 309 OFFCURVE",
"706 559 OFFCURVE",
"531 559 CURVE SMOOTH",
"326 559 OFFCURVE",
"191 349 OFFCURVE",
"309 274 CURVE",
"285 268 OFFCURVE",
"258 260 OFFCURVE",
"232 250 CURVE SMOOTH"
);
},
{
closed = 1;
nodes = (
"592 192 OFFCURVE",
"497 79 OFFCURVE",
"438 43 CURVE SMOOTH",
"352 -10 OFFCURVE",
"223 -49 OFFCURVE",
"147 -18 CURVE",
"229 56 OFFCURVE",
"350 119 OFFCURVE",
"443 147 CURVE SMOOTH"
);
},
{
closed = 1;
nodes = (
"449 629 LINE",
"428 613 OFFCURVE",
"463 595 OFFCURVE",
"485 613 CURVE",
"632 706 LINE",
"641 614 LINE",
"641 591 OFFCURVE",
"681 594 OFFCURVE",
"680 627 CURVE SMOOTH",
"672 728 LINE SMOOTH",
"671 750 OFFCURVE",
"634 753 OFFCURVE",
"616 739 CURVE"
);
}
);
width = 568;
}
);
note = Ecircumflex;
},
{
color = 11;
glyphname = Edieresis.ss01;
lastChange = "2021-09-02 22:54:53 +0000";
layers = (
{
hints = (
{
horizontal = 1;
place = "{105, 18}";
type = Stem;
},
{
horizontal = 1;
place = "{229, 52}";
type = Stem;
},
{
place = "{442, 52}";
type = Stem;
}
);
layerId = "466AD7DC-B026-4005-940F-6404FDF7EB07";
paths = (
{
closed = 1;
nodes = (
"139 213 OFFCURVE",
"52 153 OFFCURVE",
"52 50 CURVE SMOOTH",
"52 22 OFFCURVE",
"60 -9 OFFCURVE",
"93 -33 CURVE",
"83 -44 OFFCURVE",
"76 -54 OFFCURVE",
"72 -60 CURVE SMOOTH",
"59 -78 OFFCURVE",
"76 -100 OFFCURVE",
"89 -82 CURVE SMOOTH",
"97 -70 OFFCURVE",
"107 -58 OFFCURVE",
"118 -47 CURVE",
"195 -81 OFFCURVE",
"328 -56 OFFCURVE",
"426 -5 CURVE SMOOTH",
"600 85 OFFCURVE",
"625 239 OFFCURVE",
"430 177 CURVE SMOOTH",
"352 152 OFFCURVE",
"267 104 OFFCURVE",
"250 95 CURVE SMOOTH",
"196 64 OFFCURVE",
"152 27 OFFCURVE",
"121 -3 CURVE",
"103 10 OFFCURVE",
"92 30 OFFCURVE",
"92 58 CURVE SMOOTH",
"92 139 OFFCURVE",
"179 187 OFFCURVE",
"249 215 CURVE SMOOTH",
"293 232 OFFCURVE",
"336 244 OFFCURVE",
"369 251 CURVE",
"386 248 OFFCURVE",
"404 247 OFFCURVE",
"425 247 CURVE SMOOTH",
"479 247 OFFCURVE",
"478 300 OFFCURVE",
"415 292 CURVE SMOOTH",
"409 291 OFFCURVE",
"388 289 OFFCURVE",
"359 284 CURVE",
"221 330 OFFCURVE",
"357 526 OFFCURVE",
"528 526 CURVE SMOOTH",
"647 526 OFFCURVE",
"603 345 OFFCURVE",
"513 345 CURVE SMOOTH",
"491 345 OFFCURVE",
"474 365 OFFCURVE",
"477 408 CURVE",
"480 423 LINE",
"490 454 OFFCURVE",
"464 456 OFFCURVE",
"451 429 CURVE SMOOTH",
"445 416 OFFCURVE",
"441 402 OFFCURVE",
"440 390 CURVE SMOOTH",
"436 336 OFFCURVE",
"465 309 OFFCURVE",
"503 309 CURVE SMOOTH",
"657 309 OFFCURVE",
"706 559 OFFCURVE",
"531 559 CURVE SMOOTH",
"326 559 OFFCURVE",
"191 349 OFFCURVE",
"309 274 CURVE",
"285 268 OFFCURVE",
"258 260 OFFCURVE",
"232 250 CURVE SMOOTH"
);
},
{
closed = 1;
nodes = (
"592 192 OFFCURVE",
"497 79 OFFCURVE",
"438 43 CURVE SMOOTH",
"352 -10 OFFCURVE",
"223 -49 OFFCURVE",
"147 -18 CURVE",
"229 56 OFFCURVE",
"350 119 OFFCURVE",
"443 147 CURVE SMOOTH"
);
},
{
closed = 1;
nodes = (
"524 613 OFFCURVE",
"535 626 OFFCURVE",
"535 641 CURVE SMOOTH",
"535 657 OFFCURVE",
"524 668 OFFCURVE",
"508 668 CURVE SMOOTH",
"492 668 OFFCURVE",
"480 657 OFFCURVE",
"480 641 CURVE SMOOTH",
"480 626 OFFCURVE",
"492 613 OFFCURVE",
"508 613 CURVE SMOOTH"
);
},
{
closed = 1;
nodes = (
"640 613 OFFCURVE",
"651 626 OFFCURVE",
"651 641 CURVE SMOOTH",
"651 657 OFFCURVE",
"640 668 OFFCURVE",
"624 668 CURVE SMOOTH",
"608 668 OFFCURVE",
"596 657 OFFCURVE",
"596 641 CURVE SMOOTH",
"596 626 OFFCURVE",
"608 613 OFFCURVE",
"624 613 CURVE SMOOTH"
);
}
);
width = 568;
}
);
note = Edieresis;
},
{
color = 11;
glyphname = Edotaccent.ss01;
lastChange = "2021-09-02 22:26:51 +0000";
layers = (
{
hints = (
{
horizontal = 1;
place = "{105, 18}";
type = Stem;
},
{
horizontal = 1;
place = "{175, 52}";
type = Stem;
},
{
place = "{504, 52}";
type = Stem;
}
);
layerId = "466AD7DC-B026-4005-940F-6404FDF7EB07";
paths = (
{
closed = 1;
nodes = (
"139 213 OFFCURVE",
"52 153 OFFCURVE",
"52 50 CURVE SMOOTH",
"52 22 OFFCURVE",
"60 -9 OFFCURVE",
"93 -33 CURVE",
"83 -44 OFFCURVE",
"76 -54 OFFCURVE",
"72 -60 CURVE SMOOTH",
"59 -78 OFFCURVE",
"76 -100 OFFCURVE",
"89 -82 CURVE SMOOTH",
"97 -70 OFFCURVE",
"107 -58 OFFCURVE",
"118 -47 CURVE",
"195 -81 OFFCURVE",
"328 -56 OFFCURVE",
"426 -5 CURVE SMOOTH",
"600 85 OFFCURVE",
"625 239 OFFCURVE",
"430 177 CURVE SMOOTH",
"352 152 OFFCURVE",
"267 104 OFFCURVE",
"250 95 CURVE SMOOTH",
"196 64 OFFCURVE",
"152 27 OFFCURVE",
"121 -3 CURVE",
"103 10 OFFCURVE",
"92 30 OFFCURVE",
"92 58 CURVE SMOOTH",
"92 139 OFFCURVE",
"179 187 OFFCURVE",
"249 215 CURVE SMOOTH",
"293 232 OFFCURVE",
"336 244 OFFCURVE",
"369 251 CURVE",
"386 248 OFFCURVE",
"404 247 OFFCURVE",
"425 247 CURVE SMOOTH",
"479 247 OFFCURVE",
"478 300 OFFCURVE",
"415 292 CURVE SMOOTH",
"409 291 OFFCURVE",
"388 289 OFFCURVE",
"359 284 CURVE",
"221 330 OFFCURVE",
"357 526 OFFCURVE",
"528 526 CURVE SMOOTH",
"647 526 OFFCURVE",
"603 345 OFFCURVE",
"513 345 CURVE SMOOTH",
"491 345 OFFCURVE",
"474 365 OFFCURVE",
"477 408 CURVE",
"480 423 LINE",
"490 454 OFFCURVE",
"464 456 OFFCURVE",
"451 429 CURVE SMOOTH",
"445 416 OFFCURVE",
"441 402 OFFCURVE",
"440 390 CURVE SMOOTH",
"436 336 OFFCURVE",
"465 309 OFFCURVE",
"503 309 CURVE SMOOTH",
"657 309 OFFCURVE",
"706 559 OFFCURVE",
"531 559 CURVE SMOOTH",
"326 559 OFFCURVE",
"191 349 OFFCURVE",
"309 274 CURVE",
"285 268 OFFCURVE",
"258 260 OFFCURVE",
"232 250 CURVE SMOOTH"
);
},
{
closed = 1;
nodes = (
"592 192 OFFCURVE",
"497 79 OFFCURVE",
"438 43 CURVE SMOOTH",
"352 -10 OFFCURVE",
"223 -49 OFFCURVE",
"147 -18 CURVE",
"229 56 OFFCURVE",
"350 119 OFFCURVE",
"443 147 CURVE SMOOTH"
);
},
{
closed = 1;
nodes = (
"612 613 OFFCURVE",
"623 626 OFFCURVE",
"623 641 CURVE SMOOTH",
"623 657 OFFCURVE",
"612 668 OFFCURVE",
"596 668 CURVE SMOOTH",
"580 668 OFFCURVE",
"568 657 OFFCURVE",
"568 641 CURVE SMOOTH",
"568 626 OFFCURVE",
"580 613 OFFCURVE",
"596 613 CURVE SMOOTH"
);
}
);
width = 568;
}
);
note = Edotaccent;
},
{
color = 11;
glyphname = Egrave.ss01;
lastChange = "2021-09-02 22:54:53 +0000";
layers = (
{
hints = (
{
horizontal = 1;
place = "{105, 18}";
type = Stem;
}
);
layerId = "466AD7DC-B026-4005-940F-6404FDF7EB07";
paths = (
{
closed = 1;
nodes = (
"139 213 OFFCURVE",
"52 153 OFFCURVE",
"52 50 CURVE SMOOTH",
"52 22 OFFCURVE",
"60 -9 OFFCURVE",
"93 -33 CURVE",
"83 -44 OFFCURVE",
"76 -54 OFFCURVE",
"72 -60 CURVE SMOOTH",
"59 -78 OFFCURVE",
"76 -100 OFFCURVE",
"89 -82 CURVE SMOOTH",
"97 -70 OFFCURVE",
"107 -58 OFFCURVE",
"118 -47 CURVE",
"195 -81 OFFCURVE",
"328 -56 OFFCURVE",
"426 -5 CURVE SMOOTH",
"600 85 OFFCURVE",
"625 239 OFFCURVE",
"430 177 CURVE SMOOTH",
"352 152 OFFCURVE",
"267 104 OFFCURVE",
"250 95 CURVE SMOOTH",
"196 64 OFFCURVE",
"152 27 OFFCURVE",
"121 -3 CURVE",
"103 10 OFFCURVE",
"92 30 OFFCURVE",
"92 58 CURVE SMOOTH",
"92 139 OFFCURVE",
"179 187 OFFCURVE",
"249 215 CURVE SMOOTH",
"293 232 OFFCURVE",
"336 244 OFFCURVE",
"369 251 CURVE",
"386 248 OFFCURVE",
"404 247 OFFCURVE",
"425 247 CURVE SMOOTH",
"479 247 OFFCURVE",
"478 300 OFFCURVE",
"415 292 CURVE SMOOTH",
"409 291 OFFCURVE",
"388 289 OFFCURVE",
"359 284 CURVE",
"221 330 OFFCURVE",
"357 526 OFFCURVE",
"528 526 CURVE SMOOTH",
"647 526 OFFCURVE",
"603 345 OFFCURVE",
"513 345 CURVE SMOOTH",
"491 345 OFFCURVE",
"474 365 OFFCURVE",
"477 408 CURVE",
"480 423 LINE",
"490 454 OFFCURVE",
"464 456 OFFCURVE",
"451 429 CURVE SMOOTH",
"445 416 OFFCURVE",
"441 402 OFFCURVE",
"440 390 CURVE SMOOTH",
"436 336 OFFCURVE",
"465 309 OFFCURVE",
"503 309 CURVE SMOOTH",
"657 309 OFFCURVE",
"706 559 OFFCURVE",
"531 559 CURVE SMOOTH",
"326 559 OFFCURVE",
"191 349 OFFCURVE",
"309 274 CURVE",
"285 268 OFFCURVE",
"258 260 OFFCURVE",
"232 250 CURVE SMOOTH"
);
},
{
closed = 1;
nodes = (
"592 192 OFFCURVE",
"497 79 OFFCURVE",
"438 43 CURVE SMOOTH",
"352 -10 OFFCURVE",
"223 -49 OFFCURVE",
"147 -18 CURVE",
"229 56 OFFCURVE",
"350 119 OFFCURVE",
"443 147 CURVE SMOOTH"
);
},
{
closed = 1;
nodes = (
"607 647 OFFCURVE",
"503 700 OFFCURVE",
"500 702 CURVE SMOOTH",
"472 717 OFFCURVE",
"461 674 OFFCURVE",
"484 664 CURVE SMOOTH",
"590 617 LINE SMOOTH",
"623 602 OFFCURVE",
"636 632 OFFCURVE",
"607 647 CURVE"
);
}
);
width = 568;
}
);
note = Egrave;
},
{
color = 11;
glyphname = Emacron.ss01;
lastChange = "2021-09-02 22:54:53 +0000";
layers = (
{
hints = (
{
horizontal = 1;
place = "{105, 18}";
type = Stem;
},
{
horizontal = 1;
place = "{256, 32}";
type = Stem;
}
);
layerId = "466AD7DC-B026-4005-940F-6404FDF7EB07";
paths = (
{
closed = 1;
nodes = (
"139 213 OFFCURVE",
"52 153 OFFCURVE",
"52 50 CURVE SMOOTH",
"52 22 OFFCURVE",
"60 -9 OFFCURVE",
"93 -33 CURVE",
"83 -44 OFFCURVE",
"76 -54 OFFCURVE",
"72 -60 CURVE SMOOTH",
"59 -78 OFFCURVE",
"76 -100 OFFCURVE",
"89 -82 CURVE SMOOTH",
"97 -70 OFFCURVE",
"107 -58 OFFCURVE",
"118 -47 CURVE",
"195 -81 OFFCURVE",
"328 -56 OFFCURVE",
"426 -5 CURVE SMOOTH",
"600 85 OFFCURVE",
"625 239 OFFCURVE",
"430 177 CURVE SMOOTH",
"352 152 OFFCURVE",
"267 104 OFFCURVE",
"250 95 CURVE SMOOTH",
"196 64 OFFCURVE",
"152 27 OFFCURVE",
"121 -3 CURVE",
"103 10 OFFCURVE",
"92 30 OFFCURVE",
"92 58 CURVE SMOOTH",
"92 139 OFFCURVE",
"179 187 OFFCURVE",
"249 215 CURVE SMOOTH",
"293 232 OFFCURVE",
"336 244 OFFCURVE",
"369 251 CURVE",
"386 248 OFFCURVE",
"404 247 OFFCURVE",
"425 247 CURVE SMOOTH",
"479 247 OFFCURVE",
"478 300 OFFCURVE",
"415 292 CURVE SMOOTH",
"409 291 OFFCURVE",
"388 289 OFFCURVE",
"359 284 CURVE",
"221 330 OFFCURVE",
"357 526 OFFCURVE",
"528 526 CURVE SMOOTH",
"647 526 OFFCURVE",
"603 345 OFFCURVE",
"513 345 CURVE SMOOTH",
"491 345 OFFCURVE",
"474 365 OFFCURVE",
"477 408 CURVE",
"480 423 LINE",
"490 454 OFFCURVE",
"464 456 OFFCURVE",
"451 429 CURVE SMOOTH",
"445 416 OFFCURVE",
"441 402 OFFCURVE",
"440 390 CURVE SMOOTH",
"436 336 OFFCURVE",
"465 309 OFFCURVE",
"503 309 CURVE SMOOTH",
"657 309 OFFCURVE",
"706 559 OFFCURVE",
"531 559 CURVE SMOOTH",
"326 559 OFFCURVE",
"191 349 OFFCURVE",
"309 274 CURVE",
"285 268 OFFCURVE",
"258 260 OFFCURVE",
"232 250 CURVE SMOOTH"
);
},
{
closed = 1;
nodes = (
"592 192 OFFCURVE",
"497 79 OFFCURVE",
"438 43 CURVE SMOOTH",
"352 -10 OFFCURVE",
"223 -49 OFFCURVE",
"147 -18 CURVE",
"229 56 OFFCURVE",
"350 119 OFFCURVE",
"443 147 CURVE SMOOTH"
);
},
{
closed = 1;
nodes = (
"507 665 LINE SMOOTH",
"482 665 OFFCURVE",
"482 627 OFFCURVE",
"507 627 CURVE SMOOTH",
"661 627 LINE SMOOTH",
"686 627 OFFCURVE",
"686 665 OFFCURVE",
"661 665 CURVE SMOOTH"
);
}
);
width = 568;
}
);
note = Emacron;
},
{
color = 11;
glyphname = Eogonek.ss01;
lastChange = "2021-09-02 22:26:51 +0000";
layers = (
{
hints = (
{
horizontal = 1;
place = "{-74, 32}";
type = Stem;
},
{
horizontal = 1;
place = "{105, 18}";
type = Stem;
},
{
horizontal = 1;
place = "{253, 19}";
type = Stem;
},
{
place = "{492, 32}";
type = Stem;
}
);
layerId = "466AD7DC-B026-4005-940F-6404FDF7EB07";
paths = (
{
closed = 1;
nodes = (
"227 -65 OFFCURVE",
"230 -63 OFFCURVE",
"231 -61 CURVE",
"296 -57 OFFCURVE",
"367 -36 OFFCURVE",
"426 -5 CURVE SMOOTH",
"600 85 OFFCURVE",
"625 239 OFFCURVE",
"430 177 CURVE SMOOTH",
"352 152 OFFCURVE",
"267 104 OFFCURVE",
"250 95 CURVE SMOOTH",
"196 64 OFFCURVE",
"152 27 OFFCURVE",
"121 -3 CURVE",
"103 10 OFFCURVE",
"92 30 OFFCURVE",
"92 58 CURVE SMOOTH",
"92 139 OFFCURVE",
"179 187 OFFCURVE",
"249 215 CURVE SMOOTH",
"293 232 OFFCURVE",
"336 244 OFFCURVE",
"369 251 CURVE",
"386 248 OFFCURVE",
"404 247 OFFCURVE",
"425 247 CURVE SMOOTH",
"479 247 OFFCURVE",
"478 300 OFFCURVE",
"415 292 CURVE SMOOTH",
"409 291 OFFCURVE",
"388 289 OFFCURVE",
"359 284 CURVE",
"221 330 OFFCURVE",
"357 526 OFFCURVE",
"528 526 CURVE SMOOTH",
"647 526 OFFCURVE",
"603 345 OFFCURVE",
"513 345 CURVE SMOOTH",
"491 345 OFFCURVE",
"474 365 OFFCURVE",
"477 408 CURVE",
"480 423 LINE",
"490 454 OFFCURVE",
"464 456 OFFCURVE",
"451 429 CURVE SMOOTH",
"445 416 OFFCURVE",
"441 402 OFFCURVE",
"440 390 CURVE SMOOTH",
"436 336 OFFCURVE",
"465 309 OFFCURVE",
"503 309 CURVE SMOOTH",
"657 309 OFFCURVE",
"706 559 OFFCURVE",
"531 559 CURVE SMOOTH",
"326 559 OFFCURVE",
"191 349 OFFCURVE",
"309 274 CURVE",
"285 268 OFFCURVE",
"258 260 OFFCURVE",
"232 250 CURVE SMOOTH",
"139 213 OFFCURVE",
"52 153 OFFCURVE",
"52 50 CURVE SMOOTH",
"52 22 OFFCURVE",
"60 -9 OFFCURVE",
"93 -33 CURVE",
"83 -44 OFFCURVE",
"76 -54 OFFCURVE",
"72 -60 CURVE SMOOTH",
"59 -78 OFFCURVE",
"76 -100 OFFCURVE",
"89 -82 CURVE SMOOTH",
"97 -70 OFFCURVE",
"107 -58 OFFCURVE",
"118 -47 CURVE",
"136 -54 OFFCURVE",
"156 -59 OFFCURVE",
"179 -61 CURVE",
"148 -89 OFFCURVE",
"103 -148 OFFCURVE",
"92 -198 CURVE SMOOTH",
"82 -238 OFFCURVE",
"102 -255 OFFCURVE",
"128 -259 CURVE SMOOTH",
"180 -267 OFFCURVE",
"237 -232 OFFCURVE",
"289 -195 CURVE SMOOTH",
"309 -180 OFFCURVE",
"306 -145 OFFCURVE",
"287 -160 CURVE SMOOTH",
"267 -175 OFFCURVE",
"199 -229 OFFCURVE",
"154 -222 CURVE SMOOTH",
"96 -213 OFFCURVE",
"190 -91 OFFCURVE",
"224 -68 CURVE"
);
},
{
closed = 1;
nodes = (
"592 192 OFFCURVE",
"497 79 OFFCURVE",
"438 43 CURVE SMOOTH",
"352 -10 OFFCURVE",
"223 -49 OFFCURVE",
"147 -18 CURVE",
"229 56 OFFCURVE",
"350 119 OFFCURVE",
"443 147 CURVE SMOOTH"
);
}
);
width = 568;
}
);
note = Eogonek;
},
{
glyphname = F.ss01;
lastChange = "2021-09-02 22:26:51 +0000";
layers = (
{
hints = (
{
horizontal = 1;
place = "{256, 32}";
type = Stem;
}
);
layerId = "466AD7DC-B026-4005-940F-6404FDF7EB07";
paths = (
{
closed = 1;
nodes = (
"234 504 OFFCURVE",
"31 452 OFFCURVE",
"27 368 CURVE SMOOTH",
"26 352 OFFCURVE",
"34 327 OFFCURVE",
"55 314 CURVE SMOOTH",
"106 283 OFFCURVE",
"186 289 OFFCURVE",
"238 304 CURVE SMOOTH",
"290 319 OFFCURVE",
"270 344 OFFCURVE",
"236 335 CURVE SMOOTH",
"217 330 OFFCURVE",
"168 324 OFFCURVE",
"125 330 CURVE SMOOTH",
"81 337 OFFCURVE",
"66 353 OFFCURVE",
"66 368 CURVE SMOOTH",
"66 425 OFFCURVE",
"264 476 OFFCURVE",
"304 486 CURVE SMOOTH",
"425 516 OFFCURVE",
"637 529 OFFCURVE",
"770 515 CURVE SMOOTH",
"851 506 OFFCURVE",
"900 483 OFFCURVE",
"877 446 CURVE SMOOTH",
"863 423 OFFCURVE",
"899 418 OFFCURVE",
"913 440 CURVE SMOOTH",
"951 500 OFFCURVE",
"884 531 OFFCURVE",
"838 542 CURVE SMOOTH",
"730 567 OFFCURVE",
"498 566 OFFCURVE",
"296 519 CURVE SMOOTH"
);
},
{
closed = 1;
nodes = (
"526 455 LINE SMOOTH",
"540 477 OFFCURVE",
"507 499 OFFCURVE",
"493 477 CURVE SMOOTH",
"353 261 LINE",
"272 259 OFFCURVE",
"194 250 OFFCURVE",
"164 230 CURVE SMOOTH",
"145 218 OFFCURVE",
"157 191 OFFCURVE",
"174 200 CURVE SMOOTH",
"207 217 OFFCURVE",
"266 224 OFFCURVE",
"331 226 CURVE",
"170 -22 LINE SMOOTH",
"155 -44 OFFCURVE",
"189 -66 OFFCURVE",
"203 -44 CURVE SMOOTH",
"379 228 LINE",
"478 228 OFFCURVE",
"576 220 OFFCURVE",
"596 219 CURVE SMOOTH",
"623 217 OFFCURVE",
"618 251 OFFCURVE",
"592 254 CURVE SMOOTH",
"562 257 OFFCURVE",
"484 262 OFFCURVE",
"401 262 CURVE"
);
}
);
width = 526;
}
);
note = F;
},
{
glyphname = G.ss01;
lastChange = "2021-09-02 22:26:51 +0000";
layers = (
{
hints = (
{
horizontal = 1;
place = "{-20, 32}";
type = Stem;
}
);
layerId = "466AD7DC-B026-4005-940F-6404FDF7EB07";
paths = (
{
closed = 1;
nodes = (
"727 258 OFFCURVE",
"694 278 OFFCURVE",
"679 255 CURVE",
"679 255 OFFCURVE",
"656 220 OFFCURVE",
"625 173 CURVE",
"603 148 OFFCURVE",
"528 87 OFFCURVE",
"470 51 CURVE SMOOTH",
"404 10 OFFCURVE",
"193 -58 OFFCURVE",
"205 94 CURVE SMOOTH",
"206 107 OFFCURVE",
"208 121 OFFCURVE",
"212 135 CURVE",
"223 134 OFFCURVE",
"235 134 OFFCURVE",
"247 134 CURVE SMOOTH",
"420 134 OFFCURVE",
"624 238 OFFCURVE",
"730 333 CURVE SMOOTH",
"848 439 OFFCURVE",
"848 574 OFFCURVE",
"666 557 CURVE SMOOTH",
"501 542 OFFCURVE",
"253 353 OFFCURVE",
"182 172 CURVE",
"131 179 OFFCURVE",
"77 198 OFFCURVE",
"81 246 CURVE SMOOTH",
"84 294 OFFCURVE",
"150 310 OFFCURVE",
"189 315 CURVE SMOOTH",
"221 319 OFFCURVE",
"207 352 OFFCURVE",
"175 345 CURVE SMOOTH",
"78 325 OFFCURVE",
"44 285 OFFCURVE",
"42 245 CURVE SMOOTH",
"38 196 OFFCURVE",
"80 154 OFFCURVE",
"171 139 CURVE",
"167 124 OFFCURVE",
"164 108 OFFCURVE",
"163 93 CURVE SMOOTH",
"148 -104 OFFCURVE",
"387 -36 OFFCURVE",
"481 18 CURVE SMOOTH",
"512 35 OFFCURVE",
"539 55 OFFCURVE",
"561 75 CURVE",
"480 -47 LINE",
"331 -80 OFFCURVE",
"100 -175 OFFCURVE",
"79 -292 CURVE SMOOTH",
"70 -340 OFFCURVE",
"99 -375 OFFCURVE",
"152 -375 CURVE SMOOTH",
"289 -375 OFFCURVE",
"409 -220 OFFCURVE",
"484 -111 CURVE SMOOTH",
"490 -102 OFFCURVE",
"498 -89 OFFCURVE",
"508 -75 CURVE",
"534 -69 OFFCURVE",
"558 -66 OFFCURVE",
"575 -65 CURVE SMOOTH",
"602 -64 OFFCURVE",
"591 -33 OFFCURVE",
"564 -34 CURVE SMOOTH",
"555 -34 OFFCURVE",
"545 -35 OFFCURVE",
"534 -37 CURVE",
"606 71 OFFCURVE",
"712 235 OFFCURVE",
"712 235 CURVE"
);
},
{
closed = 1;
nodes = (
"812 537 OFFCURVE",
"791 431 OFFCURVE",
"695 346 CURVE SMOOTH",
"615 275 OFFCURVE",
"409 168 OFFCURVE",
"251 168 CURVE SMOOTH",
"225 168 LINE",
"295 329 OFFCURVE",
"529 504 OFFCURVE",
"665 520 CURVE SMOOTH"
);
},
{
closed = 1;
nodes = (
"121 -342 OFFCURVE",
"111 -320 OFFCURVE",
"116 -297 CURVE SMOOTH",
"131 -214 OFFCURVE",
"313 -131 OFFCURVE",
"451 -90 CURVE",
"385 -186 OFFCURVE",
"272 -342 OFFCURVE",
"154 -342 CURVE SMOOTH"
);
}
);
width = 670;
}
);
note = G;
},
{
color = 11;
glyphname = Gbreve.ss01;
lastChange = "2021-09-02 22:55:02 +0000";
layers = (
{
hints = (
{
horizontal = 1;
place = "{-20, 32}";
type = Stem;
}
);
layerId = "466AD7DC-B026-4005-940F-6404FDF7EB07";
paths = (
{
closed = 1;
nodes = (
"727 258 OFFCURVE",
"694 278 OFFCURVE",
"679 255 CURVE SMOOTH",
"625 173 LINE",
"603 148 OFFCURVE",
"528 87 OFFCURVE",
"470 51 CURVE SMOOTH",
"404 10 OFFCURVE",
"193 -58 OFFCURVE",
"205 94 CURVE SMOOTH",
"206 107 OFFCURVE",
"208 121 OFFCURVE",
"212 135 CURVE",
"223 134 OFFCURVE",
"235 134 OFFCURVE",
"247 134 CURVE SMOOTH",
"420 134 OFFCURVE",
"624 238 OFFCURVE",
"730 333 CURVE SMOOTH",
"848 439 OFFCURVE",
"848 574 OFFCURVE",
"666 557 CURVE SMOOTH",
"501 542 OFFCURVE",
"253 353 OFFCURVE",
"182 172 CURVE",
"131 179 OFFCURVE",
"77 198 OFFCURVE",
"81 246 CURVE SMOOTH",
"84 294 OFFCURVE",
"150 310 OFFCURVE",
"189 315 CURVE SMOOTH",
"221 319 OFFCURVE",
"207 352 OFFCURVE",
"175 345 CURVE SMOOTH",
"78 325 OFFCURVE",
"44 285 OFFCURVE",
"42 245 CURVE SMOOTH",
"38 196 OFFCURVE",
"80 154 OFFCURVE",
"171 139 CURVE",
"167 124 OFFCURVE",
"164 108 OFFCURVE",
"163 93 CURVE SMOOTH",
"148 -104 OFFCURVE",
"387 -36 OFFCURVE",
"481 18 CURVE SMOOTH",
"512 35 OFFCURVE",
"539 55 OFFCURVE",
"561 75 CURVE",
"480 -47 LINE",
"331 -80 OFFCURVE",
"100 -175 OFFCURVE",
"79 -292 CURVE SMOOTH",
"70 -340 OFFCURVE",
"99 -375 OFFCURVE",
"152 -375 CURVE SMOOTH",
"289 -375 OFFCURVE",
"409 -220 OFFCURVE",
"484 -111 CURVE SMOOTH",
"490 -102 OFFCURVE",
"498 -89 OFFCURVE",
"508 -75 CURVE",
"534 -69 OFFCURVE",
"558 -66 OFFCURVE",
"575 -65 CURVE SMOOTH",
"602 -64 OFFCURVE",
"591 -33 OFFCURVE",
"564 -34 CURVE SMOOTH",
"555 -34 OFFCURVE",
"545 -35 OFFCURVE",
"534 -37 CURVE",
"606 71 OFFCURVE",
"712 235 OFFCURVE",
"712 235 CURVE"
);
},
{
closed = 1;
nodes = (
"812 537 OFFCURVE",
"791 431 OFFCURVE",
"695 346 CURVE SMOOTH",
"615 275 OFFCURVE",
"409 168 OFFCURVE",
"251 168 CURVE SMOOTH",
"225 168 LINE",
"295 329 OFFCURVE",
"529 504 OFFCURVE",
"665 520 CURVE SMOOTH"
);
},
{
closed = 1;
nodes = (
"121 -342 OFFCURVE",
"111 -320 OFFCURVE",
"116 -297 CURVE SMOOTH",
"131 -214 OFFCURVE",
"313 -131 OFFCURVE",
"451 -90 CURVE",
"385 -186 OFFCURVE",
"272 -342 OFFCURVE",
"154 -342 CURVE SMOOTH"
);
},
{
closed = 1;
nodes = (
"710 722 OFFCURVE",
"675 735 OFFCURVE",
"668 716 CURVE SMOOTH",
"664 705 OFFCURVE",
"662 696 OFFCURVE",
"662 686 CURVE SMOOTH",
"662 642 OFFCURVE",
"704 616 OFFCURVE",
"736 615 CURVE SMOOTH",
"797 611 OFFCURVE",
"838 632 OFFCURVE",
"886 702 CURVE SMOOTH",
"897 719 OFFCURVE",
"868 741 OFFCURVE",
"856 724 CURVE SMOOTH",
"813 662 OFFCURVE",
"784 649 OFFCURVE",
"738 651 CURVE SMOOTH",
"713 653 OFFCURVE",
"691 672 OFFCURVE",
"703 703 CURVE SMOOTH"
);
}
);
width = 670;
}
);
note = Gbreve;
},
{
color = 11;
glyphname = Gcircumflex.ss01;
lastChange = "2021-09-02 22:55:02 +0000";
layers = (
{
hints = (
{
horizontal = 1;
place = "{-20, 32}";
type = Stem;
},
{
place = "{696, 347}";
type = Stem;
}
);
layerId = "466AD7DC-B026-4005-940F-6404FDF7EB07";
paths = (
{
closed = 1;
nodes = (
"727 258 OFFCURVE",
"694 278 OFFCURVE",
"679 255 CURVE SMOOTH",
"625 173 LINE",
"603 148 OFFCURVE",
"528 87 OFFCURVE",
"470 51 CURVE SMOOTH",
"404 10 OFFCURVE",
"193 -58 OFFCURVE",
"205 94 CURVE SMOOTH",
"206 107 OFFCURVE",
"208 121 OFFCURVE",
"212 135 CURVE",
"223 134 OFFCURVE",
"235 134 OFFCURVE",
"247 134 CURVE SMOOTH",
"420 134 OFFCURVE",
"624 238 OFFCURVE",
"730 333 CURVE SMOOTH",
"848 439 OFFCURVE",
"848 574 OFFCURVE",
"666 557 CURVE SMOOTH",
"501 542 OFFCURVE",
"253 353 OFFCURVE",
"182 172 CURVE",
"131 179 OFFCURVE",
"77 198 OFFCURVE",
"81 246 CURVE SMOOTH",
"84 294 OFFCURVE",
"150 310 OFFCURVE",
"189 315 CURVE SMOOTH",
"221 319 OFFCURVE",
"207 352 OFFCURVE",
"175 345 CURVE SMOOTH",
"78 325 OFFCURVE",
"44 285 OFFCURVE",
"42 245 CURVE SMOOTH",
"38 196 OFFCURVE",
"80 154 OFFCURVE",
"171 139 CURVE",
"167 124 OFFCURVE",
"164 108 OFFCURVE",
"163 93 CURVE SMOOTH",
"148 -104 OFFCURVE",
"387 -36 OFFCURVE",
"481 18 CURVE SMOOTH",
"512 35 OFFCURVE",
"539 55 OFFCURVE",
"561 75 CURVE",
"480 -47 LINE",
"331 -80 OFFCURVE",
"100 -175 OFFCURVE",
"79 -292 CURVE SMOOTH",
"70 -340 OFFCURVE",
"99 -375 OFFCURVE",
"152 -375 CURVE SMOOTH",
"289 -375 OFFCURVE",
"409 -220 OFFCURVE",
"484 -111 CURVE SMOOTH",
"490 -102 OFFCURVE",
"498 -89 OFFCURVE",
"508 -75 CURVE",
"534 -69 OFFCURVE",
"558 -66 OFFCURVE",
"575 -65 CURVE SMOOTH",
"602 -64 OFFCURVE",
"591 -33 OFFCURVE",
"564 -34 CURVE SMOOTH",
"555 -34 OFFCURVE",
"545 -35 OFFCURVE",
"534 -37 CURVE",
"606 71 OFFCURVE",
"712 235 OFFCURVE",
"712 235 CURVE"
);
},
{
closed = 1;
nodes = (
"812 537 OFFCURVE",
"791 431 OFFCURVE",
"695 346 CURVE SMOOTH",
"615 275 OFFCURVE",
"409 168 OFFCURVE",
"251 168 CURVE SMOOTH",
"225 168 LINE",
"295 329 OFFCURVE",
"529 504 OFFCURVE",
"665 520 CURVE SMOOTH"
);
},
{
closed = 1;
nodes = (
"121 -342 OFFCURVE",
"111 -320 OFFCURVE",
"116 -297 CURVE SMOOTH",
"131 -214 OFFCURVE",
"313 -131 OFFCURVE",
"451 -90 CURVE",
"385 -186 OFFCURVE",
"272 -342 OFFCURVE",
"154 -342 CURVE SMOOTH"
);
},
{
closed = 1;
nodes = (
"628 635 LINE",
"607 619 OFFCURVE",
"642 601 OFFCURVE",
"664 619 CURVE",
"811 712 LINE",
"820 620 LINE",
"820 597 OFFCURVE",
"860 600 OFFCURVE",
"859 633 CURVE SMOOTH",
"851 734 LINE SMOOTH",
"850 756 OFFCURVE",
"813 759 OFFCURVE",
"795 745 CURVE"
);
}
);
width = 670;
}
);
note = Gcircumflex;
},
{
color = 11;
glyphname = Gdotaccent.ss01;
lastChange = "2021-09-02 22:26:51 +0000";
layers = (
{
hints = (
{
horizontal = 1;
place = "{-20, 32}";
type = Stem;
},
{
horizontal = 1;
place = "{174, 52}";
type = Stem;
},
{
place = "{667, 52}";
type = Stem;
}
);
layerId = "466AD7DC-B026-4005-940F-6404FDF7EB07";
paths = (
{
closed = 1;
nodes = (
"727 258 OFFCURVE",
"694 278 OFFCURVE",
"679 255 CURVE",
"679 255 OFFCURVE",
"656 220 OFFCURVE",
"625 173 CURVE",
"603 148 OFFCURVE",
"528 87 OFFCURVE",
"470 51 CURVE SMOOTH",
"404 10 OFFCURVE",
"193 -58 OFFCURVE",
"205 94 CURVE SMOOTH",
"206 107 OFFCURVE",
"208 121 OFFCURVE",
"212 135 CURVE",
"223 134 OFFCURVE",
"235 134 OFFCURVE",
"247 134 CURVE SMOOTH",
"420 134 OFFCURVE",
"624 238 OFFCURVE",
"730 333 CURVE SMOOTH",
"848 439 OFFCURVE",
"848 574 OFFCURVE",
"666 557 CURVE SMOOTH",
"501 542 OFFCURVE",
"253 353 OFFCURVE",
"182 172 CURVE",
"131 179 OFFCURVE",
"77 198 OFFCURVE",
"81 246 CURVE SMOOTH",
"84 294 OFFCURVE",
"150 310 OFFCURVE",
"189 315 CURVE SMOOTH",
"221 319 OFFCURVE",
"207 352 OFFCURVE",
"175 345 CURVE SMOOTH",
"78 325 OFFCURVE",
"44 285 OFFCURVE",
"42 245 CURVE SMOOTH",
"38 196 OFFCURVE",
"80 154 OFFCURVE",
"171 139 CURVE",
"167 124 OFFCURVE",
"164 108 OFFCURVE",
"163 93 CURVE SMOOTH",
"148 -104 OFFCURVE",
"387 -36 OFFCURVE",
"481 18 CURVE SMOOTH",
"512 35 OFFCURVE",
"539 55 OFFCURVE",
"561 75 CURVE",
"480 -47 LINE",
"331 -80 OFFCURVE",
"100 -175 OFFCURVE",
"79 -292 CURVE SMOOTH",
"70 -340 OFFCURVE",
"99 -375 OFFCURVE",
"152 -375 CURVE SMOOTH",
"289 -375 OFFCURVE",
"409 -220 OFFCURVE",
"484 -111 CURVE SMOOTH",
"490 -102 OFFCURVE",
"498 -89 OFFCURVE",
"508 -75 CURVE",
"534 -69 OFFCURVE",
"558 -66 OFFCURVE",
"575 -65 CURVE SMOOTH",
"602 -64 OFFCURVE",
"591 -33 OFFCURVE",
"564 -34 CURVE SMOOTH",
"555 -34 OFFCURVE",
"545 -35 OFFCURVE",
"534 -37 CURVE",
"606 71 OFFCURVE",
"712 235 OFFCURVE",
"712 235 CURVE"
);
},
{
closed = 1;
nodes = (
"812 537 OFFCURVE",
"791 431 OFFCURVE",
"695 346 CURVE SMOOTH",
"615 275 OFFCURVE",
"409 168 OFFCURVE",
"251 168 CURVE SMOOTH",
"225 168 LINE",
"295 329 OFFCURVE",
"529 504 OFFCURVE",
"665 520 CURVE SMOOTH"
);
},
{
closed = 1;
nodes = (
"121 -342 OFFCURVE",
"111 -320 OFFCURVE",
"116 -297 CURVE SMOOTH",
"131 -214 OFFCURVE",
"313 -131 OFFCURVE",
"451 -90 CURVE",
"385 -186 OFFCURVE",
"272 -342 OFFCURVE",
"154 -342 CURVE SMOOTH"
);
},
{
closed = 1;
nodes = (
"775 612 OFFCURVE",
"786 625 OFFCURVE",
"786 640 CURVE SMOOTH",
"786 656 OFFCURVE",
"775 667 OFFCURVE",
"759 667 CURVE SMOOTH",
"743 667 OFFCURVE",
"731 656 OFFCURVE",
"731 640 CURVE SMOOTH",
"731 625 OFFCURVE",
"743 612 OFFCURVE",
"759 612 CURVE SMOOTH"
);
}
);
width = 670;
}
);
note = Gdotaccent;
},
{
glyphname = H.ss01;
lastChange = "2021-09-02 22:26:51 +0000";
layers = (
{
hints = (
{
horizontal = 1;
place = "{-286, 15}";
type = Stem;
},
{
horizontal = 1;
place = "{-142, 9}";
type = Stem;
},
{
place = "{445, 15}";
type = Stem;
}
);
layerId = "466AD7DC-B026-4005-940F-6404FDF7EB07";
paths = (
{
closed = 1;
nodes = (
"917 240 OFFCURVE",
"918 273 OFFCURVE",
"892 268 CURVE SMOOTH",
"866 263 OFFCURVE",
"833 260 OFFCURVE",
"801 258 CURVE",
"954 495 LINE SMOOTH",
"968 517 OFFCURVE",
"935 539 OFFCURVE",
"920 517 CURVE SMOOTH",
"749 254 LINE",
"642 247 OFFCURVE",
"517 249 OFFCURVE",
"406 259 CURVE",
"499 393 OFFCURVE",
"584 526 OFFCURVE",
"594 542 CURVE SMOOTH",
"605 559 OFFCURVE",
"571 577 OFFCURVE",
"554 551 CURVE SMOOTH",
"511 486 OFFCURVE",
"439 372 OFFCURVE",
"364 264 CURVE",
"321 269 OFFCURVE",
"280 275 OFFCURVE",
"246 284 CURVE SMOOTH",
"226 288 OFFCURVE",
"224 248 OFFCURVE",
"243 244 CURVE SMOOTH",
"244 244 LINE SMOOTH",
"261 240 OFFCURVE",
"280 237 OFFCURVE",
"300 234 CURVE",
"335 223 LINE",
"273 136 OFFCURVE",
"211 58 OFFCURVE",
"165 20 CURVE SMOOTH",
"106 -29 OFFCURVE",
"35 -27 OFFCURVE",
"35 60 CURVE SMOOTH",
"35 84 OFFCURVE",
"3 77 OFFCURVE",
"1 56 CURVE SMOOTH",
"-8 -66 OFFCURVE",
"109 -73 OFFCURVE",
"183 -17 CURVE SMOOTH",
"227 16 OFFCURVE",
"299 108 OFFCURVE",
"370 208 CURVE",
"485 158 OFFCURVE",
"605 64 OFFCURVE",
"570 -23 CURVE",
"556 -45 OFFCURVE",
"587 -72 OFFCURVE",
"602 -50 CURVE SMOOTH",
"775 218 LINE",
"817 222 OFFCURVE",
"856 228 OFFCURVE",
"891 235 CURVE SMOOTH"
);
},
{
closed = 1;
nodes = (
"608 35 LINE",
"592 110 OFFCURVE",
"514 175 OFFCURVE",
"433 218 CURVE",
"528 211 OFFCURVE",
"631 209 OFFCURVE",
"724 214 CURVE"
);
}
);
width = 789;
}
);
note = H;
},
{
color = 11;
glyphname = Hbar.ss01;
lastChange = "2021-09-02 22:54:53 +0000";
layers = (
{
hints = (
{
horizontal = 1;
place = "{-286, 15}";
type = Stem;
},
{
horizontal = 1;
place = "{-142, 9}";
type = Stem;
},
{
horizontal = 1;
place = "{427, 32}";
type = Stem;
},
{
place = "{445, 15}";
type = Stem;
}
);
layerId = "466AD7DC-B026-4005-940F-6404FDF7EB07";
paths = (
{
closed = 1;
nodes = (
"954 495 LINE SMOOTH",
"968 517 OFFCURVE",
"935 539 OFFCURVE",
"920 517 CURVE SMOOTH",
"883 460 LINE",
"541 460 LINE",
"594 542 LINE SMOOTH",
"605 559 OFFCURVE",
"571 577 OFFCURVE",
"554 551 CURVE SMOOTH",
"495 460 LINE",
"414 460 LINE SMOOTH",
"384 460 OFFCURVE",
"384 427 OFFCURVE",
"414 427 CURVE SMOOTH",
"473 427 LINE",
"439 376 OFFCURVE",
"402 319 OFFCURVE",
"364 264 CURVE",
"321 269 OFFCURVE",
"280 275 OFFCURVE",
"246 284 CURVE SMOOTH",
"226 288 OFFCURVE",
"224 248 OFFCURVE",
"244 244 CURVE SMOOTH",
"261 240 OFFCURVE",
"280 237 OFFCURVE",
"300 234 CURVE",
"335 223 LINE",
"273 136 OFFCURVE",
"211 58 OFFCURVE",
"165 20 CURVE SMOOTH",
"106 -29 OFFCURVE",
"35 -27 OFFCURVE",
"35 60 CURVE SMOOTH",
"35 84 OFFCURVE",
"3 77 OFFCURVE",
"1 56 CURVE SMOOTH",
"-8 -66 OFFCURVE",
"109 -73 OFFCURVE",
"183 -17 CURVE SMOOTH",
"227 16 OFFCURVE",
"299 108 OFFCURVE",
"370 208 CURVE",
"485 158 OFFCURVE",
"605 64 OFFCURVE",
"570 -23 CURVE",
"556 -45 OFFCURVE",
"587 -72 OFFCURVE",
"602 -50 CURVE SMOOTH",
"775 218 LINE",
"817 222 OFFCURVE",
"856 228 OFFCURVE",
"891 235 CURVE SMOOTH",
"917 240 OFFCURVE",
"918 273 OFFCURVE",
"892 268 CURVE SMOOTH",
"866 263 OFFCURVE",
"833 260 OFFCURVE",
"801 258 CURVE",
"910 427 LINE",
"970 427 LINE SMOOTH",
"1001 427 OFFCURVE",
"1001 460 OFFCURVE",
"970 460 CURVE SMOOTH",
"931 460 LINE"
);
},
{
closed = 1;
nodes = (
"861 427 LINE",
"749 254 LINE",
"642 247 OFFCURVE",
"517 249 OFFCURVE",
"406 259 CURVE",
"447 319 OFFCURVE",
"487 378 OFFCURVE",
"519 427 CURVE"
);
},
{
closed = 1;
nodes = (
"608 35 LINE",
"592 110 OFFCURVE",
"514 175 OFFCURVE",
"433 218 CURVE",
"528 211 OFFCURVE",
"631 209 OFFCURVE",
"724 214 CURVE"
);
}
);
width = 789;
}
);
note = Hbar;
},
{
color = 11;
glyphname = Hcircumflex.ss01;
lastChange = "2021-09-02 22:54:53 +0000";
layers = (
{
hints = (
{
horizontal = 1;
place = "{-286, 15}";
type = Stem;
},
{
horizontal = 1;
place = "{-142, 9}";
type = Stem;
},
{
place = "{445, 15}";
type = Stem;
},
{
place = "{737, 347}";
type = Stem;
}
);
layerId = "466AD7DC-B026-4005-940F-6404FDF7EB07";
paths = (
{
closed = 1;
nodes = (
"917 240 OFFCURVE",
"918 273 OFFCURVE",
"892 268 CURVE SMOOTH",
"866 263 OFFCURVE",
"833 260 OFFCURVE",
"801 258 CURVE",
"954 495 LINE SMOOTH",
"968 517 OFFCURVE",
"935 539 OFFCURVE",
"920 517 CURVE SMOOTH",
"749 254 LINE",
"642 247 OFFCURVE",
"517 249 OFFCURVE",
"406 259 CURVE",
"499 393 OFFCURVE",
"584 526 OFFCURVE",
"594 542 CURVE SMOOTH",
"605 559 OFFCURVE",
"571 577 OFFCURVE",
"554 551 CURVE SMOOTH",
"511 486 OFFCURVE",
"439 372 OFFCURVE",
"364 264 CURVE",
"321 269 OFFCURVE",
"280 275 OFFCURVE",
"246 284 CURVE SMOOTH",
"226 288 OFFCURVE",
"224 248 OFFCURVE",
"244 244 CURVE SMOOTH",
"261 240 OFFCURVE",
"280 237 OFFCURVE",
"300 234 CURVE",
"335 223 LINE",
"273 136 OFFCURVE",
"211 58 OFFCURVE",
"165 20 CURVE SMOOTH",
"106 -29 OFFCURVE",
"35 -27 OFFCURVE",
"35 60 CURVE SMOOTH",
"35 84 OFFCURVE",
"3 77 OFFCURVE",
"1 56 CURVE SMOOTH",
"-8 -66 OFFCURVE",
"109 -73 OFFCURVE",
"183 -17 CURVE SMOOTH",
"227 16 OFFCURVE",
"299 108 OFFCURVE",
"370 208 CURVE",
"485 158 OFFCURVE",
"605 64 OFFCURVE",
"570 -23 CURVE",
"556 -45 OFFCURVE",
"587 -72 OFFCURVE",
"602 -50 CURVE SMOOTH",
"775 218 LINE",
"817 222 OFFCURVE",
"856 228 OFFCURVE",
"891 235 CURVE SMOOTH"
);
},
{
closed = 1;
nodes = (
"608 35 LINE",
"592 110 OFFCURVE",
"514 175 OFFCURVE",
"433 218 CURVE",
"528 211 OFFCURVE",
"631 209 OFFCURVE",
"724 214 CURVE"
);
},
{
closed = 1;
nodes = (
"669 613 LINE",
"648 597 OFFCURVE",
"683 579 OFFCURVE",
"705 597 CURVE",
"852 690 LINE",
"861 598 LINE",
"861 575 OFFCURVE",
"901 578 OFFCURVE",
"900 611 CURVE SMOOTH",
"892 712 LINE SMOOTH",
"891 734 OFFCURVE",
"854 737 OFFCURVE",
"836 723 CURVE"
);
}
);
width = 789;
}
);
note = Hcircumflex;
},
{
glyphname = I.ss01;
lastChange = "2021-09-02 22:26:51 +0000";
layers = (
{
hints = (
{
horizontal = 1;
place = "{-81, 32}";
type = Stem;
},
{
horizontal = 1;
place = "{167, 32}";
type = Stem;
},
{
horizontal = 1;
place = "{292, 32}";
type = Stem;
}
);
layerId = "466AD7DC-B026-4005-940F-6404FDF7EB07";
paths = (
{
closed = 1;
nodes = (
"90 -42 OFFCURVE",
"56 75 OFFCURVE",
"124 176 CURVE",
"199 202 OFFCURVE",
"369 184 OFFCURVE",
"432 170 CURVE SMOOTH",
"472 161 OFFCURVE",
"459 199 OFFCURVE",
"444 203 CURVE SMOOTH",
"398 215 OFFCURVE",
"219 234 OFFCURVE",
"142 217 CURVE",
"146 240 OFFCURVE",
"117 251 OFFCURVE",
"93 239 CURVE SMOOTH",
"41 213 OFFCURVE",
"14 162 OFFCURVE",
"74 165 CURVE",
"14 50 OFFCURVE",
"54 -78 OFFCURVE",
"216 -78 CURVE SMOOTH",
"381 -78 OFFCURVE",
"507 95 OFFCURVE",
"589 218 CURVE SMOOTH",
"674 344 OFFCURVE",
"823 568 OFFCURVE",
"823 568 CURVE",
"842 597 OFFCURVE",
"819 599 OFFCURVE",
"781 594 CURVE SMOOTH",
"728 587 OFFCURVE",
"675 569 OFFCURVE",
"634 544 CURVE SMOOTH",
"557 496 OFFCURVE",
"483 406 OFFCURVE",
"532 345 CURVE SMOOTH",
"549 324 OFFCURVE",
"579 340 OFFCURVE",
"562 361 CURVE SMOOTH",
"543 384 OFFCURVE",
"574 463 OFFCURVE",
"659 516 CURVE SMOOTH",
"691 535 OFFCURVE",
"729 545 OFFCURVE",
"765 553 CURVE",
"564 247 LINE SMOOTH",
"492 139 OFFCURVE",
"360 -42 OFFCURVE",
"216 -42 CURVE SMOOTH"
);
}
);
width = 576;
}
);
note = I;
},
{
glyphname = IJ.ss01;
lastChange = "2021-09-02 22:26:51 +0000";
layers = (
{
hints = (
{
horizontal = 1;
place = "{-81, 32}";
type = Stem;
},
{
horizontal = 1;
place = "{167, 32}";
type = Stem;
},
{
horizontal = 1;
place = "{192, 32}";
type = Stem;
},
{
horizontal = 1;
place = "{292, 32}";
type = Stem;
},
{
place = "{713, 32}";
type = Stem;
}
);
layerId = "466AD7DC-B026-4005-940F-6404FDF7EB07";
paths = (
{
closed = 1;
nodes = (
"1157 488 OFFCURVE",
"1152 487 OFFCURVE",
"1148 487 CURVE",
"1142 499 OFFCURVE",
"1118 503 OFFCURVE",
"1109 486 CURVE",
"1108 485 OFFCURVE",
"1108 485 OFFCURVE",
"1108 484 CURVE",
"933 466 OFFCURVE",
"726 388 OFFCURVE",
"656 244 CURVE SMOOTH",
"623 173 OFFCURVE",
"655 119 OFFCURVE",
"731 116 CURVE SMOOTH",
"766 115 OFFCURVE",
"808 123 OFFCURVE",
"853 143 CURVE SMOOTH",
"882 157 OFFCURVE",
"880 190 OFFCURVE",
"852 174 CURVE SMOOTH",
"829 160 OFFCURVE",
"775 142 OFFCURVE",
"734 145 CURVE SMOOTH",
"683 148 OFFCURVE",
"669 193 OFFCURVE",
"692 237 CURVE SMOOTH",
"750 346 OFFCURVE",
"932 419 OFFCURVE",
"1081 444 CURVE",
"1052 398 LINE SMOOTH",
"971 264 OFFCURVE",
"887 133 OFFCURVE",
"798 5 CURVE",
"764 0 OFFCURVE",
"725 -7 OFFCURVE",
"685 -18 CURVE SMOOTH",
"569 -50 OFFCURVE",
"337 -135 OFFCURVE",
"315 -283 CURVE SMOOTH",
"304 -353 OFFCURVE",
"348 -386 OFFCURVE",
"398 -391 CURVE SMOOTH",
"550 -403 OFFCURVE",
"655 -259 OFFCURVE",
"735 -151 CURVE SMOOTH",
"826 -25 LINE",
"847 -22 OFFCURVE",
"865 -21 OFFCURVE",
"881 -22 CURVE SMOOTH",
"912 -23 OFFCURVE",
"908 10 OFFCURVE",
"878 11 CURVE SMOOTH",
"852 11 LINE",
"938 133 OFFCURVE",
"1021 259 OFFCURVE",
"1098 387 CURVE SMOOTH",
"1115 416 OFFCURVE",
"1127 437 OFFCURVE",
"1136 451 CURVE",
"1151 453 LINE SMOOTH",
"1178 455 OFFCURVE",
"1187 489 OFFCURVE",
"1161 488 CURVE SMOOTH"
);
},
{
closed = 1;
nodes = (
"90 -42 OFFCURVE",
"56 75 OFFCURVE",
"124 176 CURVE",
"199 202 OFFCURVE",
"369 184 OFFCURVE",
"432 170 CURVE SMOOTH",
"472 161 OFFCURVE",
"459 199 OFFCURVE",
"444 203 CURVE SMOOTH",
"398 215 OFFCURVE",
"219 234 OFFCURVE",
"142 217 CURVE",
"146 240 OFFCURVE",
"117 251 OFFCURVE",
"93 239 CURVE SMOOTH",
"41 213 OFFCURVE",
"14 162 OFFCURVE",
"74 165 CURVE",
"14 50 OFFCURVE",
"54 -78 OFFCURVE",
"216 -78 CURVE SMOOTH",
"381 -78 OFFCURVE",
"507 95 OFFCURVE",
"589 218 CURVE SMOOTH",
"674 344 OFFCURVE",
"823 568 OFFCURVE",
"823 568 CURVE",
"842 597 OFFCURVE",
"819 599 OFFCURVE",
"781 594 CURVE SMOOTH",
"728 587 OFFCURVE",
"675 569 OFFCURVE",
"634 544 CURVE SMOOTH",
"557 496 OFFCURVE",
"483 406 OFFCURVE",
"532 345 CURVE SMOOTH",
"549 324 OFFCURVE",
"579 340 OFFCURVE",
"562 361 CURVE SMOOTH",
"543 384 OFFCURVE",
"574 463 OFFCURVE",
"659 516 CURVE SMOOTH",
"691 535 OFFCURVE",
"729 545 OFFCURVE",
"765 553 CURVE",
"564 247 LINE SMOOTH",
"492 139 OFFCURVE",
"360 -42 OFFCURVE",
"216 -42 CURVE SMOOTH"
);
},
{
closed = 1;
nodes = (
"703 -127 LINE SMOOTH",
"645 -206 OFFCURVE",
"523 -362 OFFCURVE",
"409 -352 CURVE SMOOTH",
"371 -349 OFFCURVE",
"359 -324 OFFCURVE",
"362 -295 CURVE SMOOTH",
"372 -175 OFFCURVE",
"586 -86 OFFCURVE",
"682 -58 CURVE SMOOTH",
"713 -48 OFFCURVE",
"742 -41 OFFCURVE",
"769 -35 CURVE"
);
}
);
width = 991;
}
);
note = IJ;
},
{
color = 11;
glyphname = Iacute.ss01;
lastChange = "2021-09-02 22:26:51 +0000";
layers = (
{
hints = (
{
horizontal = 1;
place = "{-81, 32}";
type = Stem;
},
{
horizontal = 1;
place = "{167, 32}";
type = Stem;
},
{
horizontal = 1;
place = "{292, 32}";
type = Stem;
}
);
layerId = "466AD7DC-B026-4005-940F-6404FDF7EB07";
paths = (
{
closed = 1;
nodes = (
"90 -42 OFFCURVE",
"56 75 OFFCURVE",
"124 176 CURVE",
"199 202 OFFCURVE",
"369 184 OFFCURVE",
"432 170 CURVE SMOOTH",
"472 161 OFFCURVE",
"459 199 OFFCURVE",
"444 203 CURVE SMOOTH",
"398 215 OFFCURVE",
"219 234 OFFCURVE",
"142 217 CURVE",
"146 240 OFFCURVE",
"117 251 OFFCURVE",
"93 239 CURVE SMOOTH",
"41 213 OFFCURVE",
"14 162 OFFCURVE",
"74 165 CURVE",
"14 50 OFFCURVE",
"54 -78 OFFCURVE",
"216 -78 CURVE SMOOTH",
"381 -78 OFFCURVE",
"507 95 OFFCURVE",
"589 218 CURVE SMOOTH",
"674 344 OFFCURVE",
"823 568 OFFCURVE",
"823 568 CURVE",
"842 597 OFFCURVE",
"819 599 OFFCURVE",
"781 594 CURVE SMOOTH",
"728 587 OFFCURVE",
"675 569 OFFCURVE",
"634 544 CURVE SMOOTH",
"557 496 OFFCURVE",
"483 406 OFFCURVE",
"532 345 CURVE SMOOTH",
"549 324 OFFCURVE",
"579 340 OFFCURVE",
"562 361 CURVE SMOOTH",
"543 384 OFFCURVE",
"574 463 OFFCURVE",
"659 516 CURVE SMOOTH",
"691 535 OFFCURVE",
"729 545 OFFCURVE",
"765 553 CURVE",
"564 247 LINE SMOOTH",
"492 139 OFFCURVE",
"360 -42 OFFCURVE",
"216 -42 CURVE SMOOTH"
);
},
{
closed = 1;
nodes = (
"731 660 OFFCURVE",
"744 630 OFFCURVE",
"777 645 CURVE SMOOTH",
"895 695 LINE SMOOTH",
"918 705 OFFCURVE",
"907 748 OFFCURVE",
"879 733 CURVE SMOOTH",
"876 731 OFFCURVE",
"760 675 OFFCURVE",
"760 675 CURVE"
);
}
);
width = 576;
}
);
note = Iacute;
},
{
color = 11;
glyphname = Icircumflex.ss01;
lastChange = "2021-09-02 22:54:53 +0000";
layers = (
{
hints = (
{
horizontal = 1;
place = "{-81, 32}";
type = Stem;
},
{
horizontal = 1;
place = "{167, 32}";
type = Stem;
},
{
horizontal = 1;
place = "{292, 32}";
type = Stem;
},
{
place = "{746, 347}";
type = Stem;
}
);
layerId = "466AD7DC-B026-4005-940F-6404FDF7EB07";
paths = (
{
closed = 1;
nodes = (
"90 -42 OFFCURVE",
"56 75 OFFCURVE",
"124 176 CURVE",
"199 202 OFFCURVE",
"369 184 OFFCURVE",
"432 170 CURVE SMOOTH",
"472 161 OFFCURVE",
"459 199 OFFCURVE",
"444 203 CURVE SMOOTH",
"398 215 OFFCURVE",
"219 234 OFFCURVE",
"142 217 CURVE",
"146 240 OFFCURVE",
"117 251 OFFCURVE",
"93 239 CURVE SMOOTH",
"41 213 OFFCURVE",
"14 162 OFFCURVE",
"74 165 CURVE",
"14 50 OFFCURVE",
"54 -78 OFFCURVE",
"216 -78 CURVE SMOOTH",
"381 -78 OFFCURVE",
"507 95 OFFCURVE",
"589 218 CURVE SMOOTH",
"674 344 OFFCURVE",
"823 568 OFFCURVE",
"823 568 CURVE",
"842 597 OFFCURVE",
"819 599 OFFCURVE",
"781 594 CURVE SMOOTH",
"728 587 OFFCURVE",
"675 569 OFFCURVE",
"634 544 CURVE SMOOTH",
"557 496 OFFCURVE",
"483 406 OFFCURVE",
"532 345 CURVE SMOOTH",
"549 324 OFFCURVE",
"579 340 OFFCURVE",
"562 361 CURVE SMOOTH",
"543 384 OFFCURVE",
"574 463 OFFCURVE",
"659 516 CURVE SMOOTH",
"691 535 OFFCURVE",
"729 545 OFFCURVE",
"765 553 CURVE",
"564 247 LINE SMOOTH",
"492 139 OFFCURVE",
"360 -42 OFFCURVE",
"216 -42 CURVE SMOOTH"
);
},
{
closed = 1;
nodes = (
"678 649 LINE",
"657 633 OFFCURVE",
"692 615 OFFCURVE",
"714 633 CURVE",
"861 726 LINE",
"870 634 LINE",
"870 611 OFFCURVE",
"910 614 OFFCURVE",
"909 647 CURVE SMOOTH",
"901 748 LINE SMOOTH",
"900 770 OFFCURVE",
"863 773 OFFCURVE",
"845 759 CURVE"
);
}
);
width = 576;
}
);
note = Icircumflex;
},
{
color = 11;
glyphname = Idieresis.ss01;
lastChange = "2021-09-02 22:54:53 +0000";
layers = (
{
hints = (
{
horizontal = 1;
place = "{-81, 32}";
type = Stem;
},
{
horizontal = 1;
place = "{167, 32}";
type = Stem;
},
{
horizontal = 1;
place = "{257, 52}";
type = Stem;
},
{
horizontal = 1;
place = "{292, 32}";
type = Stem;
},
{
place = "{698, 52}";
type = Stem;
}
);
layerId = "466AD7DC-B026-4005-940F-6404FDF7EB07";
paths = (
{
closed = 1;
nodes = (
"90 -42 OFFCURVE",
"56 75 OFFCURVE",
"124 176 CURVE",
"199 202 OFFCURVE",
"369 184 OFFCURVE",
"432 170 CURVE SMOOTH",
"472 161 OFFCURVE",
"459 199 OFFCURVE",
"444 203 CURVE SMOOTH",
"398 215 OFFCURVE",
"219 234 OFFCURVE",
"142 217 CURVE",
"146 240 OFFCURVE",
"117 251 OFFCURVE",
"93 239 CURVE SMOOTH",
"41 213 OFFCURVE",
"14 162 OFFCURVE",
"74 165 CURVE",
"14 50 OFFCURVE",
"54 -78 OFFCURVE",
"216 -78 CURVE SMOOTH",
"381 -78 OFFCURVE",
"507 95 OFFCURVE",
"589 218 CURVE SMOOTH",
"674 344 OFFCURVE",
"823 568 OFFCURVE",
"823 568 CURVE",
"842 597 OFFCURVE",
"819 599 OFFCURVE",
"781 594 CURVE SMOOTH",
"728 587 OFFCURVE",
"675 569 OFFCURVE",
"634 544 CURVE SMOOTH",
"557 496 OFFCURVE",
"483 406 OFFCURVE",
"532 345 CURVE SMOOTH",
"549 324 OFFCURVE",
"579 340 OFFCURVE",
"562 361 CURVE SMOOTH",
"543 384 OFFCURVE",
"574 463 OFFCURVE",
"659 516 CURVE SMOOTH",
"691 535 OFFCURVE",
"729 545 OFFCURVE",
"765 553 CURVE",
"564 247 LINE SMOOTH",
"492 139 OFFCURVE",
"360 -42 OFFCURVE",
"216 -42 CURVE SMOOTH"
);
},
{
closed = 1;
nodes = (
"896 641 OFFCURVE",
"907 654 OFFCURVE",
"907 669 CURVE SMOOTH",
"907 685 OFFCURVE",
"896 696 OFFCURVE",
"880 696 CURVE SMOOTH",
"864 696 OFFCURVE",
"852 685 OFFCURVE",
"852 669 CURVE SMOOTH",
"852 654 OFFCURVE",
"864 641 OFFCURVE",
"880 641 CURVE SMOOTH"
);
},
{
closed = 1;
nodes = (
"780 641 OFFCURVE",
"791 654 OFFCURVE",
"791 669 CURVE SMOOTH",
"791 685 OFFCURVE",
"780 696 OFFCURVE",
"764 696 CURVE SMOOTH",
"748 696 OFFCURVE",
"736 685 OFFCURVE",
"736 669 CURVE SMOOTH",
"736 654 OFFCURVE",
"748 641 OFFCURVE",
"764 641 CURVE SMOOTH"
);
}
);
width = 576;
}
);
note = Idieresis;
},
{
color = 11;
glyphname = Idotaccent.ss01;
lastChange = "2021-09-02 22:26:51 +0000";
layers = (
{
hints = (
{
horizontal = 1;
place = "{-81, 32}";
type = Stem;
},
{
horizontal = 1;
place = "{167, 32}";
type = Stem;
},
{
horizontal = 1;
place = "{215, 52}";
type = Stem;
},
{
horizontal = 1;
place = "{292, 32}";
type = Stem;
},
{
place = "{760, 52}";
type = Stem;
}
);
layerId = "466AD7DC-B026-4005-940F-6404FDF7EB07";
paths = (
{
closed = 1;
nodes = (
"90 -42 OFFCURVE",
"56 75 OFFCURVE",
"124 176 CURVE",
"199 202 OFFCURVE",
"369 184 OFFCURVE",
"432 170 CURVE SMOOTH",
"472 161 OFFCURVE",
"459 199 OFFCURVE",
"444 203 CURVE SMOOTH",
"398 215 OFFCURVE",
"219 234 OFFCURVE",
"142 217 CURVE",
"146 240 OFFCURVE",
"117 251 OFFCURVE",
"93 239 CURVE SMOOTH",
"41 213 OFFCURVE",
"14 162 OFFCURVE",
"74 165 CURVE",
"14 50 OFFCURVE",
"54 -78 OFFCURVE",
"216 -78 CURVE SMOOTH",
"381 -78 OFFCURVE",
"507 95 OFFCURVE",
"589 218 CURVE SMOOTH",
"674 344 OFFCURVE",
"823 568 OFFCURVE",
"823 568 CURVE",
"842 597 OFFCURVE",
"819 599 OFFCURVE",
"781 594 CURVE SMOOTH",
"728 587 OFFCURVE",
"675 569 OFFCURVE",
"634 544 CURVE SMOOTH",
"557 496 OFFCURVE",
"483 406 OFFCURVE",
"532 345 CURVE SMOOTH",
"549 324 OFFCURVE",
"579 340 OFFCURVE",
"562 361 CURVE SMOOTH",
"543 384 OFFCURVE",
"574 463 OFFCURVE",
"659 516 CURVE SMOOTH",
"691 535 OFFCURVE",
"729 545 OFFCURVE",
"765 553 CURVE",
"564 247 LINE SMOOTH",
"492 139 OFFCURVE",
"360 -42 OFFCURVE",
"216 -42 CURVE SMOOTH"
);
},
{
closed = 1;
nodes = (
"868 653 OFFCURVE",
"879 666 OFFCURVE",
"879 681 CURVE SMOOTH",
"879 697 OFFCURVE",
"868 708 OFFCURVE",
"852 708 CURVE SMOOTH",
"836 708 OFFCURVE",
"824 697 OFFCURVE",
"824 681 CURVE SMOOTH",
"824 666 OFFCURVE",
"836 653 OFFCURVE",
"852 653 CURVE SMOOTH"
);
}
);
width = 576;
}
);
note = Idotaccent;
},
{
color = 11;
glyphname = Igrave.ss01;
lastChange = "2021-09-02 22:54:53 +0000";
layers = (
{
hints = (
{
horizontal = 1;
place = "{-81, 32}";
type = Stem;
},
{
horizontal = 1;
place = "{167, 32}";
type = Stem;
},
{
horizontal = 1;
place = "{292, 32}";
type = Stem;
}
);
layerId = "466AD7DC-B026-4005-940F-6404FDF7EB07";
paths = (
{
closed = 1;
nodes = (
"90 -42 OFFCURVE",
"56 75 OFFCURVE",
"124 176 CURVE",
"199 202 OFFCURVE",
"369 184 OFFCURVE",
"432 170 CURVE SMOOTH",
"472 161 OFFCURVE",
"459 199 OFFCURVE",
"444 203 CURVE SMOOTH",
"398 215 OFFCURVE",
"219 234 OFFCURVE",
"142 217 CURVE",
"146 240 OFFCURVE",
"117 251 OFFCURVE",
"93 239 CURVE SMOOTH",
"41 213 OFFCURVE",
"14 162 OFFCURVE",
"74 165 CURVE",
"14 50 OFFCURVE",
"54 -78 OFFCURVE",
"216 -78 CURVE SMOOTH",
"381 -78 OFFCURVE",
"507 95 OFFCURVE",
"589 218 CURVE SMOOTH",
"674 344 OFFCURVE",
"823 568 OFFCURVE",
"823 568 CURVE",
"842 597 OFFCURVE",
"819 599 OFFCURVE",
"781 594 CURVE SMOOTH",
"728 587 OFFCURVE",
"675 569 OFFCURVE",
"634 544 CURVE SMOOTH",
"557 496 OFFCURVE",
"483 406 OFFCURVE",
"532 345 CURVE SMOOTH",
"549 324 OFFCURVE",
"579 340 OFFCURVE",
"562 361 CURVE SMOOTH",
"543 384 OFFCURVE",
"574 463 OFFCURVE",
"659 516 CURVE SMOOTH",
"691 535 OFFCURVE",
"729 545 OFFCURVE",
"765 553 CURVE",
"564 247 LINE SMOOTH",
"492 139 OFFCURVE",
"360 -42 OFFCURVE",
"216 -42 CURVE SMOOTH"
);
},
{
closed = 1;
nodes = (
"819 678 OFFCURVE",
"715 731 OFFCURVE",
"712 733 CURVE SMOOTH",
"684 748 OFFCURVE",
"673 705 OFFCURVE",
"696 695 CURVE SMOOTH",
"802 648 LINE SMOOTH",
"835 633 OFFCURVE",
"848 663 OFFCURVE",
"819 678 CURVE"
);
}
);
width = 576;
}
);
note = Igrave;
},
{
color = 11;
glyphname = Imacron.ss01;
lastChange = "2021-09-02 22:54:53 +0000";
layers = (
{
hints = (
{
horizontal = 1;
place = "{-81, 32}";
type = Stem;
},
{
horizontal = 1;
place = "{167, 32}";
type = Stem;
},
{
horizontal = 1;
place = "{281, 32}";
type = Stem;
},
{
horizontal = 1;
place = "{292, 32}";
type = Stem;
}
);
layerId = "466AD7DC-B026-4005-940F-6404FDF7EB07";
paths = (
{
closed = 1;
nodes = (
"90 -42 OFFCURVE",
"56 75 OFFCURVE",
"124 176 CURVE",
"199 202 OFFCURVE",
"369 184 OFFCURVE",
"432 170 CURVE SMOOTH",
"472 161 OFFCURVE",
"459 199 OFFCURVE",
"444 203 CURVE SMOOTH",
"398 215 OFFCURVE",
"219 234 OFFCURVE",
"142 217 CURVE",
"146 240 OFFCURVE",
"117 251 OFFCURVE",
"93 239 CURVE SMOOTH",
"41 213 OFFCURVE",
"14 162 OFFCURVE",
"74 165 CURVE",
"14 50 OFFCURVE",
"54 -78 OFFCURVE",
"216 -78 CURVE SMOOTH",
"381 -78 OFFCURVE",
"507 95 OFFCURVE",
"589 218 CURVE SMOOTH",
"674 344 OFFCURVE",
"823 568 OFFCURVE",
"823 568 CURVE",
"842 597 OFFCURVE",
"819 599 OFFCURVE",
"781 594 CURVE SMOOTH",
"728 587 OFFCURVE",
"675 569 OFFCURVE",
"634 544 CURVE SMOOTH",
"557 496 OFFCURVE",
"483 406 OFFCURVE",
"532 345 CURVE SMOOTH",
"549 324 OFFCURVE",
"579 340 OFFCURVE",
"562 361 CURVE SMOOTH",
"543 384 OFFCURVE",
"574 463 OFFCURVE",
"659 516 CURVE SMOOTH",
"691 535 OFFCURVE",
"729 545 OFFCURVE",
"765 553 CURVE",
"564 247 LINE SMOOTH",
"492 139 OFFCURVE",
"360 -42 OFFCURVE",
"216 -42 CURVE SMOOTH"
);
},
{
closed = 1;
nodes = (
"749 690 LINE SMOOTH",
"724 690 OFFCURVE",
"724 652 OFFCURVE",
"749 652 CURVE SMOOTH",
"903 652 LINE SMOOTH",
"928 652 OFFCURVE",
"928 690 OFFCURVE",
"903 690 CURVE SMOOTH"
);
}
);
width = 576;
}
);
note = Imacron;
},
{
color = 11;
glyphname = Iogonek.ss01;
lastChange = "2021-09-02 22:26:51 +0000";
layers = (
{
hints = (
{
horizontal = 1;
place = "{-91, 32}";
type = Stem;
},
{
horizontal = 1;
place = "{-81, 32}";
type = Stem;
},
{
horizontal = 1;
place = "{167, 32}";
type = Stem;
},
{
horizontal = 1;
place = "{236, 19}";
type = Stem;
},
{
horizontal = 1;
place = "{292, 32}";
type = Stem;
},
{
place = "{460, 32}";
type = Stem;
}
);
layerId = "466AD7DC-B026-4005-940F-6404FDF7EB07";
paths = (
{
closed = 1;
nodes = (
"196 -82 OFFCURVE",
"198 -80 OFFCURVE",
"200 -77 CURVE",
"205 -78 OFFCURVE",
"210 -78 OFFCURVE",
"216 -78 CURVE SMOOTH",
"381 -78 OFFCURVE",
"507 95 OFFCURVE",
"589 218 CURVE SMOOTH",
"674 344 OFFCURVE",
"823 568 OFFCURVE",
"823 568 CURVE",
"842 597 OFFCURVE",
"819 599 OFFCURVE",
"781 594 CURVE SMOOTH",
"728 587 OFFCURVE",
"675 569 OFFCURVE",
"634 544 CURVE SMOOTH",
"557 496 OFFCURVE",
"483 406 OFFCURVE",
"532 345 CURVE SMOOTH",
"549 324 OFFCURVE",
"579 340 OFFCURVE",
"562 361 CURVE SMOOTH",
"543 384 OFFCURVE",
"574 463 OFFCURVE",
"659 516 CURVE SMOOTH",
"691 535 OFFCURVE",
"729 545 OFFCURVE",
"765 553 CURVE",
"564 247 LINE SMOOTH",
"492 139 OFFCURVE",
"360 -42 OFFCURVE",
"216 -42 CURVE SMOOTH",
"90 -42 OFFCURVE",
"56 75 OFFCURVE",
"124 176 CURVE",
"199 202 OFFCURVE",
"369 184 OFFCURVE",
"432 170 CURVE SMOOTH",
"472 161 OFFCURVE",
"459 199 OFFCURVE",
"444 203 CURVE SMOOTH",
"398 215 OFFCURVE",
"219 234 OFFCURVE",
"142 217 CURVE",
"146 240 OFFCURVE",
"117 251 OFFCURVE",
"93 239 CURVE SMOOTH",
"41 213 OFFCURVE",
"14 162 OFFCURVE",
"74 165 CURVE",
"22 66 OFFCURVE",
"45 -43 OFFCURVE",
"156 -71 CURVE",
"126 -94 OFFCURVE",
"72 -160 OFFCURVE",
"60 -215 CURVE SMOOTH",
"50 -255 OFFCURVE",
"70 -272 OFFCURVE",
"96 -276 CURVE SMOOTH",
"148 -284 OFFCURVE",
"205 -249 OFFCURVE",
"257 -212 CURVE SMOOTH",
"277 -197 OFFCURVE",
"274 -162 OFFCURVE",
"255 -177 CURVE SMOOTH",
"235 -192 OFFCURVE",
"167 -246 OFFCURVE",
"122 -239 CURVE SMOOTH",
"64 -230 OFFCURVE",
"158 -108 OFFCURVE",
"192 -85 CURVE SMOOTH"
);
}
);
width = 576;
}
);
note = Iogonek;
},
{
color = 11;
glyphname = Itilde.ss01;
lastChange = "2021-09-02 22:26:51 +0000";
layers = (
{
hints = (
{
horizontal = 1;
place = "{-81, 32}";
type = Stem;
},
{
horizontal = 1;
place = "{167, 32}";
type = Stem;
},
{
horizontal = 1;
place = "{292, 32}";
type = Stem;
}
);
layerId = "466AD7DC-B026-4005-940F-6404FDF7EB07";
paths = (
{
closed = 1;
nodes = (
"90 -42 OFFCURVE",
"56 75 OFFCURVE",
"124 176 CURVE",
"199 202 OFFCURVE",
"369 184 OFFCURVE",
"432 170 CURVE SMOOTH",
"472 161 OFFCURVE",
"459 199 OFFCURVE",
"444 203 CURVE SMOOTH",
"398 215 OFFCURVE",
"219 234 OFFCURVE",
"142 217 CURVE",
"146 240 OFFCURVE",
"117 251 OFFCURVE",
"93 239 CURVE SMOOTH",
"41 213 OFFCURVE",
"14 162 OFFCURVE",
"74 165 CURVE",
"14 50 OFFCURVE",
"54 -78 OFFCURVE",
"216 -78 CURVE SMOOTH",
"381 -78 OFFCURVE",
"507 95 OFFCURVE",
"589 218 CURVE SMOOTH",
"674 344 OFFCURVE",
"823 568 OFFCURVE",
"823 568 CURVE",
"842 597 OFFCURVE",
"819 599 OFFCURVE",
"781 594 CURVE SMOOTH",
"728 587 OFFCURVE",
"675 569 OFFCURVE",
"634 544 CURVE SMOOTH",
"557 496 OFFCURVE",
"483 406 OFFCURVE",
"532 345 CURVE SMOOTH",
"549 324 OFFCURVE",
"579 340 OFFCURVE",
"562 361 CURVE SMOOTH",
"543 384 OFFCURVE",
"574 463 OFFCURVE",
"659 516 CURVE SMOOTH",
"691 535 OFFCURVE",
"729 545 OFFCURVE",
"765 553 CURVE",
"564 247 LINE SMOOTH",
"492 139 OFFCURVE",
"360 -42 OFFCURVE",
"216 -42 CURVE SMOOTH"
);
},
{
closed = 1;
nodes = (
"958 710 OFFCURVE",
"932 728 OFFCURVE",
"916 710 CURVE SMOOTH",
"902 693 OFFCURVE",
"890 684 OFFCURVE",
"870 684 CURVE SMOOTH",
"859 684 OFFCURVE",
"854 692 OFFCURVE",
"847 702 CURVE SMOOTH",
"839 715 OFFCURVE",
"828 729 OFFCURVE",
"804 729 CURVE SMOOTH",
"766 729 OFFCURVE",
"737 707 OFFCURVE",
"704 674 CURVE SMOOTH",
"686 657 OFFCURVE",
"706 635 OFFCURVE",
"724 652 CURVE SMOOTH",
"749 677 OFFCURVE",
"768 691 OFFCURVE",
"795 692 CURVE",
"806 694 OFFCURVE",
"812 685 OFFCURVE",
"818 676 CURVE SMOOTH",
"826 664 OFFCURVE",
"837 648 OFFCURVE",
"860 647 CURVE SMOOTH",
"892 646 OFFCURVE",
"922 665 OFFCURVE",
"944 692 CURVE SMOOTH"
);
}
);
width = 576;
}
);
note = Itilde;
},
{
glyphname = J.ss01;
lastChange = "2021-09-02 22:26:51 +0000";
layers = (
{
hints = (
{
horizontal = 1;
place = "{263, 32}";
type = Stem;
},
{
place = "{185, 32}";
type = Stem;
}
);
layerId = "466AD7DC-B026-4005-940F-6404FDF7EB07";
paths = (
{
closed = 1;
nodes = (
"629 559 OFFCURVE",
"624 558 OFFCURVE",
"620 558 CURVE",
"614 570 OFFCURVE",
"590 574 OFFCURVE",
"581 557 CURVE",
"580 556 OFFCURVE",
"580 556 OFFCURVE",
"580 555 CURVE",
"405 537 OFFCURVE",
"198 459 OFFCURVE",
"128 315 CURVE SMOOTH",
"95 244 OFFCURVE",
"127 190 OFFCURVE",
"203 187 CURVE SMOOTH",
"238 186 OFFCURVE",
"280 194 OFFCURVE",
"325 214 CURVE SMOOTH",
"354 228 OFFCURVE",
"352 261 OFFCURVE",
"324 245 CURVE SMOOTH",
"301 231 OFFCURVE",
"247 213 OFFCURVE",
"206 216 CURVE SMOOTH",
"155 219 OFFCURVE",
"141 264 OFFCURVE",
"164 308 CURVE SMOOTH",
"222 417 OFFCURVE",
"404 490 OFFCURVE",
"553 515 CURVE",
"524 469 LINE SMOOTH",
"443 335 OFFCURVE",
"359 204 OFFCURVE",
"270 76 CURVE",
"236 71 OFFCURVE",
"197 63 OFFCURVE",
"157 53 CURVE SMOOTH",
"41 21 OFFCURVE",
"-191 -64 OFFCURVE",
"-213 -212 CURVE SMOOTH",
"-224 -282 OFFCURVE",
"-180 -315 OFFCURVE",
"-130 -320 CURVE SMOOTH",
"22 -332 OFFCURVE",
"127 -188 OFFCURVE",
"207 -80 CURVE SMOOTH",
"298 45 LINE",
"319 48 OFFCURVE",
"337 49 OFFCURVE",
"353 49 CURVE SMOOTH",
"384 48 OFFCURVE",
"380 81 OFFCURVE",
"350 82 CURVE SMOOTH",
"324 82 LINE",
"410 204 OFFCURVE",
"493 330 OFFCURVE",
"570 458 CURVE SMOOTH",
"587 487 OFFCURVE",
"599 508 OFFCURVE",
"608 522 CURVE",
"623 524 LINE SMOOTH",
"650 526 OFFCURVE",
"659 560 OFFCURVE",
"633 559 CURVE SMOOTH"
);
},
{
closed = 1;
nodes = (
"175 -56 LINE SMOOTH",
"117 -135 OFFCURVE",
"-5 -291 OFFCURVE",
"-119 -281 CURVE SMOOTH",
"-157 -278 OFFCURVE",
"-169 -253 OFFCURVE",
"-166 -224 CURVE SMOOTH",
"-156 -104 OFFCURVE",
"58 -15 OFFCURVE",
"154 13 CURVE SMOOTH",
"185 22 OFFCURVE",
"214 30 OFFCURVE",
"241 35 CURVE"
);
}
);
width = 415;
}
);
note = J;
},
{
color = 11;
glyphname = Jcircumflex.ss01;
lastChange = "2021-09-02 22:54:53 +0000";
layers = (
{
hints = (
{
horizontal = 1;
place = "{263, 32}";
type = Stem;
},
{
place = "{185, 32}";
type = Stem;
},
{
place = "{577, 347}";
type = Stem;
}
);
layerId = "466AD7DC-B026-4005-940F-6404FDF7EB07";
paths = (
{
closed = 1;
nodes = (
"629 559 OFFCURVE",
"624 558 OFFCURVE",
"620 558 CURVE",
"614 570 OFFCURVE",
"590 574 OFFCURVE",
"581 557 CURVE",
"580 556 OFFCURVE",
"580 556 OFFCURVE",
"580 555 CURVE",
"405 537 OFFCURVE",
"198 459 OFFCURVE",
"128 315 CURVE SMOOTH",
"95 244 OFFCURVE",
"127 190 OFFCURVE",
"203 187 CURVE SMOOTH",
"238 186 OFFCURVE",
"280 194 OFFCURVE",
"325 214 CURVE SMOOTH",
"354 228 OFFCURVE",
"352 261 OFFCURVE",
"324 245 CURVE SMOOTH",
"301 231 OFFCURVE",
"247 213 OFFCURVE",
"206 216 CURVE SMOOTH",
"155 219 OFFCURVE",
"141 264 OFFCURVE",
"164 308 CURVE SMOOTH",
"222 417 OFFCURVE",
"404 490 OFFCURVE",
"553 515 CURVE",
"524 469 LINE SMOOTH",
"443 335 OFFCURVE",
"359 204 OFFCURVE",
"270 76 CURVE",
"236 71 OFFCURVE",
"197 63 OFFCURVE",
"157 53 CURVE SMOOTH",
"41 21 OFFCURVE",
"-191 -64 OFFCURVE",
"-213 -212 CURVE SMOOTH",
"-224 -282 OFFCURVE",
"-180 -315 OFFCURVE",
"-130 -320 CURVE SMOOTH",
"22 -332 OFFCURVE",
"127 -188 OFFCURVE",
"207 -80 CURVE SMOOTH",
"298 45 LINE",
"319 48 OFFCURVE",
"337 49 OFFCURVE",
"353 49 CURVE SMOOTH",
"384 48 OFFCURVE",
"380 81 OFFCURVE",
"350 82 CURVE SMOOTH",
"324 82 LINE",
"410 204 OFFCURVE",
"493 330 OFFCURVE",
"570 458 CURVE SMOOTH",
"587 487 OFFCURVE",
"599 508 OFFCURVE",
"608 522 CURVE",
"623 524 LINE SMOOTH",
"650 526 OFFCURVE",
"659 560 OFFCURVE",
"633 559 CURVE SMOOTH"
);
},
{
closed = 1;
nodes = (
"175 -56 LINE SMOOTH",
"117 -135 OFFCURVE",
"-5 -291 OFFCURVE",
"-119 -281 CURVE SMOOTH",
"-157 -278 OFFCURVE",
"-169 -253 OFFCURVE",
"-166 -224 CURVE SMOOTH",
"-156 -104 OFFCURVE",
"58 -15 OFFCURVE",
"154 13 CURVE SMOOTH",
"185 22 OFFCURVE",
"214 30 OFFCURVE",
"241 35 CURVE"
);
},
{
closed = 1;
nodes = (
"509 638 LINE",
"488 622 OFFCURVE",
"523 604 OFFCURVE",
"545 622 CURVE",
"692 715 LINE",
"701 623 LINE",
"701 600 OFFCURVE",
"741 603 OFFCURVE",
"740 636 CURVE SMOOTH",
"732 737 LINE SMOOTH",
"731 759 OFFCURVE",
"694 762 OFFCURVE",
"676 748 CURVE"
);
}
);
width = 415;
}
);
note = Jcircumflex;
},
{
glyphname = K.ss01;
lastChange = "2021-09-02 22:26:51 +0000";
layers = (
{
hints = (
{
place = "{49, 32}";
type = Stem;
},
{
place = "{250, 32}";
type = Stem;
}
);
layerId = "466AD7DC-B026-4005-940F-6404FDF7EB07";
paths = (
{
closed = 1;
nodes = (
"625 542 OFFCURVE",
"625 574 OFFCURVE",
"601 571 CURVE SMOOTH",
"471 553 OFFCURVE",
"338 505 OFFCURVE",
"266 445 CURVE SMOOTH",
"231 416 OFFCURVE",
"186 358 OFFCURVE",
"236 313 CURVE SMOOTH",
"255 296 OFFCURVE",
"276 321 OFFCURVE",
"257 338 CURVE SMOOTH",
"234 358 OFFCURVE",
"280 405 OFFCURVE",
"291 414 CURVE SMOOTH",
"346 460 OFFCURVE",
"441 503 OFFCURVE",
"543 527 CURVE",
"501 463 OFFCURVE",
"441 369 OFFCURVE",
"378 277 CURVE",
"302 358 OFFCURVE",
"234 251 OFFCURVE",
"346 232 CURVE",
"282 141 OFFCURVE",
"218 59 OFFCURVE",
"170 20 CURVE SMOOTH",
"111 -29 OFFCURVE",
"40 -27 OFFCURVE",
"40 60 CURVE SMOOTH",
"40 84 OFFCURVE",
"8 77 OFFCURVE",
"6 56 CURVE SMOOTH",
"-3 -66 OFFCURVE",
"114 -73 OFFCURVE",
"188 -17 CURVE SMOOTH",
"231 16 OFFCURVE",
"301 104 OFFCURVE",
"370 201 CURVE",
"446 98 OFFCURVE",
"533 6 OFFCURVE",
"622 -46 CURVE SMOOTH",
"667 -73 OFFCURVE",
"786 -95 OFFCURVE",
"789 -9 CURVE SMOOTH",
"790 26 OFFCURVE",
"750 109 OFFCURVE",
"711 145 CURVE SMOOTH",
"687 168 OFFCURVE",
"669 145 OFFCURVE",
"678 137 CURVE SMOOTH",
"692 124 OFFCURVE",
"721 79 OFFCURVE",
"736 39 CURVE SMOOTH",
"779 -70 OFFCURVE",
"671 -39 OFFCURVE",
"617 0 CURVE SMOOTH",
"545 52 OFFCURVE",
"468 137 OFFCURVE",
"400 229 CURVE",
"407 230 OFFCURVE",
"415 232 OFFCURVE",
"423 234 CURVE SMOOTH",
"496 254 OFFCURVE",
"602 306 OFFCURVE",
"640 326 CURVE SMOOTH",
"725 369 OFFCURVE",
"878 485 OFFCURVE",
"893 549 CURVE SMOOTH",
"896 564 OFFCURVE",
"872 571 OFFCURVE",
"859 554 CURVE SMOOTH",
"798 469 OFFCURVE",
"719 412 OFFCURVE",
"631 363 CURVE SMOOTH",
"583 336 OFFCURVE",
"488 289 OFFCURVE",
"419 270 CURVE",
"503 391 OFFCURVE",
"578 510 OFFCURVE",
"595 537 CURVE",
"597 537 OFFCURVE",
"600 537 OFFCURVE",
"602 538 CURVE"
);
}
);
width = 809;
}
);
note = K;
},
{
glyphname = L.ss01;
lastChange = "2021-09-02 22:26:51 +0000";
layers = (
{
hints = (
{
horizontal = 1;
place = "{43, 32}";
type = Stem;
},
{
horizontal = 1;
place = "{194, 32}";
type = Stem;
},
{
place = "{191, 32}";
type = Stem;
}
);
layerId = "466AD7DC-B026-4005-940F-6404FDF7EB07";
paths = (
{
closed = 1;
nodes = (
"155 -93 OFFCURVE",
"212 -38 OFFCURVE",
"254 25 CURVE",
"350 29 OFFCURVE",
"442 8 OFFCURVE",
"538 -30 CURVE SMOOTH",
"551 -35 OFFCURVE",
"611 -66 OFFCURVE",
"590 -90 CURVE SMOOTH",
"573 -110 OFFCURVE",
"601 -127 OFFCURVE",
"618 -107 CURVE SMOOTH",
"664 -54 OFFCURVE",
"603 -13 OFFCURVE",
"559 5 CURVE SMOOTH",
"497 29 OFFCURVE",
"385 60 OFFCURVE",
"275 60 CURVE",
"289 84 OFFCURVE",
"304 113 OFFCURVE",
"317 135 CURVE",
"334 135 OFFCURVE",
"353 137 OFFCURVE",
"373 140 CURVE SMOOTH",
"541 161 OFFCURVE",
"707 275 OFFCURVE",
"779 372 CURVE SMOOTH",
"865 488 OFFCURVE",
"823 606 OFFCURVE",
"646 567 CURVE SMOOTH",
"514 536 OFFCURVE",
"399 351 OFFCURVE",
"286 165 CURVE",
"237 167 OFFCURVE",
"186 178 OFFCURVE",
"175 218 CURVE SMOOTH",
"164 260 OFFCURVE",
"235 289 OFFCURVE",
"259 291 CURVE SMOOTH",
"290 293 OFFCURVE",
"265 323 OFFCURVE",
"236 316 CURVE SMOOTH",
"149 293 OFFCURVE",
"125 241 OFFCURVE",
"135 206 CURVE SMOOTH",
"146 167 OFFCURVE",
"191 140 OFFCURVE",
"268 135 CURVE",
"253 109 OFFCURVE",
"239 83 OFFCURVE",
"223 58 CURVE",
"153 52 OFFCURVE",
"100 39 OFFCURVE",
"64 22 CURVE SMOOTH",
"-25 -20 OFFCURVE",
"-7 -93 OFFCURVE",
"70 -93 CURVE SMOOTH"
);
},
{
closed = 1;
nodes = (
"799 565 OFFCURVE",
"799 457 OFFCURVE",
"730 373 CURVE SMOOTH",
"669 299 OFFCURVE",
"519 189 OFFCURVE",
"365 170 CURVE SMOOTH",
"336 167 LINE",
"437 335 OFFCURVE",
"539 500 OFFCURVE",
"657 530 CURVE SMOOTH"
);
},
{
closed = 1;
nodes = (
"72 -74 OFFCURVE",
"13 -35 OFFCURVE",
"80 -11 CURVE SMOOTH",
"120 3 OFFCURVE",
"158 13 OFFCURVE",
"196 19 CURVE",
"175 -6 OFFCURVE",
"151 -28 OFFCURVE",
"121 -46 CURVE SMOOTH"
);
}
);
width = 632;
}
);
note = L;
},
{
color = 11;
glyphname = Lacute.ss01;
lastChange = "2021-09-02 22:26:51 +0000";
layers = (
{
hints = (
{
horizontal = 1;
place = "{43, 32}";
type = Stem;
},
{
horizontal = 1;
place = "{194, 32}";
type = Stem;
},
{
place = "{191, 32}";
type = Stem;
}
);
layerId = "466AD7DC-B026-4005-940F-6404FDF7EB07";
paths = (
{
closed = 1;
nodes = (
"155 -93 OFFCURVE",
"212 -38 OFFCURVE",
"254 25 CURVE",
"350 29 OFFCURVE",
"442 8 OFFCURVE",
"538 -30 CURVE SMOOTH",
"551 -35 OFFCURVE",
"611 -66 OFFCURVE",
"590 -90 CURVE SMOOTH",
"573 -110 OFFCURVE",
"601 -127 OFFCURVE",
"618 -107 CURVE SMOOTH",
"664 -54 OFFCURVE",
"603 -13 OFFCURVE",
"559 5 CURVE SMOOTH",
"497 29 OFFCURVE",
"385 60 OFFCURVE",
"275 60 CURVE",
"289 84 OFFCURVE",
"304 113 OFFCURVE",
"317 135 CURVE",
"334 135 OFFCURVE",
"353 137 OFFCURVE",
"373 140 CURVE SMOOTH",
"541 161 OFFCURVE",
"707 275 OFFCURVE",
"779 372 CURVE SMOOTH",
"865 488 OFFCURVE",
"823 606 OFFCURVE",
"646 567 CURVE SMOOTH",
"514 536 OFFCURVE",
"399 351 OFFCURVE",
"286 165 CURVE",
"237 167 OFFCURVE",
"186 178 OFFCURVE",
"175 218 CURVE SMOOTH",
"164 260 OFFCURVE",
"235 289 OFFCURVE",
"259 291 CURVE SMOOTH",
"290 293 OFFCURVE",
"265 323 OFFCURVE",
"236 316 CURVE SMOOTH",
"149 293 OFFCURVE",
"125 241 OFFCURVE",
"135 206 CURVE SMOOTH",
"146 167 OFFCURVE",
"191 140 OFFCURVE",
"268 135 CURVE",
"253 109 OFFCURVE",
"239 83 OFFCURVE",
"223 58 CURVE",
"153 52 OFFCURVE",
"100 39 OFFCURVE",
"64 22 CURVE SMOOTH",
"-25 -20 OFFCURVE",
"-7 -93 OFFCURVE",
"70 -93 CURVE SMOOTH"
);
},
{
closed = 1;
nodes = (
"799 565 OFFCURVE",
"799 457 OFFCURVE",
"730 373 CURVE SMOOTH",
"669 299 OFFCURVE",
"519 189 OFFCURVE",
"365 170 CURVE SMOOTH",
"336 167 LINE",
"437 335 OFFCURVE",
"539 500 OFFCURVE",
"657 530 CURVE SMOOTH"
);
},
{
closed = 1;
nodes = (
"681 643 OFFCURVE",
"694 613 OFFCURVE",
"727 628 CURVE SMOOTH",
"845 678 LINE SMOOTH",
"868 688 OFFCURVE",
"857 731 OFFCURVE",
"829 716 CURVE SMOOTH",
"826 714 OFFCURVE",
"710 658 OFFCURVE",
"710 658 CURVE"
);
},
{
closed = 1;
nodes = (
"72 -74 OFFCURVE",
"13 -35 OFFCURVE",
"80 -11 CURVE SMOOTH",
"120 3 OFFCURVE",
"158 13 OFFCURVE",
"196 19 CURVE",
"175 -6 OFFCURVE",
"151 -28 OFFCURVE",
"121 -46 CURVE SMOOTH"
);
}
);
width = 632;
}
);
note = Lacute;
},
{
color = 11;
glyphname = Lcaron.ss01;
lastChange = "2021-09-02 22:54:53 +0000";
layers = (
{
hints = (
{
horizontal = 1;
place = "{43, 32}";
type = Stem;
},
{
horizontal = 1;
place = "{194, 32}";
type = Stem;
},
{
place = "{191, 32}";
type = Stem;
}
);
layerId = "466AD7DC-B026-4005-940F-6404FDF7EB07";
paths = (
{
closed = 1;
nodes = (
"155 -93 OFFCURVE",
"212 -38 OFFCURVE",
"254 25 CURVE",
"350 29 OFFCURVE",
"442 8 OFFCURVE",
"538 -30 CURVE SMOOTH",
"551 -35 OFFCURVE",
"611 -66 OFFCURVE",
"590 -90 CURVE SMOOTH",
"573 -110 OFFCURVE",
"601 -127 OFFCURVE",
"618 -107 CURVE SMOOTH",
"664 -54 OFFCURVE",
"603 -13 OFFCURVE",
"559 5 CURVE SMOOTH",
"497 29 OFFCURVE",
"385 60 OFFCURVE",
"275 60 CURVE",
"289 84 OFFCURVE",
"304 113 OFFCURVE",
"317 135 CURVE",
"334 135 OFFCURVE",
"353 137 OFFCURVE",
"373 140 CURVE SMOOTH",
"541 161 OFFCURVE",
"707 275 OFFCURVE",
"779 372 CURVE SMOOTH",
"865 488 OFFCURVE",
"823 606 OFFCURVE",
"646 567 CURVE SMOOTH",
"514 536 OFFCURVE",
"399 351 OFFCURVE",
"286 165 CURVE",
"237 167 OFFCURVE",
"186 178 OFFCURVE",
"175 218 CURVE SMOOTH",
"164 260 OFFCURVE",
"235 289 OFFCURVE",
"259 291 CURVE SMOOTH",
"290 293 OFFCURVE",
"265 323 OFFCURVE",
"236 316 CURVE SMOOTH",
"149 293 OFFCURVE",
"125 241 OFFCURVE",
"135 206 CURVE SMOOTH",
"146 167 OFFCURVE",
"191 140 OFFCURVE",
"268 135 CURVE",
"253 109 OFFCURVE",
"239 83 OFFCURVE",
"223 58 CURVE",
"153 52 OFFCURVE",
"100 39 OFFCURVE",
"64 22 CURVE SMOOTH",
"-25 -20 OFFCURVE",
"-7 -93 OFFCURVE",
"70 -93 CURVE SMOOTH"
);
},
{
closed = 1;
nodes = (
"799 565 OFFCURVE",
"799 457 OFFCURVE",
"730 373 CURVE SMOOTH",
"669 299 OFFCURVE",
"519 189 OFFCURVE",
"365 170 CURVE SMOOTH",
"336 167 LINE",
"437 335 OFFCURVE",
"539 500 OFFCURVE",
"657 530 CURVE SMOOTH"
);
},
{
closed = 1;
nodes = (
"907 454 OFFCURVE",
"900 479 OFFCURVE",
"881 486 CURVE SMOOTH",
"860 493 OFFCURVE",
"851 462 OFFCURVE",
"871 455 CURVE",
"873 455 OFFCURVE",
"873 448 OFFCURVE",
"871 442 CURVE SMOOTH",
"865 423 OFFCURVE",
"846 396 OFFCURVE",
"817 364 CURVE SMOOTH",
"807 353 OFFCURVE",
"796 343 OFFCURVE",
"784 332 CURVE SMOOTH",
"770 318 OFFCURVE",
"792 294 OFFCURVE",
"806 307 CURVE SMOOTH",
"819 320 OFFCURVE",
"831 331 OFFCURVE",
"841 342 CURVE SMOOTH",
"873 378 OFFCURVE",
"892 407 OFFCURVE",
"900 431 CURVE SMOOTH"
);
},
{
closed = 1;
nodes = (
"72 -74 OFFCURVE",
"13 -35 OFFCURVE",
"80 -11 CURVE SMOOTH",
"120 3 OFFCURVE",
"158 13 OFFCURVE",
"196 19 CURVE",
"175 -6 OFFCURVE",
"151 -28 OFFCURVE",
"121 -46 CURVE SMOOTH"
);
}
);
width = 632;
}
);
note = Lcaron;
},
{
color = 11;
glyphname = Ldot.ss01;
lastChange = "2021-09-02 22:26:51 +0000";
layers = (
{
hints = (
{
horizontal = 1;
place = "{43, 32}";
type = Stem;
},
{
horizontal = 1;
place = "{95, 52}";
type = Stem;
},
{
horizontal = 1;
place = "{194, 32}";
type = Stem;
},
{
place = "{191, 32}";
type = Stem;
},
{
place = "{557, 52}";
type = Stem;
}
);
layerId = "466AD7DC-B026-4005-940F-6404FDF7EB07";
paths = (
{
closed = 1;
nodes = (
"155 -93 OFFCURVE",
"212 -38 OFFCURVE",
"254 25 CURVE",
"350 29 OFFCURVE",
"442 8 OFFCURVE",
"538 -30 CURVE SMOOTH",
"551 -35 OFFCURVE",
"611 -66 OFFCURVE",
"590 -90 CURVE SMOOTH",
"573 -110 OFFCURVE",
"601 -127 OFFCURVE",
"618 -107 CURVE SMOOTH",
"664 -54 OFFCURVE",
"603 -13 OFFCURVE",
"559 5 CURVE SMOOTH",
"497 29 OFFCURVE",
"385 60 OFFCURVE",
"275 60 CURVE",
"289 84 OFFCURVE",
"304 113 OFFCURVE",
"317 135 CURVE",
"334 135 OFFCURVE",
"353 137 OFFCURVE",
"373 140 CURVE SMOOTH",
"541 161 OFFCURVE",
"707 275 OFFCURVE",
"779 372 CURVE SMOOTH",
"865 488 OFFCURVE",
"823 606 OFFCURVE",
"646 567 CURVE SMOOTH",
"514 536 OFFCURVE",
"399 351 OFFCURVE",
"286 165 CURVE",
"237 167 OFFCURVE",
"186 178 OFFCURVE",
"175 218 CURVE SMOOTH",
"164 260 OFFCURVE",
"235 289 OFFCURVE",
"259 291 CURVE SMOOTH",
"290 293 OFFCURVE",
"265 323 OFFCURVE",
"236 316 CURVE SMOOTH",
"149 293 OFFCURVE",
"125 241 OFFCURVE",
"135 206 CURVE SMOOTH",
"146 167 OFFCURVE",
"191 140 OFFCURVE",
"268 135 CURVE",
"253 109 OFFCURVE",
"239 83 OFFCURVE",
"223 58 CURVE",
"153 52 OFFCURVE",
"100 39 OFFCURVE",
"64 22 CURVE SMOOTH",
"-25 -20 OFFCURVE",
"-7 -93 OFFCURVE",
"70 -93 CURVE SMOOTH"
);
},
{
closed = 1;
nodes = (
"799 565 OFFCURVE",
"799 457 OFFCURVE",
"730 373 CURVE SMOOTH",
"669 299 OFFCURVE",
"519 189 OFFCURVE",
"365 170 CURVE SMOOTH",
"336 167 LINE",
"437 335 OFFCURVE",
"539 500 OFFCURVE",
"657 530 CURVE SMOOTH"
);
},
{
closed = 1;
nodes = (
"72 -74 OFFCURVE",
"13 -35 OFFCURVE",
"80 -11 CURVE SMOOTH",
"120 3 OFFCURVE",
"158 13 OFFCURVE",
"196 19 CURVE",
"175 -6 OFFCURVE",
"151 -28 OFFCURVE",
"121 -46 CURVE SMOOTH"
);
},
{
closed = 1;
nodes = (
"627 112 OFFCURVE",
"638 125 OFFCURVE",
"638 140 CURVE SMOOTH",
"638 156 OFFCURVE",
"627 167 OFFCURVE",
"611 167 CURVE SMOOTH",
"595 167 OFFCURVE",
"583 156 OFFCURVE",
"583 140 CURVE SMOOTH",
"583 125 OFFCURVE",
"595 112 OFFCURVE",
"611 112 CURVE SMOOTH"
);
}
);
width = 632;
}
);
note = Ldot;
},
{
color = 11;
glyphname = Lslash.ss01;
lastChange = "2021-09-02 22:26:51 +0000";
layers = (
{
hints = (
{
horizontal = 1;
place = "{158, 32}";
type = Stem;
},
{
horizontal = 1;
place = "{528, 19}";
type = Stem;
}
);
layerId = "466AD7DC-B026-4005-940F-6404FDF7EB07";
paths = (
{
closed = 1;
nodes = (
"270 158 LINE SMOOTH",
"292 158 OFFCURVE",
"292 190 OFFCURVE",
"270 190 CURVE SMOOTH",
"208 190 LINE",
"405 495 LINE SMOOTH",
"419 517 OFFCURVE",
"386 539 OFFCURVE",
"372 517 CURVE SMOOTH",
"160 190 LINE",
"85 190 LINE SMOOTH",
"63 190 OFFCURVE",
"63 158 OFFCURVE",
"85 158 CURVE SMOOTH",
"139 158 LINE",
"33 -6 LINE SMOOTH",
"18 -28 OFFCURVE",
"50 -55 OFFCURVE",
"64 -33 CURVE SMOOTH",
"70 -24 LINE",
"182 14 OFFCURVE",
"271 31 OFFCURVE",
"360 18 CURVE SMOOTH",
"374 16 OFFCURVE",
"440 0 OFFCURVE",
"425 -29 CURVE SMOOTH",
"413 -52 OFFCURVE",
"444 -62 OFFCURVE",
"456 -39 CURVE SMOOTH",
"488 24 OFFCURVE",
"419 49 OFFCURVE",
"373 56 CURVE SMOOTH",
"283 69 OFFCURVE",
"206 56 OFFCURVE",
"100 22 CURVE",
"187 158 LINE"
);
}
);
width = 482;
}
);
note = Lslash;
},
{
glyphname = M.ss01;
lastChange = "2021-09-02 22:26:51 +0000";
layers = (
{
hints = (
{
horizontal = 1;
place = "{-289, 37}";
type = Stem;
},
{
horizontal = 1;
place = "{190, 37}";
type = Stem;
},
{
horizontal = 1;
place = "{399, 40}";
type = Stem;
},
{
horizontal = 1;
place = "{496, 39}";
type = Stem;
},
{
place = "{52, 38}";
type = Stem;
},
{
place = "{417, 38}";
type = Stem;
},
{
place = "{673, 42}";
type = Stem;
},
{
place = "{1023, 44}";
type = Stem;
},
{
place = "{649, 37}";
type = Stem;
}
);
layerId = "466AD7DC-B026-4005-940F-6404FDF7EB07";
paths = (
{
closed = 1;
nodes = (
"173 -23 LINE SMOOTH",
"158 -43 OFFCURVE",
"188 -66 OFFCURVE",
"203 -45 CURVE SMOOTH",
"209 -37 OFFCURVE",
"215 -29 OFFCURVE",
"220 -21 CURVE",
"223 -18 LINE",
"290 74 OFFCURVE",
"507 359 OFFCURVE",
"614 396 CURVE SMOOTH",
"633 402 OFFCURVE",
"651 406 OFFCURVE",
"649 343 CURVE SMOOTH",
"647 317 OFFCURVE",
"640 283 OFFCURVE",
"623 241 CURVE",
"590 203 OFFCURVE",
"559 163 OFFCURVE",
"542 137 CURVE SMOOTH",
"539 132 OFFCURVE",
"459 5 OFFCURVE",
"524 16 CURVE SMOOTH",
"556 21 OFFCURVE",
"632 149 OFFCURVE",
"678 253 CURVE",
"715 304 OFFCURVE",
"896 455 OFFCURVE",
"967 486 CURVE SMOOTH",
"1049 522 OFFCURVE",
"1021 447 OFFCURVE",
"1008 426 CURVE SMOOTH",
"918 271 OFFCURVE",
"748 55 OFFCURVE",
"692 -106 CURVE SMOOTH",
"672 -162 OFFCURVE",
"664 -216 OFFCURVE",
"686 -251 CURVE SMOOTH",
"719 -300 OFFCURVE",
"789 -293 OFFCURVE",
"815 -280 CURVE SMOOTH",
"834 -270 OFFCURVE",
"834 -239 OFFCURVE",
"811 -246 CURVE SMOOTH",
"786 -254 OFFCURVE",
"736 -259 OFFCURVE",
"720 -223 CURVE SMOOTH",
"709 -199 OFFCURVE",
"716 -160 OFFCURVE",
"731 -118 CURVE SMOOTH",
"800 76 OFFCURVE",
"954 237 OFFCURVE",
"1051 418 CURVE SMOOTH",
"1082 477 OFFCURVE",
"1079 569 OFFCURVE",
"957 522 CURVE SMOOTH",
"893 496 OFFCURVE",
"729 364 OFFCURVE",
"678 303 CURVE",
"683 317 OFFCURVE",
"685 330 OFFCURVE",
"686 341 CURVE SMOOTH",
"690 424 OFFCURVE",
"653 452 OFFCURVE",
"602 434 CURVE SMOOTH",
"553 417 OFFCURVE",
"487 358 OFFCURVE",
"422 288 CURVE",
"447 344 OFFCURVE",
"458 401 OFFCURVE",
"455 459 CURVE SMOOTH",
"451 536 OFFCURVE",
"399 605 OFFCURVE",
"309 593 CURVE SMOOTH",
"177 576 OFFCURVE",
"42 419 OFFCURVE",
"52 269 CURVE SMOOTH",
"60 158 OFFCURVE",
"164 178 OFFCURVE",
"213 245 CURVE SMOOTH",
"228 266 OFFCURVE",
"197 288 OFFCURVE",
"182 268 CURVE SMOOTH",
"157 234 OFFCURVE",
"95 195 OFFCURVE",
"90 272 CURVE SMOOTH",
"75 494 OFFCURVE",
"405 675 OFFCURVE",
"417 457 CURVE SMOOTH",
"420 387 OFFCURVE",
"401 315 OFFCURVE",
"357 246 CURVE SMOOTH",
"319 186 OFFCURVE",
"271 115 OFFCURVE",
"219 41 CURVE SMOOTH",
"192 4 LINE",
"189 0 LINE"
);
}
);
width = 887;
}
);
note = M;
},
